<svg width="512" height="351" viewBox="0 0 512 351" fill="none" xmlns="http://www.w3.org/2000/svg">
<ellipse cx="256" cy="288.416" rx="256" ry="62.3377" fill="url(#paint0_radial)"/>
<path d="M162.314 80.9787C165.041 73.6003 174.633 58.3622 191.187 56.4374C187.979 42.4825 187.626 14.1877 211.878 12.6479C230.478 11.467 232.341 22.286 229.885 31.7348C237.009 15.2024 250.053 -5.9879 262.886 1.58022C277.899 10.4343 276.841 30.6128 274.435 39.5952C281.011 29.1692 298.302 10.9155 314.856 21.3095C331.409 31.7035 321.753 42.6429 314.856 46.8133C320.791 47.2945 335.74 50.9516 348.059 61.7306C360.41 45.2093 391.367 21.0208 416.39 56.4374C441.412 91.8539 408.209 117.39 388.48 125.731C401.953 152.678 426.399 228.997 416.39 318.693C353.031 326.713 202.928 337.941 109.382 318.693C102.324 261.911 109.382 147.948 131.999 125.731C131.999 125.731 69.8271 100.997 90.6151 61.7306C111.403 22.4644 147.076 58.2018 162.314 80.9787Z" fill="#E7CA9F"/>
<path d="M289.203 210.903C269.955 208.979 266.105 192.457 266.586 184.437H252.15C254.556 190.532 253.401 204.359 229.534 210.903C205.666 217.448 197.293 204.487 192 197.43C190.556 195.505 186.707 194.542 184.301 195.505C178.045 198.007 179.489 205.129 185.263 211.866C194.406 224.858 216.862 223.735 226.165 222.452V249.881C226.165 255.655 292.571 258.061 292.571 249.881V222.452C309.895 222.837 322.887 217.64 328.18 210.903C331.228 207.214 335.495 198.97 328.18 195.505C322.887 192.998 320 195.505 317.594 199.836C315.027 205.771 308.451 212.828 289.203 210.903Z" fill="#2B2E5E"/>
<path d="M374.937 103.791C373.397 95.707 367.238 89.1947 364.351 86.9491C372.05 78.6082 389.277 64.6212 396.591 75.4002C405.734 88.8739 376.862 113.896 374.937 103.791Z" fill="#2B2E5E"/>
<path d="M146.366 86.9491C141.361 86.9491 135.619 98.1771 133.373 103.791C121.824 98.1771 101.614 84.6393 113.163 75.4002C127.599 63.8513 152.621 86.9491 146.366 86.9491Z" fill="#2B2E5E"/>
<path d="M230.015 160.858C228.86 174.717 244.291 182.673 252.15 184.919H266.586C287.374 179.914 291.128 166.793 290.647 160.858C290.412 157.971 286.316 152.678 259.85 152.678C233.647 152.678 229.855 157.49 230.015 160.858Z" fill="#2B2E5E"/>
<ellipse cx="332.992" cy="139.204" rx="21.1729" ry="24.5414" fill="#2B2E5E"/>
<circle cx="327.218" cy="126.212" r="6.73684" fill="white"/>
<path d="M263.699 246.512V213.791C269.36 219.95 282.098 224.698 287.759 226.302V246.512H263.699Z" fill="white"/>
<path d="M255.038 246.512V213.791C249.376 219.95 236.639 224.698 230.977 226.302V246.512H255.038Z" fill="white"/>
<ellipse cx="184.782" cy="139.204" rx="21.1729" ry="24.5414" fill="#2B2E5E"/>
<circle cx="178.045" cy="126.212" r="6.73684" fill="white"/>
<path d="M392.312 315.013C392.312 232.45 370.701 55.5221 294.234 51.5325C301.188 46.1235 351.243 60.8284 348.901 71.6056C360.554 53.6572 389.161 26.3717 411.429 58.1818C434.701 91.4286 400.623 115.255 380.675 122.182C395.636 152.381 421.901 233.558 410.597 313.351L392.312 315.013Z" fill="#2B2E5E" fill-opacity="0.1"/>
<defs>
<radialGradient id="paint0_radial" cx="0" cy="0" r="1" gradientUnits="userSpaceOnUse" gradientTransform="translate(256 288.416) rotate(90) scale(290.078 6126.94)">
<stop stop-color="#8461C9"/>
<stop offset="1" stop-color="#2B2E5E"/>
</radialGradient>
</defs>
</svg>
