<svg width="481" height="408" viewBox="0 0 481 408" fill="none" xmlns="http://www.w3.org/2000/svg">
<path d="M134.309 347.098C134.309 346.938 134.309 346.778 134.468 346.459C134.309 346.619 134.309 346.938 134.309 347.098Z" fill="#5B418B"/>
<path d="M1.277 317.747C2.23407 317.907 3.19114 318.226 3.98869 318.385L5.26479 316.631C17.2282 299.244 52.9588 291.109 81.0328 286.961C82.1494 286.802 83.266 286.642 84.3825 286.483C85.4991 286.323 86.7752 286.164 87.8918 286.004C51.8422 274.36 25.0442 242.936 13.5594 204.015C13.5594 203.856 13.3999 203.696 13.3999 203.537C13.3999 203.377 13.3999 203.218 13.2404 203.218C5.90283 178.174 4.78625 150.26 11.6453 122.664C20.8969 84.7007 43.5476 53.1174 73.8548 35.8901C89.6464 26.798 106.874 22.3316 124.101 22.3316C133.672 22.3316 143.083 23.7672 152.334 26.6384C153.77 27.117 155.206 27.5955 156.641 28.074C156.801 28.074 156.801 28.074 156.96 28.2336C157.12 28.2336 157.279 28.3931 157.439 28.3931C207.206 46.7369 238.152 103.683 233.685 164.456C234.164 164.297 234.802 164.137 235.281 163.978C235.759 163.818 236.397 163.659 236.876 163.499C255.858 158.395 276.275 157.119 297.171 158.874C297.65 158.874 298.288 159.033 298.766 159.033C299.245 159.033 299.883 159.193 300.361 159.193C300.521 155.045 300.999 150.898 301.637 146.751C305.466 122.186 316.153 100.811 331.466 86.2958L331.626 86.1363L331.785 85.9768C334.337 83.5841 336.889 81.5104 339.601 79.5963C350.129 72.0993 361.614 68.271 373.099 68.271C376.129 68.271 379.16 68.59 382.191 69.0685C419.038 75.768 442.965 121.548 435.308 171.315C431.001 199.07 417.921 222.838 399.258 237.034L399.099 237.194L398.939 237.353C398.461 237.672 397.982 238.151 397.344 238.47C383.945 248.041 369.27 251.709 354.755 248.998C353.957 248.838 353.16 248.679 352.362 248.519C352.203 248.998 352.043 249.476 351.884 250.114C351.724 250.593 351.564 251.071 351.405 251.55C350.288 254.262 348.853 256.814 346.939 259.047C338.963 268.458 324.128 273.243 297.49 275.158C291.907 275.636 286.484 275.796 281.539 275.796C242.778 275.796 219.489 263.354 217.415 240.703C217.096 236.875 217.256 233.046 218.053 229.378C219.01 224.911 220.765 220.445 223.317 216.138C223.158 216.138 222.998 216.298 222.679 216.298C222.041 216.457 221.244 216.776 220.605 217.095C208.961 242.936 190.458 264.151 167.648 277.231C161.586 280.581 155.525 283.452 149.144 285.526C150.261 285.685 151.377 285.845 152.494 286.004C153.451 286.164 154.568 286.323 155.525 286.483C182.801 291.268 201.943 300.839 211.513 314.716C218.053 324.128 219.01 333.698 218.532 340.398H221.403C222.998 340.398 224.434 340.398 226.029 340.398C251.391 340.398 276.275 339.6 300.361 338.324L301.159 335.931C309.932 308.814 350.607 284.25 372.46 271.17C374.853 269.734 377.086 268.458 379 267.182C386.179 262.875 393.995 260.323 400.694 259.685C401.492 259.685 402.449 259.525 403.246 259.525C402.289 253.464 401.013 247.243 399.737 240.703L399.896 240.544L400.056 240.384C419.995 225.709 434.032 200.825 438.498 171.634C446.314 120.272 421.431 72.7373 382.829 65.7188C367.516 63.0071 351.884 66.8354 337.846 76.8846C334.975 78.7987 332.423 81.0319 329.871 83.4246L329.711 83.5841L329.552 83.7436C317.908 70.3446 308.018 60.9334 300.361 54.3935C284.251 40.9945 274.68 37.4852 274.68 37.4852L274.361 37.3257L274.52 37.1662L296.054 14.6751L229.698 25.6814L254.741 0L182.642 25.0433C175.942 25.3623 169.562 26.1599 163.341 27.117C163.181 27.117 163.022 26.9575 163.022 26.9575C162.862 26.9575 162.862 26.7979 162.703 26.7979C159.672 25.5219 156.641 24.4053 153.451 23.4482C126.653 15.1536 97.7815 18.6629 72.4192 33.0189C41.3144 50.7247 18.1852 83.1056 8.77404 121.867C1.43651 152.015 3.19114 182.641 12.1238 209.439C12.1238 209.598 12.2833 209.598 12.2833 209.758C12.2833 209.917 12.4428 210.077 12.4428 210.077C3.51016 252.188 1.277 292.225 0.798462 317.269L1.277 317.747Z" fill="#5B418B"/>
<path d="M371.024 228.261C379.319 229.697 387.454 227.623 394.791 223.476C394.951 223.316 395.11 223.157 395.429 222.997L395.589 222.838L395.748 222.678C417.442 205.132 420.951 191.414 423.025 175.782C427.172 147.548 409.626 112.775 384.104 109.106C374.374 108.468 364.962 112.137 356.987 118.836L356.827 118.996L356.668 119.155C345.662 128.566 337.367 143.72 334.974 161.904C332.901 176.898 335.134 191.095 340.557 202.58C343.907 206.408 346.619 210.715 348.533 215.181C354.754 222.2 362.41 226.826 371.024 228.261ZM376.128 126.652C384.423 122.345 396.546 128.885 402.926 141.168C409.307 153.61 407.871 167.168 399.417 171.475C391.122 175.782 393.834 163.34 387.454 150.898C381.073 138.616 367.834 130.959 376.128 126.652Z" fill="#5B418B"/>
<path d="M64.1237 162.542C56.4671 215.181 83.9031 263.035 125.057 269.256C138.935 271.329 152.812 268.617 165.254 261.599C203.058 233.206 209.598 210.396 213.108 185.033C219.648 139.732 190.297 83.903 146.91 78.0011C107.83 75.6084 71.4612 112.296 64.1237 162.542ZM182.641 134.628C193.328 156.321 191.414 179.291 178.174 185.831C164.935 192.371 169.082 171.475 158.236 149.781C147.548 128.088 125.855 113.891 139.094 107.351C152.493 100.652 171.954 112.934 182.641 134.628Z" fill="#5B418B"/>
<path d="M363.527 361.134V360.975C362.091 351.564 360.656 343.269 359.699 338.005C317.588 342.631 272.605 345.024 226.028 345.024C224.911 345.024 223.795 345.024 222.519 345.024C222.2 346.459 221.881 347.416 221.721 348.054C221.562 353.797 220.286 359.539 218.212 365.122V365.282C218.212 365.282 218.212 365.441 218.052 365.441C217.574 366.558 217.255 367.515 216.776 368.631C219.647 368.631 222.519 368.631 225.23 368.631C241.501 368.631 257.611 368.312 273.403 367.674C274.998 367.674 276.434 367.515 278.029 367.515C279.624 367.515 281.219 367.355 282.655 367.355C308.336 366.239 333.539 364.325 357.785 361.772C358.582 361.613 359.539 361.613 360.337 361.453C360.975 361.453 361.772 361.294 362.41 361.294C362.729 361.294 363.048 361.294 363.367 361.134C363.367 361.134 363.367 361.134 363.367 360.975C363.686 361.294 363.686 361.134 363.527 361.134Z" fill="#5B418B"/>
<path d="M71.3017 345.024V344.864C71.1422 342.95 70.9827 341.355 70.8232 340.238C66.6759 337.527 61.731 335.293 55.9886 333.379C38.4423 330.668 21.8531 327.477 2.7117 323.011C2.23316 326.999 1.27609 334.815 0.638046 340.876C0.638046 341.355 0.478535 341.833 0.478535 342.312C0.478535 342.79 0.319023 343.269 0.319023 343.588C0.159512 344.864 0 345.981 0 346.938C24.7243 352.521 47.8535 356.508 72.4183 359.699C72.0993 354.116 71.7802 349.171 71.4612 345.343C71.3017 345.183 71.3017 345.024 71.3017 345.024Z" fill="#5B418B"/>
<path d="M145.634 289.673C144.198 289.514 142.922 289.354 141.487 289.195C139.732 289.035 137.978 288.876 136.223 288.716C130.48 288.238 124.419 287.919 118.039 287.759C116.124 287.759 114.689 287.759 112.934 288.078C111.339 288.238 109.265 288.557 106.873 288.716H106.554C104.959 288.876 103.204 289.035 101.13 289.354C99.5352 289.514 97.6211 289.673 95.8664 289.992C94.4308 290.152 92.9952 290.311 91.4001 290.471C65.7188 293.82 26.4789 300.679 11.8038 316.312C12.9204 316.471 14.037 316.631 15.1536 316.79H15.4726C33.9759 319.661 51.5222 322.373 65.7188 328.434C67.3139 329.073 69.0685 329.87 70.6636 330.827C72.0992 331.625 73.5348 332.263 74.6514 333.06C75.9275 333.858 77.0441 334.496 78.1607 335.293L79.9153 336.57L80.0748 338.803C80.0748 339.122 80.3938 342.153 80.8724 346.938V347.097V347.257C81.1914 351.883 81.6699 357.944 81.9889 364.484L82.1484 367.674C82.7865 382.987 82.4675 394.951 81.0319 403.405C91.4001 399.258 109.744 389.687 120.75 370.865C121.069 370.386 121.388 369.908 121.548 369.429C121.707 369.11 122.026 368.631 122.186 368.153L122.345 367.834C124.419 363.846 126.174 359.539 127.45 355.073V354.913V354.754C128.247 352.202 128.726 349.49 129.204 346.778C129.364 345.662 129.523 344.545 129.683 343.588L130.002 341.195L139.413 342.312L139.094 344.705C138.935 346.14 138.775 347.735 138.456 349.171C138.137 351.085 137.818 353.478 137.339 356.19V356.349V356.509C136.701 360.496 135.744 365.122 134.628 370.067L133.83 373.257C130.321 387.454 126.174 398.62 121.388 406.595C134.787 401.65 153.131 391.92 163.021 373.576C163.34 373.098 163.499 372.619 163.818 372.141C163.978 371.662 164.297 371.184 164.456 370.705C165.892 367.515 167.009 364.165 167.966 360.815V360.656V360.496C168.763 357.306 169.242 354.116 169.561 350.766L169.72 348.373L179.132 348.852V351.245C179.132 351.564 178.972 355.551 178.493 361.613V361.772V361.932C178.174 364.963 177.855 368.472 177.217 372.3L176.739 375.49C174.506 388.73 171.475 399.417 167.328 407.552C178.174 401.172 194.285 390.006 203.856 374.693C204.175 374.214 204.494 373.736 204.813 373.098C205.132 372.619 205.291 372.3 205.451 371.822L205.61 371.503C206.887 369.269 207.844 367.036 208.801 364.803C208.801 364.803 208.801 364.644 208.96 364.644V364.484C210.874 359.22 211.991 353.956 212.15 348.692V347.895L212.469 347.257C212.469 347.257 212.948 345.981 213.267 343.748C213.267 343.269 213.427 342.791 213.427 342.312C213.427 341.833 213.586 341.355 213.586 340.876C214.065 334.974 213.426 326.042 207.365 317.269C197.635 302.913 176.42 293.501 145.634 289.673Z" fill="#5B418B"/>
<path d="M480.608 315.195V314.876V314.716C480.608 314.557 480.608 314.238 480.608 313.6C480.608 313.121 480.608 312.643 480.449 312.005C480.449 311.526 480.289 311.048 480.289 310.41C479.332 303.391 476.142 290.152 464.817 279.464C451.577 267.341 431.319 262.077 404.362 263.992H404.202H404.043C403.086 263.992 402.129 264.151 401.172 264.151C395.11 264.63 388.092 267.022 381.552 271.01C379.638 272.127 377.404 273.562 375.012 274.998C354.754 287.28 317.747 309.452 307.06 333.539C325.085 331.306 337.208 330.189 362.889 328.275L367.036 327.956L368.631 335.931C369.588 340.557 371.183 349.49 372.779 359.699V359.858V360.018C372.938 361.294 373.257 362.57 373.417 364.005L373.895 367.196C376.128 382.349 377.245 394.632 377.245 403.724C385.061 396.865 397.662 383.147 404.362 361.932C404.521 361.613 404.521 361.134 404.681 360.815L405 359.699C405.159 359.38 405.159 359.061 405.319 358.582C407.871 349.49 408.988 339.919 408.988 329.71V329.072C408.988 328.753 408.988 328.434 408.988 328.115V325.563L408.828 323.17L418.399 322.851L418.558 325.563C418.558 326.042 418.558 326.68 418.558 327.158V328.753C418.718 334.336 418.877 345.343 418.239 357.784L418.08 361.134C417.123 377.245 415.209 390.165 412.178 399.736C422.546 391.601 436.105 377.404 441.688 355.073C441.847 354.594 442.007 353.956 442.166 353.318C442.326 352.84 442.485 352.202 442.485 351.723C444.24 343.428 444.718 334.655 444.24 325.563L444.08 323.17L453.491 322.373L453.81 324.766C453.97 325.882 455.087 336.729 455.246 350.447V353.797C455.246 368.791 454.13 381.233 452.056 390.963C460.829 380.914 471.676 365.441 477.259 346.778C477.418 346.14 477.578 345.662 477.737 345.024C477.897 344.545 478.056 344.066 478.216 343.428V343.269C480.768 333.858 481.565 324.287 480.608 315.195Z" fill="#5B418B"/>
<path d="M330.986 204.175C324.287 197.954 315.035 193.487 303.391 191.733C302.753 191.573 302.274 191.573 301.636 191.414C301.158 191.414 300.52 191.254 300.041 191.254C297.648 190.935 295.096 190.935 292.385 190.935C290.47 190.935 288.397 190.935 286.483 191.095C266.065 192.53 247.402 200.346 236.077 212.15C235.279 212.948 234.641 213.745 234.003 214.543C227.463 222.359 224.433 230.973 225.23 239.746C228.101 269.096 276.274 268.617 296.851 267.022C320.937 265.427 334.496 261.28 340.876 253.783C342.152 252.347 342.95 250.752 343.747 248.998C343.907 248.519 344.226 248.04 344.385 247.562C344.545 247.083 344.704 246.605 344.864 245.967C345.821 242.458 345.981 238.31 345.502 233.365C344.385 222.678 339.6 212.15 330.986 204.175Z" fill="#5B418B"/>
<path d="M382.03 68.9091C378.999 68.4305 375.969 68.1115 372.938 68.1115C361.453 68.1115 350.128 71.9398 339.441 79.4368C336.729 81.351 334.177 83.5841 331.624 85.8173L331.465 85.9768L331.305 86.1363C315.992 100.652 305.305 122.026 301.477 146.591C300.839 150.739 300.52 154.886 300.201 159.033C299.722 159.033 299.084 158.874 298.606 158.874C298.127 158.874 297.489 158.714 297.01 158.714C276.114 156.959 255.697 158.076 236.715 163.34C236.237 163.499 235.598 163.659 235.12 163.818C234.641 163.978 234.003 164.137 233.525 164.297C237.991 103.523 207.205 46.5774 157.278 28.2336C157.119 28.2336 156.959 28.0741 156.8 28.0741C156.64 28.0741 156.64 28.0741 156.481 27.9146C155.045 27.436 153.61 26.9575 152.174 26.479C143.082 23.6078 133.671 22.3317 124.1 22.3317C106.873 22.3317 89.6454 26.9575 73.8538 35.8902C43.5466 53.1174 20.8959 84.7007 11.6442 122.664C4.94474 150.419 5.90181 178.334 13.2393 203.218C13.2393 203.377 13.2393 203.537 13.3989 203.537C13.3989 203.696 13.3989 203.856 13.5584 204.015C25.2027 242.777 51.8412 274.201 87.8908 286.004C94.9093 285.047 101.13 284.409 106.075 283.931H106.394C108.787 283.612 110.86 283.452 112.296 283.293C114.37 282.974 116.124 282.974 118.198 282.974C129.364 283.293 139.573 284.09 148.984 285.366C155.364 283.293 161.426 280.421 167.487 277.072C190.297 264.151 208.801 242.936 220.445 216.936C221.083 216.617 221.881 216.457 222.519 216.138C222.678 216.138 222.838 215.979 223.157 215.979C220.604 220.286 218.85 224.592 217.893 229.218C217.095 232.887 216.936 236.715 217.255 240.544C219.488 263.194 242.617 275.636 281.378 275.636C286.483 275.636 291.747 275.477 297.329 274.998C324.127 273.084 338.803 268.299 346.778 258.887C348.692 256.654 350.128 254.102 351.244 251.39C351.404 250.912 351.563 250.433 351.723 249.955C351.882 249.476 352.042 248.998 352.201 248.36C352.999 248.519 353.797 248.679 354.594 248.838C369.11 251.39 383.785 247.881 397.184 238.31C397.662 237.991 398.141 237.513 398.779 237.194L398.938 237.034L399.098 236.875C417.761 222.678 430.841 198.752 435.148 171.156C442.804 121.548 419.037 75.6085 382.03 68.9091ZM344.704 245.967C344.545 246.445 344.385 247.084 344.226 247.562C344.066 248.041 343.907 248.519 343.588 248.998C342.79 250.752 341.833 252.347 340.717 253.783C334.336 261.28 320.778 265.427 296.691 267.022C276.114 268.618 227.942 269.096 225.071 239.746C224.273 231.132 227.304 222.359 233.844 214.543C234.482 213.746 235.279 212.948 235.918 212.15C247.243 200.347 265.906 192.531 286.323 191.095C288.397 190.935 290.311 190.935 292.225 190.935C294.937 190.935 297.329 191.095 299.882 191.254C300.36 191.254 300.998 191.414 301.477 191.414C302.115 191.414 302.593 191.573 303.231 191.733C314.876 193.488 323.968 197.954 330.827 204.175C339.441 211.991 344.226 222.519 345.342 233.366C345.821 238.31 345.662 242.458 344.704 245.967ZM213.107 185.034C209.598 210.236 203.058 233.206 165.254 261.599C152.812 268.458 138.934 271.329 125.057 269.256C83.903 263.035 56.467 215.181 64.1235 162.542C71.4611 112.296 107.83 75.6085 146.91 78.0012C190.297 83.9032 219.647 139.573 213.107 185.034ZM423.184 175.941C421.11 191.414 417.601 205.291 395.908 222.838L395.748 222.997L395.589 223.157C395.429 223.316 395.27 223.476 394.951 223.635C387.454 227.783 379.478 229.856 371.183 228.421C362.41 226.985 354.754 222.359 348.852 215.341C346.778 210.874 344.226 206.568 340.876 202.739C335.453 191.254 333.22 176.898 335.293 162.064C337.686 143.88 345.981 128.726 356.987 119.315L357.146 119.155L357.306 118.996C365.281 112.296 374.693 108.787 384.423 109.265C409.785 112.775 427.331 147.708 423.184 175.941Z" fill="white"/>
<path d="M139.254 107.192C126.014 113.732 147.548 127.928 158.395 149.622C169.082 171.316 165.094 192.212 178.334 185.672C191.573 179.132 193.647 156.162 182.8 134.468C171.953 112.775 152.493 100.652 139.254 107.192Z" fill="white"/>
<path d="M376.128 126.652C367.834 130.959 381.073 138.616 387.454 150.898C393.834 163.34 391.122 175.782 399.417 171.475C407.711 167.168 409.307 153.61 402.926 141.168C396.546 128.885 384.582 122.345 376.128 126.652Z" fill="white"/>
</svg>
