<svg width="512" height="416" viewBox="0 0 512 416" fill="none" xmlns="http://www.w3.org/2000/svg">
<path d="M256.949 379.958C386.467 379.958 491.462 355.41 491.462 325.128C491.462 294.846 386.467 270.298 256.949 270.298C127.431 270.298 22.436 294.846 22.436 325.128C22.436 355.41 127.431 379.958 256.949 379.958Z" fill="#000611"/>
<path d="M88.0637 337.635C88.0637 337.635 85.5135 71.2166 206.921 26.6418L243.302 0L236.438 18.8826L270.948 4.61212L265.305 20.9987C265.305 20.9987 309.364 22.5451 353.424 82.4756C353.424 82.4756 371.872 112.699 378.004 133.697C378.004 133.697 404.672 153.258 415.904 190.047C415.904 190.047 437.934 228.463 379.007 247.942C372.442 251.903 410.885 367.803 439.779 358.796C444.391 368.536 190.263 427.571 88.7148 365.904" fill="#8461C9"/>
<path d="M88.0637 337.635C88.0637 337.635 85.5135 71.2166 206.921 26.6418L243.302 0L211.017 31.2811C129.518 55.5897 134.158 295.393 134.158 370.001C134.158 386.035 107.055 377.733 88.7961 365.931" fill="#040404" fill-opacity="0.32"/>
<path d="M441.462 213.433C441.462 228.463 429.308 236.629 412.514 236.629C395.721 236.629 385.14 229.548 385.14 214.518C385.14 199.488 398.759 187.307 415.526 187.307C432.292 187.307 441.462 198.403 441.462 213.433Z" fill="#002D87"/>
<path d="M383.539 274.395C383.919 276.212 384.841 278.247 385.275 280.011C447.132 289.832 485.467 306.381 485.467 325.454C485.467 355.731 382.861 380.284 256.298 380.284C129.736 380.284 27.1301 355.731 27.1301 325.454C27.1301 309.908 46.7181 297.672 90.1534 287.689C90.2891 285.817 90.479 283.429 90.6417 281.449C31.2539 293.956 0 311.834 0 333.566C0 371.277 114.625 401.825 256 401.825C397.375 401.825 512 371.249 512 333.566C512.027 308.145 460.941 286.115 383.539 274.395Z" fill="#5BE800"/>
<path d="M237.741 143.301C197.751 128.461 135.542 93.9244 134.239 89.2581C132.937 84.5917 147.452 67.771 149.677 67.771C151.901 67.771 196.232 108.792 230.47 116.144L237.741 143.301Z" fill="black"/>
<path d="M357.602 99.7577C336.196 98.374 314.791 100.382 296.776 108.548V130.035C317.015 122.221 338.692 119.237 361.834 121.028L357.602 99.7577Z" fill="black"/>
<path d="M264.003 157.925C282.672 157.925 297.807 141.405 297.807 121.028C297.807 100.65 282.672 84.1306 264.003 84.1306C245.333 84.1306 230.199 100.65 230.199 121.028C230.199 141.405 245.333 157.925 264.003 157.925Z" fill="black" stroke="black" stroke-width="0.4161" stroke-miterlimit="10"/>
<path d="M267.205 151.169C281.005 151.169 292.192 138.974 292.192 123.931C292.192 108.887 281.005 96.6921 267.205 96.6921C253.405 96.6921 242.218 108.887 242.218 123.931C242.218 138.974 253.405 151.169 267.205 151.169Z" fill="#4D91FF"/>
<path d="M383.566 133.074C397.95 133.074 409.611 119.348 409.611 102.417C409.611 85.4852 397.95 71.7595 383.566 71.7595C369.182 71.7595 357.521 85.4852 357.521 102.417C357.521 119.348 369.182 133.074 383.566 133.074Z" fill="black" stroke="black" stroke-width="0.3328" stroke-miterlimit="10"/>
<path d="M386.034 126.291C396.118 126.291 404.293 116.683 404.293 104.831C404.293 92.9788 396.118 83.3708 386.034 83.3708C375.95 83.3708 367.776 92.9788 367.776 104.831C367.776 116.683 375.95 126.291 386.034 126.291Z" fill="#4D91FF"/>
<path d="M260.241 92.5577L248.997 95.8616L266.87 156.691L278.114 153.387L260.241 92.5577Z" fill="white"/>
<path d="M269.499 89.7253L263.903 91.3696L281.776 152.199L287.372 150.554L269.499 89.7253Z" fill="white"/>
<path d="M379.242 77.1314L371.196 79.2844L386.822 137.675L394.867 135.522L379.242 77.1314Z" fill="white"/>
<path d="M382.752 76.0459L387.554 75.1506L403.181 133.562L398.379 134.457" fill="white"/>
<path d="M351.877 283.537C346.37 282.913 342.165 284.704 337.01 285.518C336.766 278.518 334.84 270.162 331.042 262.891L342.246 261.453C347.292 269.782 350.412 277.27 351.877 283.537Z" fill="white"/>
<path d="M335.518 286.305C330.227 284.677 324.991 283.755 319.755 283.619L317.639 261.481L328.925 262.132C332.344 271.22 335.219 279.848 335.518 286.305Z" fill="white"/>
<path d="M195.309 224.665C194.685 221.274 194.685 217.719 195.255 214.111C195.553 212.321 196.096 210.557 196.747 208.821C197.48 207.112 198.321 205.457 199.352 203.883C201.359 200.79 203.53 197.453 206.84 195.744C210.095 194.035 213.649 192.977 217.583 193.302L217.909 193.981C215.82 197.345 213.486 199.624 211.262 201.821C209.119 204.073 206.27 205.348 204.099 207.573C201.983 209.77 200.193 212.293 198.863 215.196C197.453 218.072 196.666 221.301 196.096 224.638L195.309 224.665Z" fill="#002A7F"/>
<path d="M319.783 283.619L317.667 261.481L328.953 262.132C329.469 263.434 331.965 270.407 331.91 270.461C331.91 270.461 320.841 268.29 320.217 270.407C318.806 275.154 321.221 283.7 321.221 283.7C321.221 283.7 320.434 283.646 319.783 283.619Z" fill="#BFBFBF"/>
<path d="M337.038 285.545C336.794 278.545 334.976 271.383 331.178 264.139L343.332 263.271C344.58 265.333 346.343 268.833 346.343 268.833C342.437 269.185 336.902 267.965 335.383 270.108L339.344 285.111C339.344 285.084 337.716 285.409 337.038 285.545Z" fill="#AFAFAF"/>
<path d="M200.329 79.4914C201.74 75.4761 204.019 71.705 207.003 68.5579C209.933 65.3294 213.487 62.7249 217.313 60.663C225.018 56.6478 233.754 54.9114 242.191 55.861L242.218 56.1594C234.052 57.2446 225.967 59.4151 218.696 63.3218C211.398 67.0929 205.05 72.736 200.546 79.6541L200.329 79.4914Z" fill="black"/>
<path d="M365.769 42.4863C370.327 41.5639 374.939 40.8585 379.632 40.8856C384.326 40.8585 389.073 41.4825 393.631 42.7305C398.189 44.0327 402.557 45.9861 406.518 48.5634C410.479 51.1408 413.952 54.3422 416.991 57.8691C413.165 55.2103 409.34 52.7415 405.352 50.5982C401.309 48.5363 397.158 46.8271 392.817 45.6334C388.504 44.3854 384.055 43.6529 379.524 43.2188C375.02 42.7847 370.408 42.7033 365.769 42.4863Z" fill="black"/>
<path d="M282.696 379.958C282.696 379.958 288.339 406.654 286.548 415.634C286.548 415.634 311.4 404.863 309.853 378.737C309.853 378.737 311.399 411.049 301.388 415.634C301.388 415.634 331.883 406.165 329.577 378.737C329.577 378.737 333.429 405.921 324.205 413.056C314.981 420.192 353.397 399.736 349.816 374.125C349.816 374.125 355.378 342.084 297.129 350.603C296.18 350.739 295.257 350.956 294.335 351.227C286.63 353.506 250.14 365.009 245.799 379.958H282.696V379.958Z" fill="#001942"/>
<path d="M415.119 365.579C415.119 365.579 419.975 388.504 418.7 396.778C418.7 396.778 436.606 386.849 435.493 362.703C435.493 362.703 436.606 392.546 429.389 396.778C429.389 396.778 451.364 388.015 449.71 362.703C449.71 362.703 452.477 387.825 445.83 394.391C439.183 400.956 466.883 382.101 464.278 358.444C464.278 358.444 464.631 334.216 430.149 337.201C427.191 337.445 424.017 338.611 421.467 340.104C412.84 345.123 392.112 358.335 389.345 370.516C397.945 369.296 406.545 367.532 415.119 365.579Z" fill="#001942"/>
<path d="M236.466 18.9099L270.976 4.6123L251.795 17.6619L236.466 19.3982" fill="#003091"/>
<path d="M231.121 223.227C241.458 231.448 252.446 238.773 264.41 244.009C270.27 246.83 276.429 248.947 282.614 250.873C288.827 252.636 295.149 254.047 301.524 254.915C307.9 255.702 314.329 256.163 320.732 255.892C327.135 255.838 333.483 255.403 339.913 254.997C352.8 254.101 365.633 252.094 378.926 250.303C379.171 250.276 379.415 250.439 379.442 250.683C379.469 250.873 379.361 251.063 379.198 251.144C367.369 257.628 354.346 261.725 340.944 263.895C327.433 266.174 313.543 264.709 300.276 262.023C293.629 260.64 287.091 258.741 280.742 256.434C274.448 253.993 268.208 251.361 262.348 248.024C259.364 246.478 256.597 244.551 253.721 242.842C250.981 240.889 248.159 239.125 245.555 237.009C240.156 233.048 235.272 228.49 230.497 223.878C230.308 223.715 230.308 223.417 230.497 223.227C230.66 223.091 230.931 223.064 231.121 223.227Z" fill="#003384"/>
</svg>
