<svg width="512" height="288" viewBox="0 0 512 288" fill="none" xmlns="http://www.w3.org/2000/svg">
<path d="M104.469 227.723L104.949 227.843L107.468 223.404C112.508 214.645 124.026 207.686 141.903 203.007L143.463 202.647L142.023 201.927C124.626 193.529 111.668 178.771 104.349 159.334L103.629 157.294L103.269 159.454C98.4698 185.85 97.03 209.966 96.79 225.563V226.043L97.27 226.163C99.5496 226.643 101.949 227.243 104.469 227.723Z" fill="#5B418B"/>
<path d="M105.547 147.336V147.456L106.147 149.976V149.856C112.986 174.812 128.943 192.929 151.259 200.727H151.379H151.499C165.177 197.968 178.735 196.768 186.894 196.168C188.453 196.048 189.773 195.928 190.973 195.808H191.093H191.333C196.852 195.928 202.251 196.288 207.41 196.768H207.65L207.77 196.648C221.808 188.369 233.686 173.852 241.365 155.735L241.485 155.675L241.605 155.255L242.205 155.015C243.853 154.685 247.489 151.739 249.055 151.112C242.096 169.349 229.367 186.69 215.809 196.648L214.609 197.488L216.049 197.728C237.525 201.087 252.283 208.406 259.842 219.444C265.361 227.483 265.841 235.642 265.241 241.041L265.121 241.761H265.841C293.676 241.641 321.272 240.081 347.907 237.202H348.387L349.227 233.362C351.867 221.124 363.025 208.406 383.542 194.608L383.902 194.368V194.009C383.662 192.209 383.422 190.289 383.182 188.489L383.062 187.77L382.342 188.01C376.343 190.529 370.104 191.729 363.865 191.729C361.465 191.729 359.066 191.609 356.666 191.129C350.667 190.169 344.908 188.13 339.629 184.89C339.989 184.65 340.469 184.29 340.829 184.05C340.949 183.93 341.069 183.81 341.189 183.69C341.309 183.57 341.309 183.57 341.428 183.45L342.148 182.85C342.628 182.37 343.108 182.01 343.468 181.531C347.907 183.93 352.587 185.61 357.506 186.33C359.786 186.69 361.945 186.81 364.225 186.81C369.984 186.81 375.743 185.61 381.262 183.33L381.982 182.97C400.579 174.812 413.537 154.775 418.456 126.46C425.055 80.507 402.259 52.1915 376.343 48.1122C360.745 45.5926 345.388 51.7116 333.99 64.6695L333.75 64.9095C333.63 65.0295 333.63 65.0295 333.51 65.1495L333.15 65.5094C324.391 75.9477 318.392 90.1054 315.393 107.623C315.153 109.542 314.913 111.582 314.673 113.742C313.953 113.622 313.113 113.382 312.393 113.262L311.673 113.142C311.193 113.022 310.713 112.902 310.234 112.782H309.994C310.234 110.622 310.474 108.702 310.714 106.903C313.953 88.0657 320.672 72.8282 330.63 61.55L330.99 61.1901L330.63 60.8301C309.754 36.5941 295.476 29.3952 291.877 27.8355L308.074 11.0382L261.281 18.837L279.639 0L225.767 18.597C216.649 19.0769 207.65 20.6367 199.252 23.0363L197.212 23.6362L199.252 24.2361C242.325 36.834 256.482 78.3473 255.402 113.022C253.677 113.046 252.059 113.612 250.603 114.341C252.043 80.507 238.965 40.5534 197.692 28.5554C195.532 27.9555 193.253 27.3556 190.853 26.9956L188.813 26.6357H188.693C184.374 25.9158 180.295 25.5559 176.575 25.5559C138.541 25.5559 115.745 57.8306 107.107 87.9458C101.587 107.863 100.988 128.859 105.547 147.336ZM212.209 68.8689C226.367 74.7479 236.685 89.6255 240.405 109.902C245.324 135.938 238.245 162.934 223.008 177.571L212.209 68.8689ZM142.141 121.9C146.7 89.5055 169.736 65.1495 195.052 65.1495C195.652 65.1495 196.252 65.1495 196.852 65.1495L209.09 188.489C193.972 196.408 178.375 195.688 165.297 186.33C147.42 173.372 138.062 147.576 142.141 121.9ZM389.421 78.8272C399.739 83.3865 407.178 94.6646 410.057 109.782C413.897 130.059 408.618 151.895 397.219 163.533L389.421 78.8272ZM350.907 88.3057L351.147 87.9458C358.826 79.6671 368.184 75.2278 377.663 75.7077L386.661 172.292C384.741 173.372 382.702 174.212 380.542 174.932L380.182 175.052C368.784 178.651 357.866 175.532 349.227 166.533C349.107 165.213 348.987 164.013 348.747 162.934C348.267 152.975 344.188 144.697 336.629 138.578C335.789 132.459 335.789 126.34 336.749 120.341C338.309 107.983 343.348 96.5843 350.907 88.3057ZM333.87 178.171C333.15 178.651 332.55 179.011 331.83 179.371L331.47 179.491C315.633 188.01 284.678 187.89 267.88 179.371C263.681 177.211 258.762 173.612 258.882 168.453V168.213V167.973C258.402 161.374 260.802 155.375 265.961 150.216L266.081 150.096C267.64 148.536 269.44 147.096 271.36 145.896C279.878 140.257 291.517 137.018 303.275 137.018C305.314 137.018 307.354 137.138 309.394 137.378H309.514C310.474 137.498 311.553 137.618 312.513 137.738L312.993 137.858C313.713 137.978 314.553 138.098 315.273 138.338L315.633 138.458C319.352 139.297 322.712 140.497 325.591 141.937C326.191 142.177 326.671 142.537 327.271 142.897C332.67 146.136 339.389 152.375 339.749 163.653L339.869 164.493C340.949 168.933 339.869 172.652 336.509 175.892L336.149 176.251C335.789 176.611 335.429 176.971 334.95 177.211C334.71 177.331 334.47 177.571 334.23 177.691C334.11 177.811 333.87 177.931 333.75 178.051L333.87 178.171Z" fill="#5B418B"/>
<path d="M158.459 248.599L158.339 247.4C158.219 245.84 158.099 244.4 157.979 243.2V242.72H157.499C135.423 240.081 115.146 236.601 97.2689 232.402L96.549 232.282C63.7943 224.483 24.4407 210.925 21.3212 189.929C19.4015 177.331 31.2796 163.533 56.3555 149.135L55.8756 148.056C16.522 164.613 -2.19501 181.41 0.2046 198.088C2.12429 211.765 18.9216 224.843 48.6767 235.881C76.6322 246.2 114.666 254.358 158.459 259.278L159.179 259.398V258.678C158.819 255.318 158.699 252.079 158.459 248.599Z" fill="#5B418B"/>
<path d="M397.461 236.721L397.341 236.122L396.741 236.242C390.982 237.321 385.463 238.281 380.184 239.001C343.95 244.64 302.917 247.88 264.883 248H264.403V248.48C263.923 252.559 262.963 256.638 261.163 260.598V260.718C260.804 261.557 260.324 262.397 259.844 263.357L259.364 264.197H260.324C281.32 264.077 302.317 263.237 323.073 261.678C323.793 261.678 324.393 261.557 325.113 261.557L326.553 261.438C327.393 261.318 328.233 261.318 329.073 261.198L330.752 261.078C355.108 259.038 378.385 256.038 399.861 252.079L400.461 251.959L400.341 251.359C399.381 246.44 398.301 241.161 397.461 236.721Z" fill="#5B418B"/>
<path d="M511.924 195.688C510.724 181.77 493.327 167.732 460.452 154.055L459.972 155.135C477.849 165.573 488.048 175.531 490.567 184.89C491.767 189.449 491.167 194.008 488.648 198.208L488.528 198.567L488.648 198.927C492.247 205.166 493.807 210.925 492.847 214.885V215.005V215.125C493.087 217.164 493.207 219.204 493.207 221.364V222.444L494.167 221.844C506.645 213.565 512.764 204.687 511.924 195.688Z" fill="#5B418B"/>
<path d="M207.532 203.487L205.372 203.247H205.252C204.052 203.127 202.972 203.007 201.772 203.007H200.813C200.213 203.007 199.613 202.887 199.133 202.887H199.013C196.853 202.767 194.454 202.647 191.574 202.527L189.295 202.767C188.815 202.767 188.215 202.887 187.735 202.887C184.495 203.127 180.656 203.487 176.217 203.967H176.097C171.417 204.447 167.098 205.047 163.139 205.647H163.019L159.419 206.247H159.539C158.1 206.487 156.78 206.727 155.46 206.967H155.34L152.7 207.447H152.82C135.783 210.926 123.785 215.725 117.306 221.844L116.466 222.684L120.066 223.284C136.743 226.044 151.261 228.323 162.419 235.882H162.299L164.219 237.202L164.578 241.041C164.698 241.881 164.698 242.961 164.818 244.161V244.641C164.938 246.08 165.058 247.64 165.178 249.32V249.8C165.418 253.039 165.538 256.279 165.658 259.278V259.398C165.658 260.718 165.778 262.158 165.778 263.478C165.778 264.797 165.778 266.117 165.778 267.437C165.778 274.036 165.538 279.315 164.938 283.514L164.818 284.594L165.778 284.234C171.537 281.835 179.696 277.515 186.655 269.956L186.895 269.716C187.015 269.596 187.135 269.357 187.375 269.237L187.735 268.757C188.455 267.917 189.175 267.077 189.894 266.117L190.134 265.877L190.734 265.037C191.334 264.077 191.934 263.238 192.534 262.278L192.774 261.918C192.894 261.798 192.894 261.678 193.014 261.558L193.254 261.078C194.334 259.158 195.414 256.999 196.253 254.839L196.373 254.719C196.373 254.599 196.493 254.479 196.493 254.479L196.733 253.759C197.453 251.839 198.053 249.8 198.533 247.64L198.773 246.32C198.893 245.72 199.013 245.12 199.133 244.401L199.373 242.961C199.373 242.841 199.373 242.841 199.373 242.721L206.092 243.561C206.092 243.681 206.092 243.801 206.092 243.921L205.972 244.521C205.972 244.76 205.972 245.001 205.852 245.24C205.732 245.72 205.732 246.2 205.612 246.8L205.492 247.4C205.132 249.92 204.652 252.679 204.172 255.319C203.812 257.478 203.212 259.758 202.732 262.158L202.612 262.878C202.372 263.957 202.012 265.037 201.772 266.237C201.413 267.317 201.173 268.517 200.813 269.716L200.693 270.196C198.893 276.315 196.733 281.475 194.454 285.554L193.614 286.994L195.174 286.394C201.532 283.994 210.651 279.435 217.49 271.756L217.73 271.516C217.97 271.276 218.09 271.036 218.33 270.796L218.57 270.556C219.17 269.716 219.89 268.877 220.609 267.917L220.729 267.677L221.329 266.717C221.929 265.757 222.649 264.677 223.129 263.597L223.609 262.758C224.329 261.438 224.929 259.998 225.409 258.678L225.529 258.318C225.529 258.318 225.529 258.318 225.529 258.198L225.769 257.478C226.608 254.839 227.328 251.959 227.688 249.08L227.808 248.48C227.808 248.36 227.808 248.12 227.928 248C227.928 247.88 227.928 247.88 227.928 247.76L234.647 248.12C234.647 248.24 234.647 248.36 234.647 248.48C234.527 250.28 234.407 254.119 233.807 258.798V259.038C233.687 260.478 233.447 261.918 233.207 263.478C232.967 264.797 232.847 265.997 232.607 267.317C232.368 268.517 232.128 269.716 231.888 271.156C230.688 276.675 229.128 281.355 227.328 285.314L226.488 287.114L228.168 286.154C235.367 281.715 241.366 276.915 246.165 271.756L247.125 270.796C247.845 269.956 248.565 269.117 249.285 268.157L249.405 267.917C249.525 267.797 249.525 267.797 249.525 267.677L250.125 266.957C250.725 266.117 251.324 265.277 251.924 264.437L252.044 264.197L252.644 263.238C253.004 262.518 253.484 261.918 253.844 261.198C253.844 261.078 253.964 260.958 253.964 260.838L254.324 259.998C256.124 256.519 257.204 252.919 257.683 249.32L257.803 248.84L257.923 248.12C258.043 247.28 258.043 246.44 258.163 245.72V245.24L258.403 244.401C258.523 243.921 258.763 243.081 259.003 241.881L259.123 241.401C259.603 237.682 259.723 230.483 254.804 223.404C249.285 215.965 237.047 206.607 207.532 203.487Z" fill="#5B418B"/>
<path d="M486.008 214.165C486.008 213.805 485.888 209.246 484.329 205.407L484.209 205.167C484.209 205.047 484.209 205.047 484.089 204.927L483.729 204.207C483.369 203.367 482.889 202.527 482.289 201.687L482.049 201.327C481.929 201.207 481.809 200.967 481.689 200.847L481.569 200.727C481.089 200.008 480.729 199.408 480.249 198.808C480.129 198.688 480.129 198.568 480.009 198.448L479.529 197.848C478.09 195.928 476.41 194.009 474.49 192.209C465.252 183.45 444.855 170.852 411.501 185.25C410.181 186.09 408.621 186.93 407.061 187.89C400.942 191.489 392.784 196.288 384.625 202.047L383.785 202.647L383.545 202.887C370.227 212.366 361.949 220.884 357.989 228.923L357.509 230.003L358.709 229.763C361.349 229.283 363.868 228.683 366.268 228.203C371.907 227.003 377.666 225.803 384.025 225.323C385.945 225.204 387.864 225.084 389.544 225.084C392.784 225.084 396.143 225.324 399.622 225.683L402.022 225.923L402.502 228.203L402.622 228.923L403.342 232.042C403.462 232.882 403.702 233.722 403.942 234.682L404.062 235.042C404.062 235.162 404.062 235.162 404.062 235.282L404.182 235.882C404.902 239.241 405.861 244.28 406.821 249.92L407.061 250.999C407.181 251.959 407.421 252.919 407.541 253.999L407.661 254.599C407.781 255.679 408.021 256.758 408.141 257.838L408.261 258.438C409.461 266.237 410.061 272.836 410.301 277.995V279.195L411.261 278.355C416.66 273.676 424.098 265.517 428.778 253.279L429.138 252.199C429.498 251.239 429.858 250.279 430.098 249.32L430.217 248.96L430.577 248C430.817 247.04 431.057 246.2 431.297 245.24V245.12V245L431.537 244.04C432.617 239.361 433.097 234.202 433.217 228.923V228.443C433.217 228.083 433.217 227.843 433.217 227.483C433.217 226.883 433.217 226.403 433.217 225.803C433.217 225.324 433.217 224.844 433.097 224.364V223.764L436.456 223.524H437.296L439.816 223.404C439.816 224.124 439.936 224.844 439.936 225.563C439.936 225.683 439.936 225.923 439.936 226.043V226.883C440.056 230.483 440.176 235.642 440.056 241.761V242.241C440.056 243.321 440.056 244.4 439.936 245.48V245.96C439.936 247.16 439.816 248.48 439.816 249.8V249.92C439.216 259.758 438.136 268.037 436.336 274.396L435.857 276.195L437.296 274.995C444.255 269.476 453.254 259.758 457.333 245.12L457.453 244.88L457.693 243.801C457.933 242.961 458.053 242.121 458.293 241.161L458.413 240.801C458.413 240.561 458.533 240.321 458.533 239.961V239.721C458.653 239.001 458.773 238.281 458.893 237.562V237.202C458.893 237.202 458.893 237.202 458.893 237.082L459.013 236.242C459.493 232.162 459.613 227.963 459.253 223.644L465.972 222.924C466.212 224.604 466.572 228.683 466.931 233.842V233.962C466.931 234.802 467.052 235.642 467.052 236.602V236.842V236.962V237.801C467.052 238.641 467.171 239.601 467.171 240.441C467.531 250.879 466.932 259.758 465.612 266.837L465.132 269.116L466.572 267.317C472.931 259.758 481.209 247.64 484.569 233.482L484.689 233.242L484.929 232.042C485.049 231.203 485.289 230.363 485.409 229.643V229.403L485.528 228.203C485.648 227.603 485.768 226.883 485.768 226.283V225.923L485.888 224.844C486.248 221.124 486.008 214.645 486.008 214.165Z" fill="#5B418B"/>
<path d="M436.093 227.483H436.693H437.293H436.693L437.293 227.363V227.243H436.693H436.093C436.093 227.243 436.093 227.363 436.093 227.483Z" fill="#5B418B"/>
</svg>
