<svg width="513" height="431" viewBox="0 0 513 431" fill="none" xmlns="http://www.w3.org/2000/svg">
<path d="M257.839 379.936C387.35 379.936 492.339 355.391 492.339 325.114C492.339 294.836 387.35 270.291 257.839 270.291C128.328 270.291 23.3389 294.836 23.3389 325.114C23.3389 355.391 128.328 379.936 257.839 379.936Z" fill="#000611"/>
<path d="M88.9544 337.621C88.9544 337.621 86.3952 71.2042 207.808 26.6363L244.176 0L237.328 18.8868L271.84 4.61358L266.199 21.0135C266.199 21.0135 310.262 22.5453 354.326 82.4859C354.326 82.4859 372.762 112.708 378.926 133.722C378.926 133.722 405.598 153.294 416.843 190.076C416.843 190.076 438.866 228.499 379.953 247.962C373.393 251.909 411.815 367.807 440.722 358.814C445.336 368.546 191.228 427.586 89.6933 365.915" fill="#8461C9"/>
<path d="M88.9544 337.621C88.9544 337.621 86.3952 71.2042 207.808 26.6363L244.176 0L211.899 31.2679C130.405 55.5793 135.036 295.36 135.036 369.97C135.036 385.991 107.931 377.701 89.6933 365.915" fill="black" fill-opacity="0.15"/>
<path d="M442.326 213.414C442.326 228.445 430.161 236.627 413.383 236.627C396.605 236.627 386.008 229.544 386.008 214.532C386.008 199.52 399.614 187.319 416.393 187.319C433.189 187.301 442.326 198.384 442.326 213.414Z" fill="black"/>
<path d="M384.422 274.364C384.801 276.202 385.72 278.221 386.171 279.969C448.039 289.791 486.354 306.317 486.354 325.42C486.354 355.697 383.756 380.242 257.206 380.242C130.657 380.242 28.0587 355.697 28.0587 325.42C28.0587 309.885 47.6486 297.648 91.0632 287.664C91.2073 285.79 91.3874 283.411 91.5496 281.447C32.1676 293.954 0.899902 311.814 0.899902 333.566C0.899902 371.268 115.519 401.833 256.9 401.833C398.281 401.833 512.9 371.268 512.9 333.566C512.9 308.119 461.808 286.114 384.422 274.364Z" fill="#C0B2DC"/>
<path d="M185.84 160.79C147.904 151.96 93.1541 120.259 93.4785 113.411C93.8029 106.563 115.826 75.0064 118.24 74.1954C120.655 73.3844 153.563 121.683 188.039 120.872L185.84 160.79Z" fill="black"/>
<path d="M394.497 109.752C357.192 103.408 319.256 103.03 286.168 114.077L282.239 151.761C319.166 141.759 357.769 140.461 398.066 147.85L394.497 109.752Z" fill="black"/>
<path d="M294.661 136.218C298.382 100.462 274.828 68.71 242.051 65.2991C209.274 61.8883 179.686 88.1098 175.965 123.867C172.244 159.623 195.799 191.375 228.576 194.786C261.353 198.197 290.941 171.975 294.661 136.218Z" fill="black" stroke="black" stroke-width="1.1051" stroke-miterlimit="10"/>
<path d="M284.209 140.3C286.957 113.889 269.564 90.4361 245.36 87.9174C221.156 85.3986 199.307 104.768 196.558 131.179C193.81 157.591 211.203 181.044 235.407 183.563C259.611 186.081 281.46 166.712 284.209 140.3Z" fill="#C0B2DC"/>
<path d="M442.3 122.397C443.198 92.5523 424.628 67.7772 400.822 67.0603C377.016 66.3434 356.989 89.9561 356.09 119.801C355.191 149.645 373.761 174.42 397.568 175.137C421.374 175.854 441.401 152.241 442.3 122.397Z" fill="black" stroke="black" stroke-width="0.8563" stroke-miterlimit="10"/>
<path d="M433.299 126.455C433.929 105.544 420.923 88.1853 404.25 87.6832C387.577 87.1811 373.55 103.726 372.921 124.637C372.291 145.548 385.297 162.907 401.97 163.409C418.643 163.911 432.67 147.366 433.299 126.455Z" fill="#C0B2DC"/>
<path d="M250.336 87.5498L240.237 87.5498L260.435 178.437L268.85 171.705L250.336 87.5498Z" fill="white"/>
<path d="M403.498 87.5498H411.914L423.695 153.191L416.963 159.923" fill="white"/>
<path d="M356.288 284.367C349.385 283.574 344.087 285.826 337.617 286.854C337.311 278.059 334.896 267.552 330.102 258.451L344.195 256.631C350.521 267.066 354.432 276.473 356.288 284.367Z" fill="white"/>
<path d="M335.744 287.825C329.094 285.771 322.498 284.635 315.956 284.455L313.289 256.647L327.472 257.458C331.743 268.866 335.366 279.715 335.744 287.825Z" fill="white"/>
<path d="M315.956 284.455L313.289 256.647L327.472 257.458C328.139 259.08 331.257 267.875 331.203 267.911C331.203 267.911 317.308 265.19 316.533 267.839C314.767 273.804 317.795 284.527 317.795 284.527C317.795 284.527 316.785 284.473 315.956 284.455Z" fill="#BFBFBF"/>
<path d="M337.637 286.854C337.331 278.06 335.042 269.085 330.266 259.966L345.549 258.885C347.116 261.48 349.333 265.859 349.333 265.859C344.431 266.31 337.475 264.76 335.564 267.445L340.557 286.296C340.538 286.314 338.502 286.728 337.637 286.854Z" fill="#AFAFAF"/>
<path d="M192.147 66.8247C193.066 62.4634 195.282 58.5167 198.166 55.1466C199.572 53.3985 201.266 51.9387 202.96 50.4969C203.825 49.7941 204.744 49.1633 205.699 48.5686C206.636 47.9558 207.573 47.3611 208.565 46.8385C209.556 46.3339 210.565 45.8653 211.592 45.4508C212.62 45.0183 213.611 44.5678 214.674 44.2614C215.719 43.937 216.782 43.6306 217.846 43.3783C218.909 43.09 219.972 42.8737 221.072 42.7476C225.379 42.0988 229.758 42.0988 234.065 43.144L234.137 43.162C234.245 43.1981 234.318 43.3063 234.3 43.4324C234.282 43.5225 234.21 43.5766 234.12 43.5946C225.956 44.7119 217.882 46.8926 210.673 50.8033C203.392 54.5519 197.049 60.1566 192.525 67.059C192.453 67.1671 192.327 67.1851 192.219 67.1131C192.147 67.059 192.111 66.9689 192.129 66.8788L192.147 66.8247Z" fill="#003384"/>
<path d="M381.034 44.0452C385.503 42.1169 390.153 40.9455 395.019 40.6211C396.226 40.531 397.452 40.4228 398.677 40.5129C399.903 40.5489 401.128 40.567 402.354 40.6931C403.579 40.8013 404.804 40.9995 406.012 41.2518C407.219 41.4861 408.445 41.7204 409.634 42.0628C410.824 42.4413 412.013 42.7837 413.149 43.2703C414.284 43.7569 415.492 44.0993 416.555 44.73C418.753 45.8654 420.898 47.1089 422.844 48.5867C426.755 51.5603 430.089 55.2007 432.45 59.4719L432.486 59.526C432.54 59.6341 432.504 59.7602 432.396 59.8323C432.306 59.8864 432.216 59.8684 432.144 59.7963C428.701 56.7506 425.043 53.9572 421.06 51.6324C417.077 49.3616 412.806 47.5955 408.391 46.388C403.994 45.1085 399.434 44.4056 394.856 44.1533C390.261 43.883 385.665 44.1713 381.07 44.4777C380.944 44.4777 380.853 44.3876 380.835 44.2795C380.835 44.1894 380.89 44.0992 380.962 44.0632L381.034 44.0452Z" fill="#003384"/>
<path d="M404.049 365.771C404.049 365.771 410.825 396.354 409.059 407.654C409.059 407.654 433.478 394.101 431.964 361.193C431.964 361.193 433.478 401.887 423.656 407.654C423.656 407.654 453.609 395.723 451.356 361.193C451.356 361.193 455.141 395.435 446.076 404.428C437.011 413.403 474.784 387.649 471.252 355.39C471.252 355.39 471.721 322.338 424.702 326.429C420.683 326.772 416.339 328.34 412.861 330.376C401.111 337.224 372.817 355.607 369.05 372.223C380.783 370.511 392.352 368.42 404.049 365.771Z" fill="#7052AB"/>
<path d="M237.346 18.9051L271.858 4.61377L252.665 17.6616L237.346 19.3917" fill="#003091"/>
<path d="M248.232 379.72C248.232 379.72 255.603 417.89 252.827 430.613C252.827 430.613 288.475 415.907 286.925 378.656C286.925 378.656 288.331 424.72 273.985 430.974C273.985 430.974 317.634 418.214 315.021 379.125C315.021 379.125 319.833 417.944 306.515 427.874C293.214 437.804 348.433 409.618 343.946 373.052C343.946 373.052 352.632 327.564 269.498 338.269C268.164 338.45 266.812 338.72 265.515 339.08C254.504 342.126 202.511 357.174 195.951 378.35C209.485 379.792 228.228 379.918 248.232 379.72Z" fill="#7052AB"/>
<path d="M232.013 223.2C242.339 231.418 253.333 238.753 265.281 243.979C277.121 249.404 289.665 253.044 302.406 254.882C308.786 255.657 315.22 256.126 321.617 255.873C324.825 255.909 328.015 255.621 331.205 255.567C332.809 255.549 334.395 255.333 335.999 255.279C337.603 255.189 339.189 255.134 340.811 254.99C347.244 254.558 353.678 253.801 360.166 252.99L379.828 250.305C380.08 250.269 380.314 250.449 380.35 250.701C380.368 250.899 380.278 251.08 380.116 251.17C374.223 254.468 367.988 257.045 361.572 259.153C355.156 261.28 348.56 262.83 341.856 263.929C328.357 266.2 314.463 264.74 301.181 262.037C294.513 260.667 287.989 258.793 281.627 256.504C275.319 254.035 269.12 251.368 263.263 248.034L261.046 246.826L258.902 245.493L254.63 242.844C251.891 240.897 249.062 239.113 246.448 237.005C241.06 233.058 236.158 228.498 231.4 223.867C231.22 223.686 231.22 223.398 231.382 223.236C231.544 223.074 231.815 223.056 232.013 223.2Z" fill="black"/>
</svg>
