<svg width="92" height="51" viewBox="0 0 92 51" fill="none" xmlns="http://www.w3.org/2000/svg">
<path d="M18.5584 39.3801C19.6523 37.0791 23.3112 35.8721 27.2718 35.1554C23.4244 33.4202 20.5576 29.8368 19.1997 25.5367C17.9926 30.7798 17.5777 35.8343 17.4645 39.2669C17.804 39.3423 18.1435 39.4178 18.483 39.4932L18.5584 39.3801Z" fill="#5B418B"/>
<path d="M77.2513 24.4428C77.2136 24.556 77.1759 24.6314 77.1382 24.7446C84.2296 26.6306 87.9639 29.2333 87.9639 32.2132C87.9639 33.6843 86.8323 35.1177 84.7577 36.4002C85.1349 37.4941 85.1726 38.3616 85.1726 38.588C85.2481 39.116 85.2481 39.6818 85.2103 40.1722C89.5859 38.2108 92 35.9852 92 33.722C92 30.1386 86.6437 26.7438 77.2513 24.4428Z" fill="#5B418B"/>
<path d="M27.649 42.3977C27.1964 42.0959 26.706 41.8696 26.1779 41.681C22.9717 41.2661 20.0672 40.738 17.4645 40.0968C9.24149 38.173 4.14924 35.3817 4.14924 32.2132C4.14924 28.7807 6.2993 26.6306 11.3161 25.0086C11.2784 24.82 11.2407 24.6691 11.203 24.4805C3.84748 26.5552 0 29.7237 0 33.722C0 37.5695 6.90283 41.1152 17.5023 43.4162C18.0681 43.5293 18.5961 43.6425 19.1997 43.7556C21.9155 44.2837 24.82 44.7364 27.9131 45.1136C27.9131 44.7364 27.8754 44.3969 27.8376 44.0574C27.7245 43.4539 27.6868 42.8504 27.649 42.3977Z" fill="#5B418B"/>
<path d="M67.9721 41.4547C67.859 41.4547 67.7835 41.4547 67.6704 41.417C65.2185 41.7942 62.5781 42.096 59.7868 42.3223L59.3342 42.36V42.3223C55.4112 42.6618 51.2243 42.8127 46.811 42.8504C46.7733 43.0767 46.7355 43.2653 46.6978 43.3785C46.6601 44.3592 46.3961 45.3022 46.0189 46.132C53.3366 46.132 60.3526 45.6794 66.6896 44.7741C67.3309 44.6987 67.9344 44.5855 68.5379 44.5101C68.4248 43.8311 68.3116 43.2276 68.2362 42.6995C68.0853 42.2091 68.0098 41.7565 67.9721 41.4547Z" fill="#5B418B"/>
<path d="M36.0607 35.7966C35.4572 35.7589 34.8536 35.6835 34.2124 35.6835C34.0238 35.6835 33.7975 35.6835 33.6089 35.6458C33.3825 35.6458 33.1939 35.6458 32.9676 35.6835C32.779 35.7212 32.4773 35.7212 32.1755 35.7589C32.0623 35.7589 31.9492 35.7966 31.836 35.7966C31.2702 35.8721 30.5158 35.9475 29.686 36.0607C26.5174 36.5133 21.991 37.4186 20.2936 39.2669C20.4822 39.3046 20.6331 39.3046 20.8217 39.3423C23.4621 39.7573 25.8008 40.0968 27.6868 41.0775C27.9885 41.2284 28.2526 41.3792 28.5166 41.5678C28.5543 41.5678 28.5543 41.6056 28.5921 41.6056L28.8184 41.7564L28.8561 41.9828V42.0205C28.8561 42.1337 28.9693 43.0389 29.0447 44.2837C29.0447 44.5855 29.0824 44.8872 29.0824 45.2267C29.0824 45.3399 29.0824 45.4908 29.0824 45.6039C29.0824 45.7171 29.0824 45.868 29.0824 45.9811C29.1201 47.4145 29.1201 48.9988 28.9315 50.1681C30.1386 49.7155 32.3264 48.6216 33.7598 46.3961C33.8352 46.2829 33.9106 46.1697 33.9861 46.0566C34.0615 45.9434 34.137 45.8303 34.1747 45.6794C34.2501 45.5285 34.3633 45.3399 34.4387 45.1513C34.7028 44.51 34.9291 43.7934 35.0422 42.9635C35.0422 42.8503 35.08 42.7372 35.08 42.624L36.1739 42.7372C36.1739 42.8881 36.1361 43.0389 36.0984 43.1898C36.023 43.6802 35.9098 44.4346 35.7212 45.3399C35.6835 45.4908 35.6458 45.6416 35.6081 45.7548C35.5703 45.868 35.5703 46.0189 35.5326 46.132C35.4949 46.2452 35.4572 46.3583 35.4572 46.5092C35.08 47.9049 34.5896 49.4514 33.8729 50.583C35.5326 50.0172 37.7581 48.8856 39.0406 46.6978C39.116 46.5847 39.1915 46.4715 39.2669 46.3206C39.3424 46.2075 39.3801 46.0943 39.4178 45.9434C39.4555 45.9057 39.4555 45.8303 39.4932 45.7925C39.795 45.1136 39.9836 44.3214 40.0591 43.4539L41.1529 43.5293C41.1529 43.7934 41.1152 44.7364 40.9266 45.9434V45.9811C40.9266 46.0943 40.8889 46.2075 40.8889 46.3583C40.8889 46.4715 40.8512 46.5847 40.8135 46.7355C40.5871 48.018 40.2099 49.4891 39.6064 50.6585C41.0398 49.8286 42.8881 48.5084 44.0574 46.811C44.1329 46.6978 44.2083 46.5847 44.2837 46.4338C44.3215 46.3961 44.3592 46.3206 44.3969 46.2829C44.4346 46.2075 44.4723 46.132 44.5101 46.0566C44.9627 45.189 45.3022 44.246 45.3022 43.2276C45.3022 43.2276 45.3776 42.9635 45.3776 42.8503C45.4153 42.7372 45.4153 42.624 45.4531 42.4731C45.4531 42.36 45.4908 42.2468 45.4908 42.0959C45.5285 41.3793 45.4153 40.3231 44.6987 39.2669C43.3784 37.4186 40.3985 36.2116 36.0607 35.7966Z" fill="#5B418B"/>
<path d="M83.4375 38.7765C83.4375 38.7388 83.4375 38.0599 83.1734 37.1923C83.1357 37.0791 83.098 36.966 83.0603 36.8528C83.0226 36.7396 82.9848 36.6265 82.9094 36.5133C82.6454 35.8721 82.1927 35.1931 81.5137 34.5896C79.7786 32.9676 77.025 32.3264 73.3284 32.6281C72.5363 32.7036 71.6687 32.9676 70.8389 33.458C70.6126 33.6088 70.3108 33.7597 70.009 33.9106C69.6695 34.0992 69.2923 34.3255 68.8774 34.5519C66.237 36.0984 62.5404 38.4748 61.4088 41.002C61.9369 40.9266 62.4272 40.8134 62.9176 40.7003C64.1247 40.474 65.3317 40.2099 66.7274 40.2099C67.3309 40.2099 67.9344 40.2476 68.6511 40.3608L68.9529 40.3985H68.9906L69.066 40.7757C69.066 40.8134 69.1037 40.9266 69.1415 41.1152C69.2546 41.681 69.4809 42.8126 69.7073 44.1328C69.7073 44.246 69.745 44.3592 69.745 44.4723C69.7827 44.5855 69.7827 44.7364 69.8204 44.8495C70.0468 46.4338 70.2731 48.1689 70.2731 49.5268C71.3292 48.697 73.0644 46.9619 73.8942 44.0951C73.9319 43.9442 73.9697 43.8311 74.0074 43.6802C74.0451 43.567 74.0828 43.4161 74.0828 43.303C74.2714 42.36 74.3846 41.3415 74.3846 40.2099C74.3846 40.1722 74.3846 40.0967 74.3846 40.059C74.3846 40.0213 74.3846 39.9836 74.3846 39.9836H74.8372L75.4408 39.9459C75.4408 40.0213 75.4408 40.0968 75.4408 40.2099C75.4408 40.8134 75.4785 41.8319 75.4408 43.0012C75.4408 43.1144 75.4408 43.2653 75.4408 43.3784C75.4408 43.4916 75.4408 43.6425 75.4408 43.7934C75.3653 45.5662 75.139 47.6031 74.6109 49.1119C76.082 48.0557 78.0057 46.132 78.647 43.0012C78.6847 42.8503 78.7224 42.7372 78.7224 42.5863C78.7602 42.4731 78.7602 42.3223 78.7602 42.2091C78.8356 41.5301 78.8733 40.8134 78.7979 40.059L79.854 39.9459C79.8918 40.1722 79.9672 40.8889 80.0049 41.8319C80.0049 41.945 80.0049 42.0582 80.0049 42.2091C80.0049 42.3223 80.0049 42.4731 80.0049 42.5863C80.0426 44.246 80.0049 46.3961 79.5523 48.0935C80.9479 46.5847 82.6076 44.246 83.1734 41.4924C83.2112 41.3415 83.2112 41.1906 83.2489 41.0775C83.2866 40.9266 83.2866 40.8134 83.2866 40.6626C83.5129 40.059 83.5129 39.4555 83.4375 38.7765Z" fill="#5B418B"/>
<path d="M40.2476 16.861C41.6056 19.6146 41.3415 22.5191 39.6818 23.3489C37.9844 24.1788 38.5125 21.5383 37.1546 18.7848C35.7966 16.0312 33.043 14.2206 34.7405 13.3908C36.4379 12.5609 38.8897 14.1074 40.2476 16.861Z" fill="#5B418B" stroke="#5B418B" stroke-miterlimit="10"/>
<path d="M47.1882 18.8225C49.7909 18.0303 52.2427 17.9172 54.8454 18.4453C54.8832 18.2944 54.8832 18.1058 54.9209 17.9549C55.4112 14.8241 56.7315 12.0328 58.6929 10.0713C54.7323 5.69578 52.2427 4.79049 52.2427 4.79049L55.034 1.88602L46.6224 3.28167L49.8286 0L40.5871 3.20623C39.795 3.24395 39.0406 3.31939 38.2862 3.43255C43.7179 5.9221 47.1882 12.0705 47.1882 18.8225Z" fill="#5B418B"/>
<path d="M65.7843 8.56252C65.4071 8.48708 65.0676 8.44936 64.6904 8.44936C63.2948 8.44936 61.9368 8.90201 60.6544 9.84501C60.2017 10.1468 59.7868 10.524 59.4096 10.9389C57.6744 12.7118 56.4297 15.3145 56.0147 18.1435C55.9393 18.5961 55.9016 19.0111 55.8639 19.4637C55.8639 19.6523 55.6753 19.8032 55.4867 19.7655C55.4112 19.7655 55.3735 19.7655 55.2981 19.7278C55.2603 19.7278 55.1849 19.7278 55.1472 19.7278C55.1095 19.7278 55.0717 19.7278 55.034 19.7278C54.9963 19.7278 54.9586 19.7278 54.9209 19.69C52.205 19.0865 49.6777 19.2374 46.8864 20.1804C46.8487 20.1804 46.811 20.2181 46.811 20.2181C46.7733 20.2181 46.3206 20.369 46.132 20.4067C46.0566 20.4067 46.0188 20.369 46.0188 20.3313C46.5846 12.9004 42.6994 5.95981 36.4756 4.0738C36.3624 4.03608 36.2493 3.99836 36.1361 3.99836C35.1554 3.73431 34.1746 3.58344 33.1562 3.58344C31.157 3.58344 29.1201 4.11152 27.2718 5.16769C23.6884 7.20459 21.048 10.9389 19.9541 15.3899C19.3128 18.0681 19.2751 20.7839 19.7655 23.3112C20.8216 28.6675 24.2165 33.1562 29.007 34.665C29.1956 34.7405 29.4219 34.7782 29.6105 34.8536C30.4026 34.7405 31.1947 34.665 31.9491 34.5519C32.2886 34.5141 32.5527 34.4764 32.7413 34.4764C33.043 34.4387 33.3071 34.4387 33.5711 34.4387C34.401 34.4764 35.1931 34.5141 35.9852 34.5519C36.7396 34.2878 37.4563 33.9861 38.173 33.5711C40.6625 32.1755 42.6995 29.9123 44.0574 27.1964C44.3214 27.121 44.5477 27.0078 44.8118 26.9323C45.0381 26.8569 45.3022 26.7815 45.5285 26.706C44.0574 30.1009 41.681 32.8545 38.7011 34.5519C38.5125 34.665 38.3616 34.7405 38.173 34.8159C41.9073 35.4194 44.4723 36.7396 45.8302 38.6634C46.6978 39.9459 46.8864 41.2284 46.811 42.1714C51.1865 42.1337 55.4489 41.9451 59.4096 41.6056C60.2394 38.0221 65.1054 35.0045 68.4625 33.0431C68.3116 32.1755 68.1607 31.3079 67.9721 30.4403C66.5387 31.4211 64.9922 31.9114 63.4457 31.9114C63.1062 31.9114 62.7667 31.8737 62.4272 31.836C62.5404 31.6851 62.6535 31.4965 62.729 31.3079C62.8044 31.1193 62.8798 30.9684 62.9553 30.7421C64.5018 30.8553 66.0484 30.4026 67.4817 29.3842C67.5572 29.3465 67.6326 29.271 67.7081 29.2333C69.9713 27.4982 71.631 24.4805 72.1591 21.1234C73.1775 15.0127 70.273 9.39237 65.7843 8.56252ZM43.4916 22.4436C43.0767 25.4235 42.3222 28.1017 37.8335 31.4588C36.3624 32.2886 34.7404 32.5904 33.0808 32.3641C28.2148 31.6474 24.9709 26.0271 25.8762 19.8032C26.7437 13.8811 31.0439 9.58097 35.6457 9.84501C40.8134 10.524 44.2837 17.0873 43.4916 22.4436ZM61.5596 30.4403C61.4842 30.6289 61.4088 30.7798 61.2956 30.9307C61.2579 30.9684 61.2202 31.0439 61.1824 31.0816C61.107 31.1948 60.9938 31.2702 60.8807 31.3833C60.0131 32.1 58.4288 32.515 55.7507 32.7036C53.7892 32.8544 47.2636 33.0808 46.9241 29.4596C46.811 28.4412 47.1882 27.385 47.9803 26.442C48.1312 26.2911 48.2821 26.1025 48.4329 25.9516C49.8663 24.5937 52.0541 23.7261 54.4682 23.5375C54.6568 23.5375 54.8454 23.5375 54.9963 23.4998C55.0717 23.4998 55.1095 23.4998 55.1849 23.4998C55.2981 23.4998 55.4489 23.4998 55.5621 23.4998C55.7507 23.4998 55.977 23.5375 56.1656 23.5375C57.0332 23.613 57.7876 23.8393 58.4288 24.141C59.1455 24.4805 59.7491 24.8954 60.2394 25.4235C60.6166 25.8385 60.9184 26.2911 61.1447 26.7437C61.4465 27.3473 61.5974 27.9885 61.6728 28.6298C61.786 29.4219 61.7482 29.9877 61.5596 30.4403ZM70.5748 21.7647C70.3108 23.6507 69.8958 25.3858 67.3686 27.4982C67.2554 27.6113 67.1045 27.7245 66.9914 27.7999C66.0484 28.328 65.0299 28.592 63.9737 28.4034C63.7097 28.3657 63.4457 28.2903 63.1816 28.1771C62.8799 26.1402 61.6351 24.141 59.4473 22.9717C59.2964 22.0287 59.2587 21.0102 59.4096 19.9541C59.7113 17.6154 60.8052 15.654 62.2386 14.4846C63.2571 13.6548 64.4264 13.2021 65.6334 13.2776C68.8774 13.7679 71.1029 18.1812 70.5748 21.7647Z" fill="#5B418B"/>
<path d="M68.1984 17.6909C69.0283 19.2751 68.802 20.9725 67.7458 21.5383C66.6896 22.1041 67.0291 20.5199 66.237 18.9356C65.4071 17.3514 63.7474 16.4084 64.8036 15.8426C65.8598 15.3145 67.3686 16.1443 68.1984 17.6909Z" fill="#5B418B" stroke="#5B418B" stroke-miterlimit="10"/>
</svg>
