<svg width="227" height="53" viewBox="0 0 227 53" fill="none" xmlns="http://www.w3.org/2000/svg">
<path d="M117.227 36.1749H109.34C109.355 37.1106 109.536 37.9237 109.898 38.6447C110.26 39.3504 110.743 39.8873 111.331 40.2555C111.919 40.6236 112.582 40.7924 113.306 40.7924C113.789 40.7924 114.226 40.731 114.633 40.6236C115.041 40.5162 115.418 40.3322 115.795 40.0867C116.172 39.8413 116.519 39.5805 116.835 39.3043C117.152 39.0282 117.559 38.6447 118.057 38.1691C118.268 37.9851 118.554 37.893 118.947 37.893C119.354 37.893 119.701 38.0157 119.957 38.2458C120.213 38.476 120.334 38.7981 120.334 39.2276C120.334 39.5958 120.198 40.0253 119.912 40.5316C119.625 41.0225 119.188 41.498 118.615 41.9583C118.042 42.4185 117.318 42.7866 116.443 43.0935C115.568 43.4003 114.573 43.5383 113.442 43.5383C110.848 43.5383 108.842 42.7866 107.395 41.2833C105.962 39.7799 105.238 37.7396 105.238 35.1624C105.238 33.9505 105.419 32.8306 105.766 31.7875C106.113 30.7443 106.641 29.8546 107.319 29.1182C107.998 28.3819 108.842 27.8143 109.838 27.4154C110.833 27.0166 111.934 26.8171 113.156 26.8171C114.724 26.8171 116.081 27.1546 117.212 27.8296C118.343 28.5046 119.188 29.379 119.746 30.4528C120.304 31.5267 120.59 32.6159 120.59 33.7357C120.59 34.7635 120.304 35.4385 119.716 35.7453C119.097 36.0215 118.283 36.1749 117.227 36.1749ZM109.34 33.8431H116.654C116.549 32.4471 116.187 31.3886 115.538 30.6983C114.89 30.008 114.045 29.6551 112.99 29.6551C111.979 29.6551 111.165 30.008 110.516 30.7136C109.868 31.4193 109.476 32.4625 109.34 33.8431Z" fill="white"/>
<path d="M123.953 41.0227V23.2277C123.953 22.3993 124.134 21.7857 124.496 21.3715C124.858 20.9573 125.326 20.7272 125.944 20.7272C126.562 20.7272 127.045 20.9419 127.422 21.3561C127.799 21.7703 127.98 22.3993 127.98 23.2277V41.0227C127.98 41.8511 127.784 42.4801 127.407 42.8943C127.03 43.3085 126.532 43.5232 125.944 43.5232C125.356 43.5232 124.873 43.3085 124.496 42.8789C124.119 42.4494 123.953 41.8204 123.953 41.0227Z" fill="white"/>
<path d="M146.446 17.6638H139.666V39.9982C139.666 41.2823 139.377 42.2363 138.809 42.86C138.241 43.4837 137.492 43.7955 136.591 43.7955C135.671 43.7955 134.923 43.4837 134.336 42.8508C133.759 42.2179 133.471 41.2732 133.471 39.9982V17.6638H126.69C125.626 17.6638 124.842 17.4345 124.328 16.9575C123.814 16.4898 123.552 15.866 123.552 15.1047C123.552 14.3068 123.823 13.683 124.355 13.2153C124.896 12.7566 125.671 12.5273 126.69 12.5273H146.455C147.528 12.5273 148.331 12.7658 148.854 13.2428C149.377 13.7197 149.638 14.3435 149.638 15.1047C149.638 15.8752 149.377 16.4898 148.845 16.9575C148.304 17.4345 147.51 17.6638 146.446 17.6638Z" fill="white"/>
<path d="M166.356 32.8891C166.356 34.5218 166.103 36.026 165.598 37.4019C165.093 38.7777 164.363 39.9609 163.398 40.9515C162.442 41.9421 161.297 42.6943 159.963 43.2262C158.628 43.7582 157.131 44.0151 155.472 44.0151C153.822 44.0151 152.334 43.7491 151.018 43.2171C149.701 42.6851 148.556 41.9146 147.591 40.924C146.627 39.9334 145.896 38.7502 145.391 37.3927C144.895 36.0352 144.643 34.5401 144.643 32.8891C144.643 31.2289 144.895 29.7155 145.4 28.3397C145.905 26.9638 146.636 25.7898 147.582 24.8084C148.529 23.8361 149.674 23.084 151.018 22.552C152.361 22.02 153.849 21.7632 155.472 21.7632C157.122 21.7632 158.619 22.0292 159.963 22.5612C161.306 23.0932 162.46 23.8545 163.416 24.8451C164.372 25.8357 165.102 27.0097 165.607 28.3764C166.103 29.743 166.356 31.2473 166.356 32.8891ZM160.882 32.8891C160.882 30.6603 160.395 28.9175 159.413 27.6793C158.439 26.441 157.122 25.8173 155.463 25.8173C154.399 25.8173 153.461 26.0925 152.641 26.652C151.829 27.2023 151.207 28.0278 150.765 29.1102C150.324 30.1925 150.107 31.4583 150.107 32.8983C150.107 34.3292 150.324 35.5766 150.756 36.6497C151.189 37.7229 151.811 38.5392 152.614 39.1079C153.416 39.6766 154.372 39.9609 155.463 39.9609C157.113 39.9609 158.43 39.3372 159.413 38.0898C160.395 36.824 160.882 35.0996 160.882 32.8891Z" fill="white"/>
<path d="M175.688 24.8359V25.4963C176.716 24.2305 177.78 23.295 178.88 22.6988C179.989 22.1026 181.234 21.809 182.64 21.809C184.318 21.809 185.859 22.2401 187.275 23.1115C188.691 23.9829 189.8 25.2486 190.62 26.918C191.441 28.5873 191.847 30.5685 191.847 32.8524C191.847 34.5401 191.612 36.0811 191.134 37.4936C190.656 38.9061 190.016 40.0893 189.187 41.0433C188.357 41.9972 187.383 42.731 186.256 43.2446C185.129 43.7582 183.921 44.0151 182.631 44.0151C181.071 44.0151 179.764 43.7032 178.709 43.0703C177.654 42.4466 176.644 41.5202 175.679 40.3003V48.5186C175.679 50.9218 174.805 52.1233 173.064 52.1233C172.036 52.1233 171.36 51.8115 171.027 51.1878C170.693 50.5641 170.531 49.6652 170.531 48.4728V24.8726C170.531 23.8269 170.756 23.0565 171.207 22.5337C171.658 22.0108 172.28 21.7632 173.064 21.7632C173.84 21.7632 174.462 22.0292 174.949 22.552C175.445 23.084 175.688 23.8453 175.688 24.8359ZM186.373 32.7882C186.373 31.3482 186.157 30.1099 185.715 29.0735C185.273 28.037 184.669 27.239 183.885 26.6887C183.109 26.1383 182.244 25.854 181.297 25.854C179.791 25.854 178.52 26.4502 177.492 27.6334C176.464 28.8166 175.941 30.5685 175.941 32.88C175.941 35.0538 176.455 36.7506 177.483 37.9614C178.511 39.1721 179.782 39.7775 181.297 39.7775C182.199 39.7775 183.037 39.5115 183.813 38.9887C184.588 38.4567 185.201 37.6679 185.67 36.6131C186.139 35.5674 186.373 34.2833 186.373 32.7882Z" fill="white"/>
<path d="M200.924 41.5019V27.7729C198.32 29.7377 196.568 30.712 195.659 30.712C195.228 30.712 194.844 30.5429 194.516 30.2047C194.179 29.8665 194.02 29.48 194.02 29.0371C194.02 28.5218 194.179 28.1514 194.516 27.9098C194.844 27.6682 195.425 27.3542 196.249 26.9758C197.486 26.404 198.479 25.8001 199.228 25.164C199.968 24.5279 200.633 23.8193 201.205 23.0382C201.776 22.2572 202.151 21.774 202.329 21.5888C202.507 21.4117 202.835 21.3151 203.313 21.3151C203.856 21.3151 204.287 21.5244 204.624 21.9351C204.952 22.3457 205.121 22.9175 205.121 23.6421V40.9141C205.121 42.9352 204.418 43.9417 203.013 43.9417C202.385 43.9417 201.889 43.7324 201.505 43.3217C201.111 42.911 200.924 42.2991 200.924 41.5019Z" fill="white"/>
<path d="M226.282 32.7008C226.282 34.3515 226.16 35.7768 225.926 36.9604C225.692 38.1522 225.261 39.2231 224.624 40.1974C223.828 41.3892 222.797 42.2991 221.523 42.9513C220.258 43.5955 218.844 43.9175 217.298 43.9175C215.518 43.9175 213.917 43.4827 212.502 42.6211C211.088 41.7515 210.02 40.5598 209.308 39.0218C208.942 38.1844 208.68 37.2584 208.511 36.2519C208.343 35.2373 208.259 34.1422 208.259 32.9666C208.259 31.4447 208.352 30.0758 208.54 28.8599C208.727 27.6441 209.017 26.5973 209.42 25.7196C210.113 24.2702 211.116 23.167 212.437 22.4021C213.757 21.6452 215.331 21.2587 217.158 21.2587C218.366 21.2587 219.462 21.4278 220.446 21.766C221.429 22.1041 222.301 22.5953 223.041 23.2476C223.781 23.8998 224.418 24.697 224.933 25.6552C225.832 27.3059 226.282 29.6571 226.282 32.7008ZM221.458 32.4029C221.458 30.559 221.326 29.0532 221.073 27.8776C220.811 26.702 220.38 25.8162 219.771 25.2203C219.162 24.6245 218.319 24.3185 217.233 24.3185C215.687 24.3185 214.61 24.9868 214.001 26.3316C213.392 27.6682 213.092 29.7376 213.092 32.5237C213.092 34.416 213.223 35.97 213.476 37.1779C213.729 38.3857 214.17 39.3036 214.778 39.9237C215.387 40.5437 216.212 40.8497 217.261 40.8497C218.338 40.8497 219.181 40.5276 219.799 39.8834C220.408 39.2392 220.839 38.3213 221.083 37.1215C221.336 35.9137 221.458 34.3435 221.458 32.4029Z" fill="white"/>
<path d="M66.3197 35.5272C65.1465 35.3399 64.0068 34.9183 62.954 34.2737C61.2478 35.4202 58.5891 35.9421 55.935 35.9421C53.3901 35.9421 50.8475 35.4625 49.1502 34.5949C47.0469 33.5199 46.6298 32.1593 46.6588 31.1936C46.5874 30.065 46.8551 28.9944 47.4238 28.0309C47.0179 28.1112 46.6142 28.1982 46.2127 28.2963C44.9838 31.6017 42.9608 34.5815 40.2531 36.551C44.2745 37.1844 47.0291 38.5516 48.4677 40.6437C49.5204 42.1738 49.6029 43.7239 49.4981 44.7231C54.7596 44.6941 59.9341 44.393 64.7383 43.8733L64.8721 43.2421C65.4699 40.4229 68.3939 37.9182 71.2934 35.9577C71.251 35.6187 71.2042 35.2752 71.1529 34.9317C70.0065 35.4045 68.8244 35.632 67.6757 35.632C67.2185 35.6343 66.7635 35.5964 66.3197 35.5272Z" fill="white"/>
<path d="M47.6357 21.0141C50.7784 20.2245 54.1462 20.3249 57.5297 21.0029C57.5654 20.6126 57.6078 20.2178 57.6658 19.8141L57.668 19.7985C58.3215 16.0448 59.6887 13.2568 61.4061 11.3141C56.9565 6.15749 54.0994 5.14266 54.0994 5.14266L56.9967 2.14948L48.2915 3.59477L51.6237 0.180054L42.0442 3.48771C40.2732 3.58585 38.6384 3.87134 37.1195 4.30403C44.7206 6.53219 47.8856 13.7586 47.6357 21.0141Z" fill="white"/>
<path d="M19.8987 41.3597C20.9916 39.4348 23.5677 38.255 26.3735 37.51C22.8941 35.8283 20.5856 32.9355 19.3121 29.5275C18.4244 34.3674 18.1612 38.8259 18.1032 41.7924C18.5537 41.8994 19.0088 42.0042 19.4771 42.1068L19.8987 41.3597Z" fill="white"/>
<path d="M35.1322 4.98654C34.3493 4.85271 33.591 4.77911 32.8661 4.77911C25.9363 4.77911 21.6941 10.6116 20.0615 16.3057C19.0444 19.8565 18.895 23.7597 19.7671 27.2659C21.7521 18.3064 26.0255 8.65775 35.1322 4.98654Z" fill="white"/>
<path d="M35.5515 36.1629L35.5961 36.1584L35.6407 36.1606C36.7001 36.1874 37.6949 36.2521 38.6383 36.348C41.7118 34.5369 43.8708 31.372 45.1265 28.0487L45.7957 21.5895C46.0343 21.5003 46.2752 21.4178 46.5161 21.3397C46.8685 14.4032 43.9578 7.43774 36.7693 5.35456C36.2095 5.1962 35.6652 5.08022 35.1322 4.98877C26.0233 8.65998 21.7521 18.3064 19.7671 27.2681C20.8622 31.6753 23.5743 35.4491 28.2113 37.0862C30.7294 36.5822 33.214 36.3658 34.8043 36.2298C35.0943 36.203 35.3463 36.1807 35.5515 36.1629ZM41.3951 33.1295L39.3521 12.5163C46.2417 15.1705 46.9978 28.0443 41.3951 33.1295ZM26.3422 22.5107C27.2433 16.1764 31.8156 11.5729 36.7425 11.8717H36.7447C36.747 11.8717 36.747 11.8717 36.7492 11.8717C36.9656 11.8851 37.1864 11.9052 37.4094 11.9409C38.0941 12.0413 38.7387 12.2375 39.3521 12.5141L41.3951 33.1273C40.6814 33.8678 39.8874 34.4834 39.0398 34.954V34.9585C31.6238 38.9152 24.9884 31.111 26.3422 22.5107Z" fill="white"/>
<path d="M70.3433 13.8546H70.3455H70.3478C70.5106 13.8635 70.6779 13.8791 70.8429 13.9081C71.3581 13.9862 71.8421 14.1378 72.3038 14.3542L73.8004 30.5267C73.2629 31.1088 72.6629 31.5928 72.025 31.9653V31.9698C71.5856 32.2084 71.1529 32.3891 70.7292 32.5229C70.8184 32.9645 70.9009 33.4084 70.9767 33.8478C73.9967 32.5229 76.6843 29.2197 77.6902 23.4385C78.9147 14.9631 74.726 9.75067 69.953 8.99011C67.2765 8.56411 64.348 9.49864 62.0998 12.1394C63.0611 13.3037 64.0871 14.6575 65.171 16.2255C66.6029 14.6464 68.4386 13.7386 70.3433 13.8546ZM73.8026 30.5267L72.306 14.3542C77.4984 16.4307 78.0091 26.5611 73.8026 30.5267Z" fill="white"/>
<path d="M60.8909 24.7255C61.0203 24.7835 61.1519 24.837 61.2745 24.9017C61.7251 25.1314 62.1243 25.4013 62.4901 25.6912C62.3273 24.5827 62.3184 23.4118 62.499 22.223C62.8336 19.8075 63.8239 17.7176 65.1733 16.2255C64.0915 14.6575 63.0633 13.3037 62.102 12.1394C60.5764 13.9326 59.3631 16.5087 58.7587 19.9792C58.6962 20.4074 58.6516 20.8268 58.6182 21.2394C59.3363 21.4089 60.0545 21.6007 60.7683 21.817L60.8909 24.7255Z" fill="white"/>
<path d="M64.8387 30.8679C64.89 31.8582 64.5555 32.7548 63.8462 33.5132C64.6848 33.9793 65.577 34.2893 66.4937 34.4365C67.9635 34.6707 69.5091 34.4901 70.979 33.8455C70.9031 33.4039 70.8184 32.9623 70.7314 32.5206C68.4296 33.2433 66.3487 32.4849 64.8387 30.8679Z" fill="white"/>
<path d="M73.8026 30.5267L72.306 14.3542C71.8443 14.1378 71.3603 13.9861 70.8451 13.9081C70.6778 13.8813 70.5106 13.8657 70.35 13.8546L72.0272 31.9653C72.6651 31.5928 73.2629 31.1088 73.8026 30.5267Z" fill="white"/>
<path d="M72.025 31.9653L70.3477 13.8546H70.3455H70.3433L72.0205 31.9675C72.0227 31.9675 72.025 31.9653 72.025 31.9653Z" fill="white"/>
<path d="M41.3951 33.1295L39.3521 12.5163C38.7387 12.2397 38.0941 12.0435 37.4094 11.9431C37.1886 11.9074 36.9656 11.8873 36.7492 11.874L39.0398 34.9562C39.8873 34.4856 40.6814 33.8678 41.3951 33.1295Z" fill="white"/>
<path d="M39.0398 34.9562L36.7514 11.874C36.7492 11.874 36.7492 11.874 36.747 11.874H36.7448L39.0354 34.9607C39.0354 34.9584 39.0376 34.9585 39.0398 34.9562Z" fill="white"/>
<path d="M46.2127 28.2941C46.6164 28.1959 47.0201 28.1067 47.4238 28.0286C47.9346 27.1655 48.6907 26.3893 49.6743 25.7403C51.8177 24.3262 54.7685 23.6906 57.4673 23.9002C57.4182 22.9835 57.4383 22.0155 57.5319 21.0029C54.1484 20.3227 50.7806 20.2245 47.6379 21.0141C47.571 22.9322 47.2699 24.8526 46.7458 26.6815C46.5874 27.2257 46.409 27.7655 46.2127 28.2941Z" fill="white"/>
<path d="M45.1266 28.0465C45.3362 27.4933 45.5236 26.9357 45.6819 26.3781C46.1481 24.7477 46.4313 23.0437 46.5183 21.3375C46.2774 21.4155 46.0365 21.4981 45.7979 21.5873L45.1266 28.0465Z" fill="white"/>
<path d="M46.2127 28.294C46.409 27.7632 46.5897 27.2257 46.7436 26.6814C47.2677 24.8503 47.5688 22.9299 47.6357 21.014C47.4484 21.0609 47.2633 21.1144 47.0781 21.1679C46.9755 23.6682 46.4536 26.1707 45.557 28.4658C45.7756 28.4078 45.9942 28.3475 46.2127 28.294Z" fill="white"/>
<path d="M45.6819 26.3782C45.5213 26.9358 45.3362 27.4911 45.1265 28.0465L45.0685 28.6019C45.2314 28.555 45.3942 28.5127 45.557 28.468C46.4536 26.173 46.9733 23.6705 47.0781 21.1702C46.8908 21.2238 46.7034 21.2795 46.5183 21.3397C46.4313 23.0438 46.1503 24.7478 45.6819 26.3782Z" fill="white"/>
<path d="M60.7683 21.8192C60.0523 21.6029 59.3341 21.4111 58.6182 21.2416C58.5356 22.2229 58.5267 23.153 58.5847 24.0362C59.4055 24.179 60.1839 24.411 60.8909 24.7277L60.7683 21.8192Z" fill="white"/>
<path d="M57.465 23.9002C57.6524 23.9158 57.8375 23.9337 58.0204 23.956C57.9691 23.0593 57.9847 22.1114 58.0717 21.1167C57.891 21.0765 57.7104 21.0408 57.5275 21.0029C57.4383 22.0155 57.416 22.9835 57.465 23.9002Z" fill="white"/>
<path d="M58.0226 23.956C58.2122 23.9783 58.3996 24.0028 58.5847 24.0363C58.5267 23.1553 58.5356 22.223 58.6182 21.2416C58.4375 21.1992 58.2568 21.1568 58.074 21.1167C57.9847 22.1115 57.9691 23.0571 58.0226 23.956Z" fill="white"/>
<path d="M27.0627 45.5171L18.13 45.4792C18.13 45.4792 18.0854 44.6205 18.0854 43.1551C5.06883 40.1062 -2.25575 34.7644 10.4396 27.4465C-11.6078 36.7138 4.90155 45.1313 29.4737 47.9304C29.4447 47.23 29.4023 46.5565 29.3577 45.9565C28.6061 45.816 27.8433 45.671 27.0627 45.5171Z" fill="white"/>
<path d="M70.7202 44.4175C69.8928 46.3646 68.3694 47.6159 65.8468 47.694C65.8044 47.7029 64.3815 48.0597 61.4842 48.3229C66.0119 47.9371 70.3544 47.3728 74.3312 46.6546C74.1461 45.5952 73.9565 44.6205 73.8048 43.8956C72.7989 44.0807 71.7685 44.2547 70.7202 44.4175Z" fill="white"/>
<path d="M48.6684 48.4055C48.5948 48.575 48.5145 48.7422 48.4297 48.9073C52.4846 48.8872 56.535 48.7155 60.4604 48.4055C57.6658 48.6107 53.7537 48.7043 48.6684 48.4055Z" fill="white"/>
<path d="M61.1809 48.3497C61.0314 48.3631 60.8775 48.3742 60.7192 48.3876C60.8731 48.3742 61.027 48.3608 61.1809 48.3497Z" fill="white"/>
<path d="M91.7238 39.8497C91.7662 40.2422 91.784 40.6303 91.784 41.0139C97.1726 37.5323 96.5771 33.1942 85.5768 28.6197C90.9543 31.7512 92.2903 34.4811 90.9365 36.7963C91.5989 37.9382 91.9134 39.0624 91.7238 39.8497Z" fill="white"/>
<path d="M70.7202 44.4175C63.777 45.497 56.0777 46.0658 49.2795 46.0992C49.197 46.9111 48.9851 47.6828 48.6684 48.4054C53.7537 48.7043 57.668 48.6106 60.4582 48.4077C60.5452 48.401 60.6322 48.3943 60.7169 48.3876C60.8753 48.3764 61.0292 48.3631 61.1786 48.3497C61.2812 48.3408 61.3816 48.3318 61.4842 48.3229C64.3815 48.0597 65.8044 47.7029 65.8468 47.6939C68.3694 47.6159 69.8927 46.3646 70.7202 44.4175Z" fill="white"/>
<path d="M18.1322 45.4792L27.0649 45.5171C27.8433 45.671 28.6083 45.816 29.3622 45.9565C29.3376 45.6398 29.3153 45.3454 29.2908 45.0799C25.3363 44.6004 21.5157 43.9581 18.0898 43.1551C18.0853 44.6205 18.1322 45.4792 18.1322 45.4792Z" fill="white"/>
<path d="M60.7192 48.3854C60.6322 48.3921 60.5452 48.3988 60.4604 48.4055C60.5474 48.401 60.6322 48.3921 60.7192 48.3854Z" fill="white"/>
<path d="M61.4842 48.3229C61.3816 48.3318 61.2812 48.3407 61.1786 48.3497C61.2835 48.3407 61.3861 48.3318 61.4842 48.3229Z" fill="white"/>
<path d="M43.1661 50.3191C42.9653 51.2291 42.6932 52.1592 42.3207 52.9867C43.4092 52.3198 44.6292 51.4232 45.6462 50.3214C44.821 50.328 43.9935 50.328 43.1661 50.3191Z" fill="white"/>
<path d="M30.8387 52.6119C31.8847 52.1815 33.4349 51.3607 34.7262 49.9466C33.4705 49.8507 32.226 49.7347 30.997 49.6031C31.0015 50.667 30.9614 51.7242 30.8387 52.6119Z" fill="white"/>
<path d="M36.2407 53C37.5722 52.4982 39.1714 51.6506 40.3892 50.2589C39.3922 50.2254 38.3975 50.1808 37.4072 50.1251C37.0994 51.1421 36.7158 52.1525 36.2407 53Z" fill="white"/>
<path d="M47.7294 44.7231C47.8253 44.7231 47.9212 44.7231 48.0193 44.7231C48.1219 43.9982 48.1219 42.7202 47.2409 41.4556C46.2395 40.017 43.853 38.3063 38.2012 37.7776C36.5842 38.5516 34.7776 38.9932 32.7992 38.9932C31.568 38.9932 30.2699 38.817 28.9116 38.4512C26.1817 38.962 23.3803 39.7939 21.8904 41.2013C22.0376 41.2258 22.1826 41.2481 22.3275 41.2727C25.5103 41.7879 28.2581 42.2317 30.3792 43.7149L30.6268 43.8889C36.0556 44.4844 41.9126 44.7878 47.7294 44.7231Z" fill="white"/>
<path d="M35.2303 37.6683C35.1344 37.6773 35.0385 37.6862 34.9315 37.6951C34.3583 37.7442 33.6155 37.8089 32.7747 37.9003C33.6334 37.907 34.4542 37.8289 35.2303 37.6683Z" fill="white"/>
<path d="M38.199 37.7776C37.8176 37.7419 37.4228 37.7107 37.0124 37.6884C35.0363 38.4267 32.8014 38.6542 30.3413 38.2103C29.8707 38.2817 29.3912 38.362 28.9094 38.4512C30.27 38.817 31.568 38.9932 32.797 38.9932C34.7753 38.9932 36.582 38.5516 38.199 37.7776Z" fill="white"/>
<path d="M37.0124 37.6885C36.5752 37.6617 36.1202 37.6439 35.6474 37.6305C35.5247 37.6416 35.382 37.655 35.2303 37.6684C34.4541 37.829 33.6334 37.9048 32.7747 37.8981C32.0275 37.9784 31.2022 38.0788 30.3413 38.2104C32.8037 38.6542 35.0363 38.4267 37.0124 37.6885Z" fill="white"/>
<path d="M36.4526 47.1319C34.675 46.8732 32.8059 46.5698 30.8588 46.2241C30.8989 46.7839 30.9368 47.4196 30.9614 48.0887C32.5427 48.2516 34.1553 48.3921 35.7901 48.508C36.0422 48.0887 36.2652 47.6315 36.4526 47.1319Z" fill="white"/>
<path d="M43.5497 47.9995C43.5184 48.2738 43.4783 48.566 43.4337 48.8694C44.5333 48.8939 45.6373 48.9073 46.7436 48.9117C46.8685 48.7132 46.9845 48.5103 47.0915 48.3028C45.9652 48.2203 44.7853 48.1222 43.5497 47.9995Z" fill="white"/>
<path d="M38.0852 47.3594C38.0072 47.7631 37.9135 48.1935 37.8064 48.6396C38.9885 48.7088 40.1818 48.7645 41.3817 48.8091C41.5468 48.4991 41.6918 48.169 41.8144 47.8188C40.6167 47.685 39.3766 47.5356 38.0852 47.3594Z" fill="white"/>
<path d="M30.783 45.2517C30.8075 45.5349 30.8343 45.8628 30.8588 46.2264C32.8059 46.5721 34.6772 46.8754 36.4526 47.1341C36.611 46.7148 36.7403 46.2643 36.8407 45.787C34.8177 45.6509 32.7881 45.4725 30.783 45.2517Z" fill="white"/>
<path d="M47.7294 46.097C46.418 46.1148 45.073 46.1082 43.7058 46.0814C43.6902 46.4383 43.65 47.1341 43.5497 47.9973C44.7831 48.1177 45.9652 48.2181 47.0915 48.3006C47.4484 47.6159 47.7004 46.8799 47.7986 46.097C47.7763 46.097 47.754 46.097 47.7294 46.097Z" fill="white"/>
<path d="M38.3417 45.8806C38.2792 46.2933 38.1945 46.7973 38.0852 47.3616C39.3766 47.5356 40.6189 47.6873 41.8144 47.8189C42.004 47.2791 42.1423 46.688 42.2137 46.0479C40.9356 46.01 39.642 45.9542 38.3417 45.8806Z" fill="white"/>
<path d="M30.997 49.6032C32.2282 49.7348 33.4728 49.8507 34.7263 49.9466C34.927 49.7281 35.1188 49.4916 35.3039 49.2441C33.8519 49.137 32.4111 49.0077 30.9881 48.856C30.9926 49.1036 30.9948 49.3534 30.997 49.6032Z" fill="white"/>
<path d="M37.4072 50.1251C38.3975 50.1808 39.3922 50.2254 40.3892 50.2589C40.5832 50.0358 40.7639 49.7972 40.9379 49.5452C39.8294 49.5095 38.7209 49.4582 37.6168 49.3957C37.5521 49.6388 37.4808 49.8819 37.4072 50.1251Z" fill="white"/>
<path d="M43.311 49.6031C43.2686 49.8396 43.2195 50.0782 43.166 50.3191C43.9935 50.328 44.821 50.328 45.6462 50.3191C45.8559 50.0916 46.0566 49.8574 46.2462 49.6143C45.2693 49.6232 44.2901 49.6188 43.311 49.6031Z" fill="white"/>
<path d="M36.9946 44.8792L38.4555 45.051C38.4488 45.1112 38.4399 45.1714 38.4309 45.2294C41.5445 45.3989 44.676 45.4613 47.7294 45.4078C47.7718 45.4078 47.8142 45.4078 47.8543 45.41L47.8855 45.3186C47.8945 45.2941 47.9658 45.071 48.0149 44.7209C47.919 44.7209 47.8231 44.7209 47.7249 44.7209C41.9081 44.7855 36.0511 44.4822 30.6201 43.8845L30.6469 43.9023L30.6826 44.2346C30.6893 44.3038 30.7026 44.4309 30.7183 44.5893C32.7635 44.819 34.8512 45.0019 36.9544 45.1379C36.97 45.0554 36.9834 44.9662 36.9946 44.8792Z" fill="white"/>
<path d="M43.311 49.6031C44.2901 49.6188 45.2693 49.6232 46.2462 49.6165C46.4224 49.389 46.5897 49.1526 46.7436 48.9117C45.6373 48.9095 44.5333 48.8961 43.4337 48.8694C43.398 49.108 43.3578 49.3533 43.311 49.6031Z" fill="white"/>
<path d="M30.9636 48.091C30.9725 48.343 30.9814 48.5973 30.9881 48.856C32.4111 49.0077 33.8519 49.137 35.3039 49.2441C35.4757 49.0143 35.6385 48.769 35.7901 48.5103C34.1575 48.3943 32.5449 48.2538 30.9636 48.091Z" fill="white"/>
<path d="M37.8064 48.6396C37.7462 48.8872 37.6837 49.1393 37.6168 49.3958C38.7209 49.4582 39.8271 49.5095 40.9379 49.5452C41.0985 49.3132 41.2457 49.0679 41.3817 48.8092C40.1818 48.7668 38.9907 48.7088 37.8064 48.6396Z" fill="white"/>
<path d="M38.4309 45.2316C38.4198 45.3164 38.4109 45.4033 38.3975 45.4859C38.3819 45.6041 38.3618 45.7379 38.3395 45.8784C39.6398 45.952 40.9334 46.0078 42.2114 46.0457C42.2204 45.9654 42.236 45.8896 42.2427 45.807L43.7125 45.8918C43.7103 45.9364 43.708 46.0033 43.7058 46.0814C45.073 46.1081 46.4179 46.1126 47.7294 46.097C47.7517 46.097 47.7762 46.097 47.7985 46.097C47.8209 45.9141 47.8387 45.7312 47.8454 45.5438L47.8498 45.4279L47.8565 45.41C47.8142 45.41 47.7718 45.41 47.7316 45.4078C44.676 45.4636 41.5445 45.3989 38.4309 45.2316Z" fill="white"/>
<path d="M36.941 45.2851C36.9477 45.2383 36.9522 45.1915 36.9589 45.1446C34.8556 45.0086 32.768 44.8234 30.7227 44.5959C30.7406 44.7699 30.7606 44.9907 30.7829 45.2539C32.7881 45.4747 34.8177 45.6532 36.8429 45.7892C36.8764 45.6197 36.9143 45.4569 36.941 45.2851Z" fill="white"/>
<path d="M89.1833 36.8096C88.909 36.4372 88.5811 36.0558 88.1886 35.6811C86.4957 34.0663 82.7442 31.7556 76.624 34.4008C76.372 34.5525 76.0932 34.7175 75.7899 34.896C74.5966 35.6008 73.0041 36.5442 71.4607 37.6393C71.5633 39.0623 71.5611 40.4184 71.4116 41.6473C71.7506 41.6228 72.0986 41.6072 72.4644 41.6072C73.0465 41.6072 73.6665 41.6429 74.3424 41.7254L74.8553 41.7879L74.9691 42.2919C74.9713 42.2986 74.9735 42.3098 74.9758 42.3209C81.9257 40.918 87.1381 38.9932 89.1833 36.8096Z" fill="white"/>
<path d="M86.7188 49.543C88.0214 47.9861 89.4666 45.7736 90.0465 43.2466C89.1187 43.7172 88.0994 44.1722 87.0065 44.6093C87.0556 46.1505 87.0155 47.9638 86.7188 49.543Z" fill="white"/>
<path d="M76.4077 51.586C77.3891 50.7362 78.7697 49.2307 79.644 46.9669C78.4775 47.268 77.2642 47.5512 76.0129 47.8166C76.2114 49.1259 76.3698 50.4663 76.4077 51.586Z" fill="white"/>
<path d="M81.2543 50.9369C82.626 49.8418 84.2386 48.0486 84.9545 45.3743C83.9865 45.7111 82.9695 46.0345 81.9078 46.3446C81.8231 47.9125 81.6335 49.5719 81.2543 50.9369Z" fill="white"/>
<path d="M71.4607 37.6393C69.46 39.0579 67.5419 40.7307 66.6921 42.4704C67.1761 42.3811 67.64 42.283 68.095 42.1849C69.179 41.9551 70.2295 41.7343 71.4139 41.6474C71.5611 40.4184 71.5633 39.0623 71.4607 37.6393Z" fill="white"/>
<path d="M90.2673 39.6958C90.2673 39.6958 90.2651 38.7546 89.9238 38.0341C88.3113 39.5486 85.501 40.8578 81.9435 41.9552C81.9703 42.6689 81.9926 43.7395 81.9658 44.955C83.1167 44.6405 84.2096 44.3127 85.2378 43.967C85.3426 43.1685 85.3672 42.3053 85.2913 41.3708L86.7545 41.2214C86.7857 41.4734 86.8794 42.2786 86.9485 43.3581C88.1774 42.8919 89.2882 42.4012 90.2673 41.8905C90.3298 41.2325 90.2673 39.6958 90.2673 39.6958Z" fill="white"/>
<path d="M80.467 42.3834C78.8433 42.834 77.0947 43.2444 75.2524 43.6124C75.404 44.3439 75.5959 45.3186 75.7788 46.3803C77.291 46.0859 78.7385 45.7669 80.1213 45.4279C80.3399 44.5157 80.4626 43.4986 80.467 42.3834Z" fill="white"/>
<path d="M81.91 46.3446C82.9717 46.0346 83.9887 45.7111 84.9567 45.3744C85.0214 45.1335 85.0772 44.8859 85.1262 44.6317C84.1203 44.9796 83.0564 45.3119 81.9435 45.6309C81.9346 45.8651 81.9234 46.1037 81.91 46.3446Z" fill="white"/>
<path d="M87.0065 44.6093C88.1016 44.1722 89.1187 43.7172 90.0465 43.2465C90.1023 43.0057 90.1491 42.7603 90.187 42.5128C89.2213 43.0101 88.1485 43.4897 86.9797 43.9491C86.9909 44.161 86.9998 44.3818 87.0065 44.6093Z" fill="white"/>
<path d="M80.4558 41.6318C80.4536 41.5604 80.4491 41.489 80.4469 41.4199L81.3257 41.3708C85.0817 40.211 87.9745 38.8527 89.5558 37.3606C89.4443 37.1799 89.3216 36.997 89.1833 36.8097C87.1381 38.991 81.9256 40.9158 74.9758 42.3232C74.9936 42.4057 75.0427 42.6243 75.1141 42.9522C77.021 42.5507 78.812 42.1091 80.4558 41.6318Z" fill="white"/>
<path d="M76.0129 47.8166C77.2642 47.5512 78.4775 47.2679 79.644 46.9668C79.7421 46.7126 79.8336 46.4516 79.9183 46.1795C78.6336 46.5074 77.2909 46.8174 75.9014 47.1051C75.9393 47.3393 75.9772 47.5779 76.0129 47.8166Z" fill="white"/>
<path d="M80.4559 41.6318C78.8121 42.1091 77.0211 42.5507 75.1141 42.9499C75.1542 43.1373 75.2011 43.3603 75.2524 43.6124C77.0924 43.2421 78.8433 42.8317 80.467 42.3834C80.467 42.2228 80.4737 42.0645 80.4692 41.8994C80.4648 41.8102 80.4603 41.721 80.4559 41.6318Z" fill="white"/>
<path d="M81.9636 44.955C81.9591 45.1758 81.9524 45.4011 81.9435 45.6309C83.0565 45.3119 84.1204 44.9796 85.1263 44.6316C85.1687 44.4153 85.2066 44.1945 85.2378 43.967C84.2096 44.3105 83.1167 44.6406 81.9636 44.955Z" fill="white"/>
<path d="M86.9819 43.9491C88.1506 43.4897 89.2235 43.0124 90.1892 42.5128C90.2227 42.3053 90.2494 42.0979 90.2695 41.8882C89.2904 42.399 88.1774 42.8897 86.9507 43.3558C86.9596 43.5454 86.9708 43.7439 86.9819 43.9491Z" fill="white"/>
<path d="M81.9167 41.3396C81.9279 41.5158 81.9346 41.6897 81.9413 41.8615C81.9435 41.8905 81.9435 41.9239 81.9435 41.9552C85.501 40.8578 88.3135 39.5486 89.9238 38.0341C89.8234 37.8223 89.7008 37.597 89.5558 37.3628C87.9745 38.8549 85.0817 40.2132 81.3257 41.373L81.9167 41.3396Z" fill="white"/>
<path d="M75.7787 46.3825C75.8189 46.6189 75.8613 46.8598 75.8992 47.1051C77.2887 46.8174 78.6314 46.5074 79.9161 46.1795C79.9897 45.9387 80.0589 45.6888 80.1213 45.4301C78.7407 45.7691 77.2909 46.0881 75.7787 46.3825Z" fill="white"/>
<path d="M81.183 41.4157C81.183 41.3954 81.1807 41.382 81.1807 41.382C81.183 41.3932 81.183 41.4044 81.183 41.4157Z" fill="white"/>
<path d="M81.2097 42.1739C81.2097 42.1672 81.2097 42.1582 81.2097 42.1515C81.2097 42.1582 81.2075 42.1649 81.2097 42.1739Z" fill="white"/>
<path d="M81.2075 42.1024C81.2075 42.1181 81.2075 42.1338 81.2097 42.1496C81.2097 42.1338 81.2075 42.1181 81.2075 42.1024Z" fill="white"/>
<path d="M47.3614 31.1802C47.2722 29.9044 47.6714 28.7937 48.3896 27.8591C48.0662 27.9104 47.745 27.9662 47.4216 28.0286C46.8506 28.9899 46.5852 30.0628 46.6566 31.1913C46.6276 32.1571 47.0447 33.5176 49.1479 34.5927C50.8452 35.4603 53.3879 35.9398 55.9327 35.9398C58.5869 35.9398 61.2455 35.4179 62.9518 34.2715C62.7354 34.1399 62.5235 33.9949 62.3139 33.8433C57.929 36.4818 47.1852 35.3042 47.3614 31.1802Z" fill="white"/>
<path d="M64.8387 30.868C64.5354 30.5423 64.2543 30.1832 63.9978 29.7929C64.0157 29.9446 64.038 30.094 64.0447 30.2546C64.3302 31.43 63.9889 32.3891 63.235 33.1385C63.4358 33.2723 63.6387 33.3972 63.8462 33.5132C64.5532 32.7549 64.89 31.8582 64.8387 30.868Z" fill="white"/>
<path d="M62.7288 26.8777C62.6284 26.4919 62.5503 26.0971 62.4901 25.6912C62.1243 25.399 61.7251 25.1313 61.2745 24.9016C61.1519 24.8392 61.0203 24.7834 60.8909 24.7254L60.9244 25.5217C61.618 25.8741 62.2336 26.3224 62.7288 26.8777Z" fill="white"/>
<path d="M62.3161 33.8455C62.5258 33.9971 62.7377 34.1399 62.954 34.2737C63.0767 34.1912 63.1949 34.1064 63.3064 34.0194C63.3488 33.986 63.3822 33.9503 63.4224 33.9168C63.2105 33.7942 63.0031 33.6604 62.8001 33.5198C62.6484 33.6336 62.4878 33.7429 62.3161 33.8455Z" fill="white"/>
<path d="M63.8462 33.5131C63.6388 33.3972 63.4358 33.2723 63.2351 33.1384C63.1012 33.2723 62.9563 33.3972 62.7979 33.5176C63.0009 33.6581 63.2083 33.7919 63.4202 33.9146C63.5763 33.7852 63.7168 33.6514 63.8462 33.5131Z" fill="white"/>
<path d="M63.9979 29.7929C64.2521 30.1832 64.5332 30.5423 64.8387 30.8679C64.8276 30.636 64.8008 30.3996 64.745 30.1565C64.6536 28.3075 63.873 26.793 62.4901 25.6912C62.5503 26.0972 62.6284 26.4919 62.7288 26.8778C63.4113 27.645 63.8618 28.613 63.9979 29.7929Z" fill="white"/>
<path d="M57.5164 24.5983C57.4941 24.3686 57.4784 24.1344 57.465 23.898C54.7663 23.6883 51.8155 24.3218 49.6721 25.7381C48.6885 26.3871 47.9324 27.1633 47.4216 28.0264C47.7428 27.964 48.0662 27.906 48.3896 27.8569C50.2007 25.5016 54.0704 24.295 57.5164 24.5983Z" fill="white"/>
<path d="M60.9244 25.5217L60.8909 24.7254C60.1839 24.4087 59.4055 24.1767 58.5847 24.034C58.6003 24.2793 58.6226 24.5202 58.6494 24.7566C59.4635 24.915 60.233 25.1693 60.9244 25.5217Z" fill="white"/>
<path d="M58.0762 24.6652C58.0539 24.4333 58.0338 24.1968 58.0204 23.956C57.8353 23.9337 57.6501 23.9158 57.465 23.9002C57.4784 24.1366 57.494 24.3708 57.5163 24.6005C57.7059 24.6162 57.891 24.6385 58.0762 24.6652Z" fill="white"/>
<path d="M58.6472 24.7567C58.6204 24.5203 58.6003 24.2794 58.5825 24.034C58.3973 24.0028 58.21 23.9783 58.0204 23.9537C58.0338 24.1946 58.0516 24.431 58.0762 24.663C58.2702 24.692 58.4598 24.721 58.6472 24.7567Z" fill="white"/>
<path d="M49.7903 33.3414C48.9784 32.9265 48.0216 32.2195 48.064 31.2114L48.0662 31.1712L48.064 31.1311C47.9592 29.6345 48.6305 28.5148 49.4468 27.7164C49.0944 27.7565 48.742 27.8034 48.3896 27.8591C47.6714 28.7936 47.2722 29.9066 47.3614 31.1802C47.1852 35.3041 57.929 36.4796 62.3161 33.8432C62.1109 33.6938 61.9058 33.5377 61.7095 33.3704C58.8122 34.9272 52.9976 34.983 49.7903 33.3414Z" fill="white"/>
<path d="M64.0447 30.2546C64.038 30.094 64.0157 29.9468 63.9979 29.7929C63.4403 28.9431 63.0076 27.9551 62.7288 26.8778C62.2336 26.3224 61.618 25.8741 60.9244 25.5217L60.9578 26.3336C62.0641 26.9871 63.2551 28.1759 63.3421 30.2836L63.3622 30.4219C63.5808 31.323 63.3466 32.0768 62.6574 32.7192C62.847 32.8686 63.0388 33.0091 63.2373 33.1407C63.9889 32.3891 64.3324 31.43 64.0447 30.2546Z" fill="white"/>
<path d="M61.7095 33.3727C61.908 33.5399 62.1109 33.6961 62.3161 33.8455C62.4879 33.7429 62.6485 33.6336 62.8001 33.5199C62.5972 33.3794 62.3964 33.2321 62.2024 33.0738C62.0485 33.1786 61.8857 33.279 61.7095 33.3727Z" fill="white"/>
<path d="M62.4343 32.9132C62.3629 32.969 62.2782 33.018 62.2001 33.0715C62.3942 33.2299 62.5949 33.3771 62.7979 33.5176C62.9562 33.3972 63.1012 33.2723 63.235 33.1385C63.0388 33.0069 62.8447 32.8664 62.6551 32.7169C62.586 32.7838 62.5146 32.8507 62.4343 32.9132Z" fill="white"/>
<path d="M63.9978 29.7929C63.8618 28.613 63.4113 27.645 62.7288 26.8777C63.0076 27.955 63.4403 28.9431 63.9978 29.7929Z" fill="white"/>
<path d="M50.4482 26.9134C52.1099 25.8161 54.3157 25.2451 56.4346 25.2451C56.8271 25.2451 57.2152 25.2652 57.5966 25.3053C57.5654 25.0734 57.5386 24.8392 57.5163 24.6005C54.0704 24.2972 50.2007 25.5016 48.3896 27.8613C48.742 27.8056 49.0922 27.7587 49.4468 27.7186C49.7702 27.3997 50.1181 27.132 50.4482 26.9134Z" fill="white"/>
<path d="M60.6344 26.1529C60.7414 26.2064 60.8507 26.2689 60.96 26.3336L60.9266 25.5217C60.2351 25.1715 59.4657 24.9173 58.6494 24.7589C58.6761 25.0065 58.7096 25.2518 58.7475 25.4927C59.4233 25.6399 60.0612 25.8607 60.6344 26.1529Z" fill="white"/>
<path d="M58.1631 25.3789C58.1297 25.1447 58.1007 24.9061 58.0762 24.6652C57.891 24.6384 57.7037 24.6161 57.5141 24.6005C57.5364 24.8392 57.5632 25.0734 57.5944 25.3053C57.7884 25.3232 57.978 25.3499 58.1631 25.3789Z" fill="white"/>
<path d="M58.7453 25.4905C58.7074 25.2496 58.6739 25.0065 58.6471 24.7567C58.4598 24.721 58.268 24.6898 58.0762 24.663C58.1007 24.9061 58.1297 25.1426 58.1631 25.3768C58.3617 25.4102 58.5535 25.4481 58.7453 25.4905Z" fill="white"/>
</svg>
