<svg width="221" height="51" viewBox="0 0 221 51" fill="none" xmlns="http://www.w3.org/2000/svg">
<path d="M111.227 34.1749H103.34C103.355 35.1106 103.536 35.9237 103.898 36.6447C104.26 37.3504 104.743 37.8873 105.331 38.2555C105.919 38.6236 106.582 38.7924 107.306 38.7924C107.789 38.7924 108.226 38.731 108.633 38.6236C109.041 38.5162 109.418 38.3322 109.795 38.0867C110.172 37.8413 110.519 37.5805 110.835 37.3043C111.152 37.0282 111.559 36.6447 112.057 36.1691C112.268 35.9851 112.554 35.893 112.947 35.893C113.354 35.893 113.701 36.0157 113.957 36.2458C114.213 36.476 114.334 36.7981 114.334 37.2276C114.334 37.5958 114.198 38.0253 113.912 38.5316C113.625 39.0225 113.188 39.498 112.615 39.9583C112.042 40.4185 111.318 40.7866 110.443 41.0935C109.568 41.4003 108.573 41.5383 107.442 41.5383C104.848 41.5383 102.842 40.7866 101.395 39.2833C99.9619 37.7799 99.2381 35.7396 99.2381 33.1624C99.2381 31.9505 99.419 30.8306 99.7659 29.7875C100.113 28.7443 100.641 27.8546 101.319 27.1182C101.998 26.3819 102.842 25.8143 103.838 25.4154C104.833 25.0166 105.934 24.8171 107.156 24.8171C108.724 24.8171 110.081 25.1546 111.212 25.8296C112.343 26.5046 113.188 27.379 113.746 28.4528C114.304 29.5267 114.59 30.6159 114.59 31.7357C114.59 32.7635 114.304 33.4385 113.716 33.7453C113.097 34.0215 112.283 34.1749 111.227 34.1749ZM103.34 31.8431H110.654C110.549 30.4471 110.187 29.3886 109.538 28.6983C108.89 28.008 108.045 27.6551 106.99 27.6551C105.979 27.6551 105.165 28.008 104.516 28.7136C103.868 29.4193 103.476 30.4625 103.34 31.8431Z" fill="white"/>
<path d="M117.953 39.0227V21.2277C117.953 20.3993 118.134 19.7857 118.496 19.3715C118.858 18.9573 119.326 18.7272 119.944 18.7272C120.562 18.7272 121.045 18.9419 121.422 19.3561C121.799 19.7703 121.98 20.3993 121.98 21.2277V39.0227C121.98 39.8511 121.784 40.4801 121.407 40.8943C121.03 41.3085 120.532 41.5232 119.944 41.5232C119.356 41.5232 118.873 41.3085 118.496 40.8789C118.119 40.4494 117.953 39.8204 117.953 39.0227Z" fill="white"/>
<path d="M140.446 15.6638H133.666V37.9982C133.666 39.2823 133.377 40.2363 132.809 40.86C132.241 41.4837 131.492 41.7955 130.591 41.7955C129.671 41.7955 128.923 41.4837 128.336 40.8508C127.759 40.2179 127.471 39.2732 127.471 37.9982V15.6638H120.69C119.626 15.6638 118.842 15.4345 118.328 14.9575C117.814 14.4898 117.552 13.866 117.552 13.1047C117.552 12.3068 117.823 11.683 118.355 11.2153C118.896 10.7566 119.671 10.5273 120.69 10.5273H140.455C141.528 10.5273 142.331 10.7658 142.854 11.2428C143.377 11.7197 143.638 12.3435 143.638 13.1047C143.638 13.8752 143.377 14.4898 142.845 14.9575C142.304 15.4345 141.51 15.6638 140.446 15.6638Z" fill="white"/>
<path d="M160.356 30.8891C160.356 32.5218 160.103 34.026 159.598 35.4019C159.093 36.7777 158.363 37.9609 157.398 38.9515C156.442 39.9421 155.297 40.6943 153.963 41.2262C152.628 41.7582 151.131 42.0151 149.472 42.0151C147.822 42.0151 146.334 41.7491 145.018 41.2171C143.701 40.6851 142.556 39.9146 141.591 38.924C140.627 37.9334 139.896 36.7502 139.391 35.3927C138.895 34.0352 138.643 32.5401 138.643 30.8891C138.643 29.2289 138.895 27.7155 139.4 26.3397C139.905 24.9638 140.636 23.7898 141.582 22.8084C142.529 21.8361 143.674 21.084 145.018 20.552C146.361 20.02 147.849 19.7632 149.472 19.7632C151.122 19.7632 152.619 20.0292 153.963 20.5612C155.306 21.0932 156.46 21.8545 157.416 22.8451C158.372 23.8357 159.102 25.0097 159.607 26.3764C160.103 27.743 160.356 29.2473 160.356 30.8891ZM154.882 30.8891C154.882 28.6603 154.395 26.9175 153.413 25.6793C152.439 24.441 151.122 23.8173 149.463 23.8173C148.399 23.8173 147.461 24.0925 146.641 24.652C145.829 25.2023 145.207 26.0278 144.765 27.1102C144.324 28.1925 144.107 29.4583 144.107 30.8983C144.107 32.3292 144.324 33.5766 144.756 34.6497C145.189 35.7229 145.811 36.5392 146.614 37.1079C147.416 37.6766 148.372 37.9609 149.463 37.9609C151.113 37.9609 152.43 37.3372 153.413 36.0898C154.395 34.824 154.882 33.0996 154.882 30.8891Z" fill="white"/>
<path d="M169.688 22.8359V23.4963C170.716 22.2305 171.78 21.295 172.88 20.6988C173.989 20.1026 175.234 19.809 176.64 19.809C178.318 19.809 179.859 20.2401 181.275 21.1115C182.691 21.9829 183.8 23.2486 184.62 24.918C185.441 26.5873 185.847 28.5685 185.847 30.8524C185.847 32.5401 185.612 34.0811 185.134 35.4936C184.656 36.9061 184.016 38.0893 183.187 39.0433C182.357 39.9972 181.383 40.731 180.256 41.2446C179.129 41.7582 177.921 42.0151 176.631 42.0151C175.071 42.0151 173.764 41.7032 172.709 41.0703C171.654 40.4466 170.644 39.5202 169.679 38.3003V46.5186C169.679 48.9218 168.805 50.1233 167.064 50.1233C166.036 50.1233 165.36 49.8115 165.027 49.1878C164.693 48.5641 164.531 47.6652 164.531 46.4728V22.8726C164.531 21.8269 164.756 21.0565 165.207 20.5337C165.658 20.0108 166.28 19.7632 167.064 19.7632C167.84 19.7632 168.462 20.0292 168.949 20.552C169.445 21.084 169.688 21.8453 169.688 22.8359ZM180.373 30.7882C180.373 29.3482 180.157 28.1099 179.715 27.0735C179.273 26.037 178.669 25.239 177.885 24.6887C177.109 24.1383 176.244 23.854 175.297 23.854C173.791 23.854 172.52 24.4502 171.492 25.6334C170.464 26.8166 169.941 28.5685 169.941 30.88C169.941 33.0538 170.455 34.7506 171.483 35.9614C172.511 37.1721 173.782 37.7775 175.297 37.7775C176.199 37.7775 177.037 37.5115 177.813 36.9887C178.588 36.4567 179.201 35.6679 179.67 34.6131C180.139 33.5674 180.373 32.2833 180.373 30.7882Z" fill="white"/>
<path d="M194.924 39.5019V25.7729C192.32 27.7377 190.568 28.712 189.659 28.712C189.228 28.712 188.844 28.5429 188.516 28.2047C188.179 27.8665 188.02 27.48 188.02 27.0371C188.02 26.5218 188.179 26.1514 188.516 25.9098C188.844 25.6682 189.425 25.3542 190.249 24.9758C191.486 24.404 192.479 23.8001 193.228 23.164C193.968 22.5279 194.633 21.8193 195.205 21.0382C195.776 20.2572 196.151 19.774 196.329 19.5888C196.507 19.4117 196.835 19.3151 197.313 19.3151C197.856 19.3151 198.287 19.5244 198.624 19.9351C198.952 20.3457 199.121 20.9175 199.121 21.6421V38.9141C199.121 40.9352 198.418 41.9417 197.013 41.9417C196.385 41.9417 195.889 41.7324 195.505 41.3217C195.111 40.911 194.924 40.2991 194.924 39.5019Z" fill="white"/>
<path d="M220.282 30.7008C220.282 32.3515 220.16 33.7768 219.926 34.9604C219.692 36.1522 219.261 37.2231 218.624 38.1974C217.828 39.3892 216.797 40.2991 215.523 40.9513C214.258 41.5955 212.844 41.9175 211.298 41.9175C209.518 41.9175 207.917 41.4827 206.502 40.6211C205.088 39.7515 204.02 38.5598 203.308 37.0218C202.942 36.1844 202.68 35.2584 202.511 34.2519C202.343 33.2373 202.259 32.1422 202.259 30.9666C202.259 29.4447 202.352 28.0758 202.54 26.8599C202.727 25.6441 203.017 24.5973 203.42 23.7196C204.113 22.2702 205.116 21.167 206.437 20.4021C207.757 19.6452 209.331 19.2587 211.158 19.2587C212.366 19.2587 213.462 19.4278 214.446 19.766C215.429 20.1041 216.301 20.5953 217.041 21.2476C217.781 21.8998 218.418 22.697 218.933 23.6552C219.832 25.3059 220.282 27.6571 220.282 30.7008ZM215.458 30.4029C215.458 28.559 215.326 27.0532 215.073 25.8776C214.811 24.702 214.38 23.8162 213.771 23.2203C213.162 22.6245 212.319 22.3185 211.233 22.3185C209.687 22.3185 208.61 22.9868 208.001 24.3316C207.392 25.6682 207.092 27.7376 207.092 30.5237C207.092 32.416 207.223 33.97 207.476 35.1779C207.729 36.3857 208.17 37.3036 208.778 37.9237C209.387 38.5437 210.212 38.8497 211.261 38.8497C212.338 38.8497 213.181 38.5276 213.799 37.8834C214.408 37.2392 214.839 36.3213 215.083 35.1215C215.336 33.9137 215.458 32.3435 215.458 30.4029Z" fill="white"/>
<path d="M18.5584 39.3801C19.6523 37.0791 23.3112 35.8721 27.2718 35.1554C23.4244 33.4202 20.5576 29.8368 19.1997 25.5367C17.9926 30.7798 17.5777 35.8343 17.4645 39.2669C17.804 39.3423 18.1435 39.4178 18.483 39.4932L18.5584 39.3801Z" fill="white"/>
<path d="M77.2513 24.4428C77.2136 24.556 77.1759 24.6314 77.1382 24.7446C84.2296 26.6306 87.9639 29.2333 87.9639 32.2132C87.9639 33.6843 86.8323 35.1177 84.7577 36.4002C85.1349 37.4941 85.1726 38.3616 85.1726 38.588C85.2481 39.116 85.2481 39.6818 85.2103 40.1722C89.5859 38.2108 92 35.9852 92 33.722C92 30.1386 86.6437 26.7438 77.2513 24.4428Z" fill="white"/>
<path d="M27.649 42.3977C27.1964 42.0959 26.706 41.8696 26.1779 41.681C22.9717 41.2661 20.0672 40.738 17.4645 40.0968C9.24149 38.173 4.14924 35.3817 4.14924 32.2132C4.14924 28.7807 6.2993 26.6306 11.3161 25.0086C11.2784 24.82 11.2407 24.6691 11.203 24.4805C3.84748 26.5552 0 29.7237 0 33.722C0 37.5695 6.90283 41.1152 17.5023 43.4162C18.0681 43.5293 18.5961 43.6425 19.1997 43.7556C21.9155 44.2837 24.82 44.7364 27.9131 45.1136C27.9131 44.7364 27.8754 44.3969 27.8376 44.0574C27.7245 43.4539 27.6868 42.8504 27.649 42.3977Z" fill="white"/>
<path d="M67.9721 41.4547C67.859 41.4547 67.7835 41.4547 67.6704 41.417C65.2185 41.7942 62.5781 42.096 59.7868 42.3223L59.3342 42.36V42.3223C55.4112 42.6618 51.2243 42.8127 46.811 42.8504C46.7733 43.0767 46.7355 43.2653 46.6978 43.3785C46.6601 44.3592 46.3961 45.3022 46.0189 46.132C53.3366 46.132 60.3526 45.6794 66.6896 44.7741C67.3309 44.6987 67.9344 44.5855 68.5379 44.5101C68.4248 43.8311 68.3116 43.2276 68.2362 42.6995C68.0853 42.2091 68.0098 41.7565 67.9721 41.4547Z" fill="white"/>
<path d="M36.0607 35.7966C35.4572 35.7589 34.8536 35.6835 34.2124 35.6835C34.0238 35.6835 33.7975 35.6835 33.6089 35.6458C33.3825 35.6458 33.1939 35.6458 32.9676 35.6835C32.779 35.7212 32.4773 35.7212 32.1755 35.7589C32.0623 35.7589 31.9492 35.7966 31.836 35.7966C31.2702 35.8721 30.5158 35.9475 29.686 36.0607C26.5174 36.5133 21.991 37.4186 20.2936 39.2669C20.4822 39.3046 20.6331 39.3046 20.8217 39.3423C23.4621 39.7573 25.8008 40.0968 27.6868 41.0775C27.9885 41.2284 28.2526 41.3792 28.5166 41.5678C28.5543 41.5678 28.5543 41.6056 28.5921 41.6056L28.8184 41.7564L28.8561 41.9828V42.0205C28.8561 42.1337 28.9693 43.0389 29.0447 44.2837C29.0447 44.5855 29.0824 44.8872 29.0824 45.2267C29.0824 45.3399 29.0824 45.4908 29.0824 45.6039C29.0824 45.7171 29.0824 45.868 29.0824 45.9811C29.1201 47.4145 29.1201 48.9988 28.9315 50.1681C30.1386 49.7155 32.3264 48.6216 33.7598 46.3961C33.8352 46.2829 33.9106 46.1697 33.9861 46.0566C34.0615 45.9434 34.137 45.8303 34.1747 45.6794C34.2501 45.5285 34.3633 45.3399 34.4387 45.1513C34.7028 44.51 34.9291 43.7934 35.0422 42.9635C35.0422 42.8503 35.08 42.7372 35.08 42.624L36.1739 42.7372C36.1739 42.8881 36.1361 43.0389 36.0984 43.1898C36.023 43.6802 35.9098 44.4346 35.7212 45.3399C35.6835 45.4908 35.6458 45.6416 35.6081 45.7548C35.5703 45.868 35.5703 46.0189 35.5326 46.132C35.4949 46.2452 35.4572 46.3583 35.4572 46.5092C35.08 47.9049 34.5896 49.4514 33.8729 50.583C35.5326 50.0172 37.7581 48.8856 39.0406 46.6978C39.116 46.5847 39.1915 46.4715 39.2669 46.3206C39.3424 46.2075 39.3801 46.0943 39.4178 45.9434C39.4555 45.9057 39.4555 45.8303 39.4932 45.7925C39.795 45.1136 39.9836 44.3214 40.0591 43.4539L41.1529 43.5293C41.1529 43.7934 41.1152 44.7364 40.9266 45.9434V45.9811C40.9266 46.0943 40.8889 46.2075 40.8889 46.3583C40.8889 46.4715 40.8512 46.5847 40.8135 46.7355C40.5871 48.018 40.2099 49.4891 39.6064 50.6585C41.0398 49.8286 42.8881 48.5084 44.0574 46.811C44.1329 46.6978 44.2083 46.5847 44.2837 46.4338C44.3215 46.3961 44.3592 46.3206 44.3969 46.2829C44.4346 46.2075 44.4723 46.132 44.5101 46.0566C44.9627 45.189 45.3022 44.246 45.3022 43.2276C45.3022 43.2276 45.3776 42.9635 45.3776 42.8503C45.4153 42.7372 45.4153 42.624 45.4531 42.4731C45.4531 42.36 45.4908 42.2468 45.4908 42.0959C45.5285 41.3793 45.4153 40.3231 44.6987 39.2669C43.3784 37.4186 40.3985 36.2116 36.0607 35.7966Z" fill="white"/>
<path d="M83.4375 38.7765C83.4375 38.7388 83.4375 38.0599 83.1734 37.1923C83.1357 37.0791 83.098 36.966 83.0603 36.8528C83.0226 36.7396 82.9848 36.6265 82.9094 36.5133C82.6454 35.8721 82.1927 35.1931 81.5137 34.5896C79.7786 32.9676 77.025 32.3264 73.3284 32.6281C72.5363 32.7036 71.6687 32.9676 70.8389 33.458C70.6126 33.6088 70.3108 33.7597 70.009 33.9106C69.6695 34.0992 69.2923 34.3255 68.8774 34.5519C66.237 36.0984 62.5404 38.4748 61.4088 41.002C61.9369 40.9266 62.4272 40.8134 62.9176 40.7003C64.1247 40.474 65.3317 40.2099 66.7274 40.2099C67.3309 40.2099 67.9344 40.2476 68.6511 40.3608L68.9529 40.3985H68.9906L69.066 40.7757C69.066 40.8134 69.1037 40.9266 69.1415 41.1152C69.2546 41.681 69.4809 42.8126 69.7073 44.1328C69.7073 44.246 69.745 44.3592 69.745 44.4723C69.7827 44.5855 69.7827 44.7364 69.8204 44.8495C70.0468 46.4338 70.2731 48.1689 70.2731 49.5268C71.3292 48.697 73.0644 46.9619 73.8942 44.0951C73.9319 43.9442 73.9697 43.8311 74.0074 43.6802C74.0451 43.567 74.0828 43.4161 74.0828 43.303C74.2714 42.36 74.3846 41.3415 74.3846 40.2099C74.3846 40.1722 74.3846 40.0967 74.3846 40.059C74.3846 40.0213 74.3846 39.9836 74.3846 39.9836H74.8372L75.4408 39.9459C75.4408 40.0213 75.4408 40.0968 75.4408 40.2099C75.4408 40.8134 75.4785 41.8319 75.4408 43.0012C75.4408 43.1144 75.4408 43.2653 75.4408 43.3784C75.4408 43.4916 75.4408 43.6425 75.4408 43.7934C75.3653 45.5662 75.139 47.6031 74.6109 49.1119C76.082 48.0557 78.0057 46.132 78.647 43.0012C78.6847 42.8503 78.7224 42.7372 78.7224 42.5863C78.7602 42.4731 78.7602 42.3223 78.7602 42.2091C78.8356 41.5301 78.8733 40.8134 78.7979 40.059L79.854 39.9459C79.8918 40.1722 79.9672 40.8889 80.0049 41.8319C80.0049 41.945 80.0049 42.0582 80.0049 42.2091C80.0049 42.3223 80.0049 42.4731 80.0049 42.5863C80.0427 44.246 80.0049 46.3961 79.5523 48.0935C80.9479 46.5847 82.6076 44.246 83.1734 41.4924C83.2112 41.3415 83.2112 41.1906 83.2489 41.0775C83.2866 40.9266 83.2866 40.8134 83.2866 40.6626C83.5129 40.059 83.5129 39.4555 83.4375 38.7765Z" fill="white"/>
<path d="M40.2476 16.861C41.6056 19.6146 41.3415 22.5191 39.6818 23.3489C37.9844 24.1788 38.5125 21.5384 37.1546 18.7848C35.7966 16.0312 33.043 14.2206 34.7405 13.3908C36.4379 12.5609 38.8897 14.1074 40.2476 16.861Z" fill="white" stroke="white" stroke-miterlimit="10"/>
<path d="M47.1882 18.8225C49.7909 18.0303 52.2427 17.9172 54.8454 18.4453C54.8832 18.2944 54.8832 18.1058 54.9209 17.9549C55.4112 14.8241 56.7315 12.0328 58.6929 10.0713C54.7323 5.69578 52.2427 4.79049 52.2427 4.79049L55.034 1.88602L46.6224 3.28167L49.8286 0L40.5871 3.20623C39.795 3.24395 39.0406 3.31939 38.2862 3.43255C43.7179 5.9221 47.1882 12.0705 47.1882 18.8225Z" fill="white"/>
<path d="M65.7843 8.56252C65.4071 8.48708 65.0676 8.44936 64.6904 8.44936C63.2948 8.44936 61.9368 8.90201 60.6544 9.84501C60.2017 10.1468 59.7868 10.524 59.4096 10.9389C57.6744 12.7118 56.4297 15.3145 56.0147 18.1435C55.9393 18.5961 55.9016 19.0111 55.8639 19.4637C55.8639 19.6523 55.6753 19.8032 55.4867 19.7655C55.4112 19.7655 55.3735 19.7655 55.2981 19.7278C55.2603 19.7278 55.1849 19.7278 55.1472 19.7278C55.1095 19.7278 55.0717 19.7278 55.034 19.7278C54.9963 19.7278 54.9586 19.7278 54.9209 19.69C52.205 19.0865 49.6777 19.2374 46.8864 20.1804C46.8487 20.1804 46.811 20.2181 46.811 20.2181C46.7733 20.2181 46.3206 20.369 46.132 20.4067C46.0566 20.4067 46.0188 20.369 46.0188 20.3313C46.5846 12.9004 42.6994 5.95981 36.4756 4.0738C36.3624 4.03607 36.2493 3.99836 36.1361 3.99836C35.1554 3.73431 34.1746 3.58344 33.1562 3.58344C31.157 3.58344 29.1201 4.11152 27.2718 5.16769C23.6884 7.20459 21.048 10.9389 19.9541 15.3899C19.3128 18.0681 19.2751 20.7839 19.7655 23.3112C20.8216 28.6675 24.2165 33.1562 29.007 34.665C29.1956 34.7405 29.4219 34.7782 29.6105 34.8536C30.4026 34.7405 31.1947 34.665 31.9491 34.5519C32.2886 34.5141 32.5527 34.4764 32.7413 34.4764C33.043 34.4387 33.3071 34.4387 33.5711 34.4387C34.401 34.4764 35.1931 34.5141 35.9852 34.5519C36.7396 34.2878 37.4563 33.9861 38.173 33.5711C40.6625 32.1755 42.6994 29.9123 44.0574 27.1964C44.3214 27.121 44.5477 27.0078 44.8118 26.9323C45.0381 26.8569 45.3022 26.7815 45.5285 26.706C44.0574 30.1009 41.681 32.8545 38.7011 34.5519C38.5125 34.665 38.3616 34.7405 38.173 34.8159C41.9073 35.4194 44.4723 36.7396 45.8302 38.6634C46.6978 39.9459 46.8864 41.2284 46.811 42.1714C51.1865 42.1337 55.4489 41.9451 59.4096 41.6056C60.2394 38.0221 65.1054 35.0045 68.4625 33.0431C68.3116 32.1755 68.1607 31.3079 67.9721 30.4403C66.5387 31.4211 64.9922 31.9114 63.4457 31.9114C63.1062 31.9114 62.7667 31.8737 62.4272 31.836C62.5404 31.6851 62.6535 31.4965 62.729 31.3079C62.8044 31.1193 62.8798 30.9684 62.9553 30.7421C64.5018 30.8553 66.0484 30.4026 67.4817 29.3842C67.5572 29.3465 67.6326 29.271 67.7081 29.2333C69.9713 27.4982 71.631 24.4805 72.1591 21.1234C73.1775 15.0127 70.273 9.39237 65.7843 8.56252ZM43.4916 22.4436C43.0767 25.4235 42.3222 28.1017 37.8335 31.4588C36.3624 32.2886 34.7404 32.5904 33.0808 32.3641C28.2148 31.6474 24.9709 26.0271 25.8762 19.8032C26.7437 13.8811 31.0439 9.58097 35.6457 9.84501C40.8134 10.524 44.2837 17.0873 43.4916 22.4436ZM61.5596 30.4403C61.4842 30.6289 61.4088 30.7798 61.2956 30.9307C61.2579 30.9684 61.2202 31.0439 61.1824 31.0816C61.107 31.1947 60.9938 31.2702 60.8807 31.3833C60.0131 32.1 58.4288 32.515 55.7507 32.7036C53.7892 32.8544 47.2636 33.0808 46.9241 29.4596C46.811 28.4412 47.1882 27.385 47.9803 26.442C48.1312 26.2911 48.2821 26.1025 48.4329 25.9516C49.8663 24.5937 52.0541 23.7261 54.4682 23.5375C54.6568 23.5375 54.8454 23.5375 54.9963 23.4998C55.0717 23.4998 55.1095 23.4998 55.1849 23.4998C55.2981 23.4998 55.4489 23.4998 55.5621 23.4998C55.7507 23.4998 55.977 23.5375 56.1656 23.5375C57.0332 23.613 57.7876 23.8393 58.4288 24.141C59.1455 24.4805 59.7491 24.8954 60.2394 25.4235C60.6166 25.8385 60.9184 26.2911 61.1447 26.7437C61.4465 27.3473 61.5974 27.9885 61.6728 28.6298C61.786 29.4219 61.7482 29.9877 61.5596 30.4403ZM70.5748 21.7647C70.3108 23.6507 69.8958 25.3858 67.3686 27.4982C67.2554 27.6113 67.1045 27.7245 66.9914 27.7999C66.0484 28.328 65.0299 28.592 63.9737 28.4034C63.7097 28.3657 63.4457 28.2903 63.1816 28.1771C62.8799 26.1402 61.6351 24.141 59.4473 22.9717C59.2964 22.0287 59.2587 21.0102 59.4096 19.9541C59.7113 17.6154 60.8052 15.654 62.2386 14.4846C63.2571 13.6548 64.4264 13.2021 65.6334 13.2776C68.8774 13.7679 71.1029 18.1812 70.5748 21.7647Z" fill="white"/>
<path d="M68.1984 17.6909C69.0283 19.2751 68.802 20.9725 67.7458 21.5383C66.6896 22.1041 67.0291 20.5199 66.237 18.9356C65.4071 17.3514 63.7474 16.4084 64.8036 15.8426C65.8598 15.3145 67.3686 16.1443 68.1984 17.6909Z" fill="white" stroke="white" stroke-miterlimit="10"/>
</svg>
