<svg width="1666" height="390" viewBox="0 0 1666 390" fill="none" xmlns="http://www.w3.org/2000/svg">
<path d="M841.458 262.748H782.238C782.352 269.774 783.71 275.878 786.428 281.292C789.146 286.59 792.769 290.621 797.185 293.386C801.601 296.15 806.583 297.417 812.018 297.417C815.641 297.417 818.925 296.956 821.982 296.15C825.039 295.344 827.87 293.962 830.701 292.119C833.532 290.276 836.136 288.318 838.514 286.245C840.892 284.171 843.949 281.292 847.685 277.721C849.271 276.339 851.422 275.648 854.366 275.648C857.423 275.648 860.027 276.569 861.952 278.297C863.877 280.025 864.783 282.444 864.783 285.669C864.783 288.433 863.764 291.658 861.613 295.459C859.461 299.145 856.178 302.715 851.875 306.171C847.572 309.626 842.137 312.39 835.57 314.694C829.002 316.998 821.529 318.034 813.037 318.034C793.561 318.034 778.502 312.39 767.632 301.103C756.875 289.815 751.44 274.496 751.44 255.146C751.44 246.047 752.799 237.639 755.403 229.806C758.007 221.974 761.97 215.294 767.066 209.765C772.161 204.237 778.502 199.975 785.975 196.98C793.448 193.986 801.714 192.488 810.886 192.488C822.662 192.488 832.852 195.022 841.344 200.09C849.837 205.158 856.178 211.723 860.367 219.786C864.557 227.848 866.708 236.026 866.708 244.434C866.708 252.151 864.557 257.219 860.141 259.523C855.498 261.596 849.384 262.748 841.458 262.748ZM782.238 245.241H837.155C836.362 234.759 833.645 226.812 828.776 221.629C823.907 216.446 817.566 213.797 809.64 213.797C802.054 213.797 795.939 216.446 791.07 221.744C786.202 227.042 783.258 234.874 782.238 245.241Z" fill="white"/>
<path d="M891.961 299.146V165.538C891.961 159.318 893.32 154.711 896.038 151.601C898.755 148.491 902.265 146.764 906.908 146.764C911.55 146.764 915.173 148.376 918.004 151.486C920.835 154.596 922.194 159.318 922.194 165.538V299.146C922.194 305.366 920.722 310.088 917.891 313.198C915.06 316.308 911.324 317.921 906.908 317.921C902.492 317.921 898.868 316.308 896.038 313.083C893.207 309.858 891.961 305.136 891.961 299.146Z" fill="white"/>
<path d="M1060.84 123.763H1009.93V291.454C1009.93 301.096 1007.76 308.258 1003.5 312.941C999.233 317.624 993.614 319.965 986.844 319.965C979.938 319.965 974.319 317.624 969.918 312.872C965.585 308.12 963.419 301.027 963.419 291.454V123.763H912.508C904.519 123.763 898.629 122.042 894.77 118.461C890.911 114.948 888.948 110.265 888.948 104.549C888.948 98.558 890.979 93.875 894.973 90.3628C899.035 86.9194 904.858 85.1978 912.508 85.1978H1060.91C1068.97 85.1978 1074.99 86.9883 1078.92 90.5694C1082.84 94.1505 1084.81 98.8334 1084.81 104.549C1084.81 110.334 1082.84 114.948 1078.85 118.461C1074.79 122.042 1068.83 123.763 1060.84 123.763Z" fill="white"/>
<path d="M1210.32 238.078C1210.32 250.336 1208.42 261.63 1204.63 271.96C1200.84 282.29 1195.36 291.174 1188.11 298.612C1180.94 306.049 1172.34 311.696 1162.32 315.691C1152.3 319.685 1141.06 321.613 1128.6 321.613C1116.22 321.613 1105.04 319.616 1095.16 315.622C1085.28 311.628 1076.68 305.843 1069.43 298.405C1062.19 290.967 1056.71 282.084 1052.91 271.891C1049.19 261.699 1047.3 250.474 1047.3 238.078C1047.3 225.613 1049.19 214.25 1052.98 203.92C1056.77 193.59 1062.26 184.775 1069.37 177.406C1076.47 170.106 1085.07 164.459 1095.16 160.465C1105.25 156.47 1116.42 154.542 1128.6 154.542C1140.99 154.542 1152.23 156.539 1162.32 160.533C1172.41 164.528 1181.07 170.244 1188.25 177.681C1195.43 185.119 1200.91 193.934 1204.7 204.195C1208.42 214.456 1210.32 225.75 1210.32 238.078ZM1169.23 238.078C1169.23 221.343 1165.57 208.258 1158.19 198.961C1150.88 189.664 1140.99 184.981 1128.54 184.981C1120.55 184.981 1113.51 187.047 1107.35 191.248C1101.25 195.38 1096.58 201.578 1093.26 209.704C1089.95 217.831 1088.32 227.334 1088.32 238.147C1088.32 248.89 1089.95 258.256 1093.2 266.313C1096.45 274.371 1101.12 280.5 1107.14 284.769C1113.17 289.039 1120.34 291.174 1128.54 291.174C1140.93 291.174 1150.81 286.491 1158.19 277.125C1165.57 267.622 1169.23 254.675 1169.23 238.078Z" fill="white"/>
<path d="M1280.39 177.612V182.571C1288.11 173.067 1296.1 166.043 1304.36 161.566C1312.68 157.09 1322.03 154.886 1332.59 154.886C1345.18 154.886 1356.76 158.123 1367.39 164.665C1378.02 171.208 1386.34 180.711 1392.5 193.245C1398.66 205.779 1401.71 220.654 1401.71 237.802C1401.71 250.474 1399.95 262.043 1396.36 272.649C1392.77 283.254 1387.97 292.138 1381.74 299.3C1375.51 306.463 1368.2 311.972 1359.74 315.828C1351.27 319.685 1342.2 321.613 1332.52 321.613C1320.81 321.613 1310.99 319.272 1303.07 314.52C1295.15 309.837 1287.57 302.881 1280.32 293.722V355.427C1280.32 373.47 1273.76 382.492 1260.69 382.492C1252.97 382.492 1247.89 380.15 1245.39 375.467C1242.88 370.784 1241.67 364.035 1241.67 355.083V177.888C1241.67 170.037 1243.36 164.252 1246.74 160.327C1250.13 156.401 1254.8 154.542 1260.69 154.542C1266.51 154.542 1271.18 156.539 1274.84 160.465C1278.56 164.459 1280.39 170.175 1280.39 177.612ZM1360.62 237.32C1360.62 226.508 1358.99 217.211 1355.67 209.429C1352.36 201.647 1347.82 195.656 1341.93 191.524C1336.11 187.392 1329.61 185.257 1322.5 185.257C1311.19 185.257 1301.65 189.733 1293.93 198.617C1286.21 207.501 1282.29 220.654 1282.29 238.009C1282.29 254.33 1286.14 267.071 1293.86 276.161C1301.58 285.252 1311.13 289.797 1322.5 289.797C1329.27 289.797 1335.57 287.8 1341.39 283.874C1347.21 279.88 1351.81 273.957 1355.34 266.038C1358.86 258.187 1360.62 248.545 1360.62 237.32Z" fill="white"/>
<path d="M1469.87 302.744V199.665C1450.32 214.416 1437.16 221.732 1430.34 221.732C1427.11 221.732 1424.22 220.462 1421.76 217.923C1419.23 215.383 1418.03 212.482 1418.03 209.156C1418.03 205.287 1419.23 202.506 1421.76 200.692C1424.22 198.879 1428.58 196.521 1434.77 193.679C1444.06 189.387 1451.51 184.853 1457.14 180.076C1462.7 175.3 1467.69 169.98 1471.98 164.116C1476.27 158.251 1479.08 154.624 1480.42 153.233C1481.76 151.903 1484.22 151.178 1487.8 151.178C1491.88 151.178 1495.12 152.75 1497.65 155.833C1500.11 158.916 1501.38 163.209 1501.38 168.65V298.331C1501.38 313.506 1496.1 321.063 1485.55 321.063C1480.84 321.063 1477.11 319.491 1474.23 316.408C1471.28 313.324 1469.87 308.73 1469.87 302.744Z" fill="white"/>
<path d="M1660.26 236.664C1660.26 249.058 1659.35 259.759 1657.59 268.646C1655.83 277.594 1652.59 285.635 1647.81 292.95C1641.83 301.898 1634.1 308.73 1624.53 313.627C1615.04 318.463 1604.42 320.881 1592.81 320.881C1579.45 320.881 1567.42 317.617 1556.8 311.148C1546.18 304.618 1538.16 295.671 1532.81 284.123C1530.07 277.836 1528.1 270.883 1526.84 263.326C1525.57 255.708 1524.94 247.486 1524.94 238.659C1524.94 227.233 1525.64 216.955 1527.05 207.826C1528.45 198.697 1530.63 190.838 1533.66 184.248C1538.86 173.365 1546.39 165.083 1556.31 159.339C1566.22 153.656 1578.04 150.754 1591.75 150.754C1600.83 150.754 1609.06 152.024 1616.44 154.563C1623.83 157.102 1630.37 160.79 1635.92 165.687C1641.48 170.584 1646.26 176.57 1650.13 183.764C1656.88 196.158 1660.26 213.811 1660.26 236.664ZM1624.04 234.427C1624.04 220.583 1623.05 209.277 1621.15 200.45C1619.19 191.624 1615.95 184.973 1611.38 180.499C1606.81 176.026 1600.48 173.728 1592.32 173.728C1580.71 173.728 1572.62 178.746 1568.05 188.843C1563.48 198.878 1561.23 214.416 1561.23 235.334C1561.23 249.542 1562.21 261.21 1564.11 270.279C1566.01 279.347 1569.32 286.239 1573.89 290.895C1578.46 295.55 1584.65 297.847 1592.53 297.847C1600.62 297.847 1606.95 295.429 1611.59 290.592C1616.16 285.756 1619.4 278.864 1621.22 269.855C1623.12 260.787 1624.04 248.998 1624.04 234.427Z" fill="white"/>
<path d="M140.147 305.496L140.791 305.657L144.171 299.702C150.932 287.952 166.383 278.617 190.366 272.339L192.458 271.856L190.527 270.891C167.188 259.624 149.805 239.826 139.987 213.751L139.021 211.015L138.538 213.912C132.1 249.322 130.168 281.675 129.846 302.599V303.243L130.49 303.404C133.548 304.048 136.767 304.853 140.147 305.496Z" fill="white"/>
<path d="M141.594 197.655V197.816L142.399 201.196V201.035C151.573 234.514 172.98 258.819 202.918 269.281H203.079H203.24C221.589 265.579 239.778 263.969 250.723 263.165C252.815 263.004 254.585 262.843 256.195 262.682H256.356H256.678C264.082 262.843 271.325 263.326 278.246 263.969H278.568L278.729 263.808C297.561 252.702 313.496 233.227 323.797 208.922L323.958 208.842L324.119 208.278L324.924 207.956C327.135 207.514 332.012 203.562 334.114 202.721C324.778 227.187 307.701 250.449 289.513 263.808L287.904 264.935L289.835 265.257C318.646 269.764 338.444 279.582 348.584 294.39C355.988 305.174 356.632 316.119 355.827 323.363L355.667 324.328H356.632C393.974 324.167 430.994 322.075 466.727 318.212H467.371L468.497 313.061C472.038 296.644 487.007 279.582 514.531 261.072L515.014 260.75V260.267C514.692 257.853 514.37 255.278 514.048 252.863L513.887 251.898L512.921 252.22C504.874 255.6 496.504 257.209 488.134 257.209C484.915 257.209 481.696 257.048 478.477 256.404C470.429 255.117 462.703 252.381 455.621 248.035C456.104 247.713 456.747 247.23 457.23 246.908C457.391 246.747 457.552 246.586 457.713 246.425C457.874 246.264 457.874 246.264 458.035 246.103L459.001 245.298C459.645 244.655 460.289 244.172 460.771 243.528C466.727 246.747 473.004 249 479.603 249.966C482.662 250.449 485.559 250.61 488.617 250.61C496.343 250.61 504.069 249 511.473 245.942L512.439 245.459C537.387 234.514 554.77 207.634 561.369 169.649C570.222 108.002 539.64 70.0163 504.874 64.5437C483.949 61.1636 463.347 69.3725 448.056 86.7558L447.734 87.0777C447.573 87.2387 447.573 87.2387 447.412 87.3996L446.929 87.8825C435.179 101.886 427.131 120.879 423.107 144.378C422.786 146.954 422.464 149.69 422.142 152.587C421.176 152.426 420.049 152.104 419.084 151.943L418.118 151.782C417.474 151.621 416.83 151.46 416.186 151.3H415.864C416.186 148.402 416.508 145.827 416.83 143.413C421.176 118.142 430.19 97.7009 443.549 82.5709L444.032 82.088L443.549 81.6052C415.542 49.0919 396.389 39.4345 391.56 37.342L413.289 14.8081L350.516 25.2703L375.142 0L302.873 24.9483C290.64 25.5922 278.568 27.6846 267.301 30.9038L264.565 31.7085L267.301 32.5133C325.085 49.4138 344.078 105.105 342.629 151.621C340.314 151.654 338.144 152.413 336.191 153.392C338.122 108.002 320.578 54.4035 265.209 38.3078C262.311 37.503 259.253 36.6982 256.034 36.2153L253.298 35.7325H253.137C247.342 34.7667 241.87 34.2839 236.88 34.2839C185.857 34.2839 155.275 77.5813 143.686 117.981C136.282 144.7 135.477 172.868 141.594 197.655ZM284.684 92.3893C303.677 100.276 317.52 120.235 322.509 147.437C329.109 182.364 319.612 218.58 299.171 238.216L284.684 92.3893ZM190.686 163.532C196.802 120.074 227.706 87.3996 261.668 87.3996C262.472 87.3996 263.277 87.3996 264.082 87.3996L280.5 252.863C260.219 263.487 239.295 262.521 221.75 249.966C197.768 232.583 185.213 197.977 190.686 163.532ZM522.418 105.749C536.26 111.865 546.24 126.995 550.103 147.276C555.253 174.477 548.171 203.771 532.88 219.384L522.418 105.749ZM470.751 118.464L471.073 117.981C481.374 106.875 493.929 100.92 506.644 101.564L518.716 231.134C516.141 232.583 513.404 233.709 510.507 234.675L510.024 234.836C494.733 239.665 480.086 235.48 468.497 223.408C468.336 221.638 468.175 220.028 467.853 218.58C467.21 205.22 461.737 194.114 451.597 185.905C450.47 177.696 450.47 169.488 451.758 161.44C453.85 144.861 460.61 129.57 470.751 118.464ZM447.895 239.021C446.929 239.665 446.124 240.148 445.159 240.631L444.676 240.792C423.429 252.22 381.902 252.059 359.369 240.631C353.735 237.733 347.136 232.905 347.297 225.984V225.662V225.34C346.653 216.487 349.872 208.439 356.793 201.518L356.954 201.357C359.047 199.265 361.461 197.333 364.036 195.724C375.464 188.159 391.077 183.813 406.851 183.813C409.587 183.813 412.323 183.974 415.06 184.296H415.221C416.508 184.457 417.957 184.618 419.245 184.779L419.888 184.94C420.854 185.101 421.981 185.261 422.947 185.583L423.429 185.744C428.419 186.871 432.926 188.481 436.789 190.412C437.594 190.734 438.237 191.217 439.042 191.7C446.285 196.046 455.299 204.415 455.782 219.545L455.943 220.672C457.391 226.627 455.943 231.617 451.436 235.963L450.953 236.446C450.47 236.929 449.987 237.411 449.343 237.733C449.021 237.894 448.7 238.216 448.378 238.377C448.217 238.538 447.895 238.699 447.734 238.86L447.895 239.021Z" fill="white"/>
<path d="M212.577 333.503L212.416 331.893C212.255 329.8 212.094 327.869 211.933 326.259V325.616H211.289C181.673 322.075 154.471 317.407 130.489 311.773L129.523 311.612C85.5817 301.15 32.7878 282.962 28.6029 254.795C26.0276 237.894 41.9623 219.384 75.6023 200.069L74.9585 198.621C22.1646 220.833 -2.94466 243.367 0.274477 265.74C2.84979 284.089 25.3838 301.633 65.3011 316.441C102.804 330.283 153.827 341.228 212.577 347.828L213.542 347.989V347.023C213.06 342.516 212.899 338.17 212.577 333.503Z" fill="white"/>
<path d="M533.204 317.568L533.043 316.763L532.239 316.924C524.513 318.373 517.109 319.66 510.027 320.626C461.418 328.191 406.37 332.537 355.347 332.698H354.703V333.342C354.059 338.814 352.772 344.287 350.357 349.598V349.759C349.874 350.886 349.231 352.013 348.587 353.3L347.943 354.427H349.231C377.398 354.266 405.566 353.14 433.411 351.047C434.377 351.047 435.182 350.886 436.147 350.886L438.079 350.725C439.205 350.564 440.332 350.564 441.459 350.403L443.712 350.242C476.387 347.506 507.612 343.482 536.423 338.171L537.228 338.01L537.067 337.205C535.78 330.606 534.331 323.523 533.204 317.568Z" fill="white"/>
<path d="M686.759 262.521C685.149 243.85 661.811 225.018 617.708 206.668L617.064 208.117C641.047 222.12 654.728 235.48 658.108 248.034C659.718 254.151 658.913 260.267 655.533 265.901L655.372 266.383L655.533 266.866C660.362 275.236 662.454 282.962 661.167 288.274V288.435V288.595C661.489 291.332 661.65 294.068 661.65 296.965V298.414L662.937 297.609C679.677 286.503 687.885 274.592 686.759 262.521Z" fill="white"/>
<path d="M278.409 272.983L275.511 272.661H275.35C273.741 272.5 272.292 272.339 270.683 272.339H269.395C268.59 272.339 267.785 272.178 267.142 272.178H266.981C264.083 272.017 260.864 271.856 257.001 271.695L253.943 272.017C253.299 272.017 252.494 272.178 251.851 272.178C247.505 272.5 242.354 272.983 236.399 273.627H236.238C229.96 274.271 224.166 275.075 218.854 275.88H218.693L213.865 276.685H214.026C212.094 277.007 210.324 277.329 208.553 277.651H208.392L204.851 278.295H205.012C182.156 282.962 166.061 289.401 157.369 297.609L156.242 298.736L161.071 299.541C183.444 303.243 202.92 306.301 217.889 316.441H217.728L220.303 318.212L220.786 323.363C220.947 324.489 220.947 325.938 221.108 327.547V328.191C221.269 330.123 221.43 332.215 221.591 334.469V335.112C221.913 339.458 222.074 343.804 222.235 347.828V347.989C222.235 349.759 222.395 351.691 222.395 353.462C222.395 355.232 222.395 357.003 222.395 358.773C222.395 367.626 222.074 374.708 221.269 380.341L221.108 381.79L222.395 381.307C230.121 378.088 241.067 372.293 250.402 362.153L250.724 361.831C250.885 361.67 251.046 361.348 251.368 361.187L251.851 360.544C252.816 359.417 253.782 358.29 254.748 357.002L255.07 356.681L255.875 355.554C256.679 354.266 257.484 353.14 258.289 351.852L258.611 351.369C258.772 351.208 258.772 351.047 258.933 350.886L259.255 350.242C260.703 347.667 262.152 344.77 263.279 341.873L263.439 341.712C263.439 341.551 263.6 341.39 263.6 341.39L263.922 340.424C264.888 337.849 265.693 335.112 266.337 332.215L266.659 330.445C266.82 329.64 266.981 328.835 267.142 327.869L267.463 325.938C267.463 325.777 267.463 325.777 267.463 325.616L276.477 326.743C276.477 326.904 276.477 327.065 276.477 327.225L276.316 328.03C276.316 328.352 276.316 328.674 276.155 328.996C275.994 329.64 275.994 330.284 275.833 331.088L275.672 331.893C275.189 335.273 274.546 338.975 273.902 342.516C273.419 345.414 272.614 348.472 271.97 351.691L271.809 352.657C271.487 354.105 271.004 355.554 270.683 357.164C270.2 358.612 269.878 360.222 269.395 361.831L269.234 362.475C266.82 370.684 263.922 377.605 260.864 383.078L259.737 385.009L261.83 384.204C270.361 380.985 282.593 374.869 291.768 364.567L292.09 364.246C292.412 363.924 292.573 363.602 292.895 363.28L293.217 362.958C294.021 361.831 294.987 360.705 295.953 359.417L296.114 359.095L296.919 357.807C297.723 356.52 298.689 355.071 299.333 353.622L299.977 352.496C300.942 350.725 301.747 348.794 302.391 347.023L302.552 346.54C302.552 346.54 302.552 346.54 302.552 346.379L302.874 345.414C304.001 341.873 304.966 338.01 305.449 334.147L305.61 333.342C305.61 333.181 305.61 332.859 305.771 332.698C305.771 332.537 305.771 332.537 305.771 332.376L314.785 332.859C314.785 333.02 314.785 333.181 314.785 333.342C314.624 335.756 314.463 340.907 313.658 347.184V347.506C313.497 349.438 313.175 351.369 312.853 353.462C312.531 355.232 312.37 356.842 312.049 358.612C311.727 360.222 311.405 361.831 311.083 363.763C309.473 371.167 307.381 377.444 304.966 382.756L303.84 385.17L306.093 383.882C315.75 377.927 323.798 371.489 330.237 364.567L331.524 363.28C332.49 362.153 333.456 361.026 334.422 359.739L334.582 359.417C334.743 359.256 334.743 359.256 334.743 359.095L335.548 358.129C336.353 357.003 337.158 355.876 337.963 354.749L338.124 354.427L338.928 353.14C339.411 352.174 340.055 351.369 340.538 350.403C340.538 350.242 340.699 350.081 340.699 349.92L341.182 348.794C343.596 344.126 345.045 339.297 345.689 334.469L345.849 333.825L346.01 332.859C346.171 331.732 346.171 330.606 346.332 329.64V328.996L346.654 327.869C346.815 327.225 347.137 326.099 347.459 324.489L347.62 323.845C348.264 318.856 348.425 309.198 341.826 299.702C334.422 289.723 318.004 277.168 278.409 272.983Z" fill="white"/>
<path d="M651.993 287.308C651.993 286.825 651.832 280.709 649.739 275.558L649.578 275.236C649.578 275.075 649.578 275.075 649.417 274.914L648.935 273.948C648.452 272.822 647.808 271.695 647.003 270.568L646.681 270.085C646.52 269.924 646.359 269.603 646.198 269.442L646.037 269.281C645.394 268.315 644.911 267.51 644.267 266.705C644.106 266.544 644.106 266.383 643.945 266.222L643.301 265.418C641.37 262.842 639.116 260.267 636.541 257.853C624.147 246.103 596.785 229.202 552.039 248.517C550.268 249.644 548.176 250.771 546.083 252.058C537.874 256.887 526.929 263.325 515.984 271.051L514.857 271.856L514.535 272.178C496.669 284.893 485.563 296.321 480.252 307.105L479.608 308.554L481.217 308.232C484.759 307.588 488.139 306.784 491.358 306.14C498.923 304.53 506.649 302.921 515.179 302.277C517.755 302.116 520.33 301.955 522.583 301.955C526.929 301.955 531.436 302.277 536.104 302.76L539.323 303.082L539.967 306.14L540.128 307.105L541.093 311.29C541.254 312.417 541.576 313.544 541.898 314.831L542.059 315.314C542.059 315.475 542.059 315.475 542.059 315.636L542.22 316.441C543.186 320.948 544.474 327.708 545.761 335.273L546.083 336.722C546.244 338.009 546.566 339.297 546.727 340.745L546.888 341.55C547.049 342.999 547.371 344.448 547.532 345.896L547.693 346.701C549.302 357.163 550.107 366.016 550.429 372.937V374.546L551.717 373.42C558.96 367.142 568.939 356.197 575.216 339.78L575.699 338.331C576.182 337.043 576.665 335.756 576.987 334.468L577.148 333.985L577.631 332.698C577.953 331.41 578.275 330.283 578.596 328.996V328.835V328.674L578.918 327.386C580.367 321.109 581.011 314.188 581.172 307.105V306.462C581.172 305.979 581.172 305.657 581.172 305.174C581.172 304.369 581.172 303.725 581.172 302.921C581.172 302.277 581.172 301.633 581.011 300.989V300.184L585.518 299.862H586.644L590.024 299.701C590.024 300.667 590.185 301.633 590.185 302.599C590.185 302.76 590.185 303.082 590.185 303.243V304.369C590.346 309.198 590.507 316.119 590.346 324.328V324.972C590.346 326.42 590.346 327.869 590.185 329.318V329.961C590.185 331.571 590.024 333.341 590.024 335.112V335.273C589.22 348.471 587.771 359.577 585.357 368.108L584.713 370.523L586.644 368.913C595.98 361.509 608.051 348.471 613.524 328.835L613.685 328.513L614.007 327.064C614.329 325.937 614.49 324.811 614.812 323.523L614.973 323.04C614.973 322.718 615.134 322.396 615.134 321.914V321.592C615.295 320.626 615.456 319.66 615.617 318.694V318.212C615.617 318.212 615.617 318.212 615.617 318.051L615.777 316.924C616.421 311.451 616.582 305.818 616.099 300.023L625.113 299.058C625.435 301.311 625.918 306.784 626.401 313.705V313.866C626.401 314.992 626.562 316.119 626.562 317.407V317.729V317.89V319.016C626.562 320.143 626.723 321.431 626.723 322.557C627.205 336.561 626.401 348.471 624.63 357.968L623.986 361.026L625.918 358.612C634.448 348.471 645.554 332.215 650.061 313.222L650.222 312.9L650.544 311.29C650.705 310.164 651.027 309.037 651.188 308.071V307.749L651.349 306.14C651.51 305.335 651.671 304.369 651.671 303.564V303.082L651.832 301.633C652.315 296.643 651.993 287.952 651.993 287.308Z" fill="white"/>
<path d="M585.03 305.174H585.835H586.639H585.835L586.639 305.013V304.853H585.835H585.03C585.03 304.853 585.03 305.014 585.03 305.174Z" fill="white"/>
</svg>
