<svg width="222" height="53" viewBox="0 0 222 53" fill="none" xmlns="http://www.w3.org/2000/svg">
<path d="M112.227 35.1749H104.34C104.355 36.1106 104.536 36.9237 104.898 37.6447C105.26 38.3504 105.743 38.8873 106.331 39.2555C106.919 39.6236 107.582 39.7924 108.306 39.7924C108.789 39.7924 109.226 39.731 109.633 39.6236C110.041 39.5162 110.418 39.3322 110.795 39.0867C111.172 38.8413 111.519 38.5805 111.835 38.3043C112.152 38.0282 112.559 37.6447 113.057 37.1691C113.268 36.9851 113.554 36.893 113.947 36.893C114.354 36.893 114.701 37.0157 114.957 37.2458C115.213 37.476 115.334 37.7981 115.334 38.2276C115.334 38.5958 115.198 39.0253 114.912 39.5316C114.625 40.0225 114.188 40.498 113.615 40.9583C113.042 41.4185 112.318 41.7866 111.443 42.0935C110.568 42.4003 109.573 42.5383 108.442 42.5383C105.848 42.5383 103.842 41.7866 102.395 40.2833C100.962 38.7799 100.238 36.7396 100.238 34.1624C100.238 32.9505 100.419 31.8306 100.766 30.7875C101.113 29.7443 101.641 28.8546 102.319 28.1182C102.998 27.3819 103.842 26.8143 104.838 26.4154C105.833 26.0166 106.934 25.8171 108.155 25.8171C109.724 25.8171 111.081 26.1546 112.212 26.8296C113.343 27.5046 114.188 28.379 114.746 29.4528C115.304 30.5267 115.59 31.6159 115.59 32.7357C115.59 33.7635 115.304 34.4385 114.716 34.7453C114.097 35.0215 113.283 35.1749 112.227 35.1749ZM104.34 32.8431H111.654C111.549 31.4471 111.187 30.3886 110.538 29.6983C109.89 29.008 109.045 28.6551 107.99 28.6551C106.979 28.6551 106.165 29.008 105.516 29.7136C104.868 30.4193 104.476 31.4625 104.34 32.8431Z" fill="#5B418B"/>
<path d="M118.953 40.0227V22.2277C118.953 21.3993 119.134 20.7857 119.496 20.3715C119.858 19.9573 120.326 19.7272 120.944 19.7272C121.562 19.7272 122.045 19.9419 122.422 20.3561C122.799 20.7703 122.98 21.3993 122.98 22.2277V40.0227C122.98 40.8511 122.784 41.4801 122.407 41.8943C122.03 42.3085 121.532 42.5232 120.944 42.5232C120.356 42.5232 119.873 42.3085 119.496 41.8789C119.119 41.4494 118.953 40.8204 118.953 40.0227Z" fill="#5B418B"/>
<path d="M141.446 16.6638H134.666V38.9982C134.666 40.2823 134.377 41.2363 133.809 41.86C133.241 42.4837 132.492 42.7955 131.591 42.7955C130.671 42.7955 129.923 42.4837 129.337 41.8508C128.759 41.2179 128.471 40.2732 128.471 38.9982V16.6638H121.69C120.626 16.6638 119.842 16.4345 119.328 15.9575C118.814 15.4898 118.552 14.866 118.552 14.1047C118.552 13.3068 118.823 12.683 119.355 12.2153C119.896 11.7566 120.671 11.5273 121.69 11.5273H141.455C142.528 11.5273 143.331 11.7658 143.854 12.2428C144.377 12.7197 144.638 13.3435 144.638 14.1047C144.638 14.8752 144.377 15.4898 143.845 15.9575C143.304 16.4345 142.51 16.6638 141.446 16.6638Z" fill="#5B418B"/>
<path d="M161.356 31.8891C161.356 33.5218 161.103 35.026 160.598 36.4019C160.093 37.7777 159.363 38.9609 158.398 39.9515C157.442 40.9421 156.297 41.6943 154.963 42.2262C153.628 42.7582 152.131 43.0151 150.472 43.0151C148.822 43.0151 147.334 42.7491 146.018 42.2171C144.701 41.6851 143.556 40.9146 142.591 39.924C141.627 38.9334 140.896 37.7502 140.391 36.3927C139.895 35.0352 139.643 33.5401 139.643 31.8891C139.643 30.2289 139.895 28.7155 140.4 27.3397C140.905 25.9638 141.636 24.7898 142.582 23.8084C143.529 22.8361 144.674 22.084 146.018 21.552C147.361 21.02 148.849 20.7632 150.472 20.7632C152.122 20.7632 153.619 21.0292 154.963 21.5612C156.306 22.0932 157.46 22.8545 158.416 23.8451C159.372 24.8357 160.102 26.0097 160.607 27.3764C161.103 28.743 161.356 30.2473 161.356 31.8891ZM155.882 31.8891C155.882 29.6603 155.395 27.9175 154.413 26.6793C153.439 25.441 152.122 24.8173 150.463 24.8173C149.399 24.8173 148.461 25.0925 147.641 25.652C146.829 26.2023 146.207 27.0278 145.765 28.1102C145.324 29.1925 145.107 30.4583 145.107 31.8983C145.107 33.3292 145.324 34.5766 145.756 35.6497C146.189 36.7229 146.811 37.5392 147.614 38.1079C148.416 38.6766 149.372 38.9609 150.463 38.9609C152.113 38.9609 153.43 38.3372 154.413 37.0898C155.395 35.824 155.882 34.0996 155.882 31.8891Z" fill="#5B418B"/>
<path d="M170.688 23.8359V24.4963C171.716 23.2305 172.78 22.295 173.88 21.6988C174.989 21.1026 176.234 20.809 177.64 20.809C179.317 20.809 180.859 21.2401 182.275 22.1115C183.691 22.9829 184.8 24.2486 185.62 25.918C186.441 27.5873 186.847 29.5685 186.847 31.8524C186.847 33.5401 186.612 35.0811 186.134 36.4936C185.656 37.9061 185.016 39.0893 184.187 40.0433C183.357 40.9972 182.383 41.731 181.256 42.2446C180.129 42.7582 178.921 43.0151 177.631 43.0151C176.071 43.0151 174.764 42.7032 173.709 42.0703C172.654 41.4466 171.644 40.5202 170.679 39.3003V47.5186C170.679 49.9218 169.805 51.1233 168.064 51.1233C167.036 51.1233 166.36 50.8115 166.026 50.1878C165.693 49.5641 165.531 48.6652 165.531 47.4728V23.8726C165.531 22.8269 165.756 22.0565 166.207 21.5337C166.658 21.0108 167.28 20.7632 168.064 20.7632C168.84 20.7632 169.462 21.0292 169.949 21.552C170.445 22.084 170.688 22.8453 170.688 23.8359ZM181.373 31.7882C181.373 30.3482 181.157 29.1099 180.715 28.0735C180.273 27.037 179.669 26.239 178.885 25.6887C178.109 25.1383 177.244 24.854 176.297 24.854C174.791 24.854 173.52 25.4502 172.492 26.6334C171.464 27.8166 170.941 29.5685 170.941 31.88C170.941 34.0538 171.455 35.7506 172.483 36.9614C173.511 38.1721 174.782 38.7775 176.297 38.7775C177.198 38.7775 178.037 38.5115 178.813 37.9887C179.588 37.4567 180.201 36.6679 180.67 35.6131C181.139 34.5674 181.373 33.2833 181.373 31.7882Z" fill="#5B418B"/>
<path d="M195.924 40.5019V26.7729C193.319 28.7377 191.568 29.712 190.659 29.712C190.228 29.712 189.844 29.5429 189.516 29.2047C189.179 28.8665 189.02 28.48 189.02 28.0371C189.02 27.5218 189.179 27.1514 189.516 26.9098C189.844 26.6682 190.425 26.3542 191.249 25.9758C192.486 25.404 193.479 24.8001 194.228 24.164C194.968 23.5279 195.633 22.8193 196.205 22.0382C196.776 21.2572 197.151 20.774 197.329 20.5888C197.507 20.4117 197.835 20.3151 198.312 20.3151C198.856 20.3151 199.287 20.5244 199.624 20.9351C199.952 21.3457 200.12 21.9175 200.12 22.6421V39.9141C200.12 41.9352 199.418 42.9417 198.013 42.9417C197.385 42.9417 196.889 42.7324 196.504 42.3217C196.111 41.911 195.924 41.2991 195.924 40.5019Z" fill="#5B418B"/>
<path d="M221.282 31.7008C221.282 33.3515 221.16 34.7768 220.926 35.9604C220.692 37.1522 220.261 38.2231 219.624 39.1974C218.828 40.3892 217.797 41.2991 216.523 41.9513C215.258 42.5955 213.844 42.9175 212.298 42.9175C210.518 42.9175 208.917 42.4827 207.502 41.6211C206.088 40.7515 205.02 39.5598 204.308 38.0218C203.942 37.1844 203.68 36.2584 203.511 35.2519C203.343 34.2373 203.259 33.1422 203.259 31.9666C203.259 30.4447 203.352 29.0758 203.54 27.8599C203.727 26.6441 204.017 25.5973 204.42 24.7196C205.113 23.2702 206.116 22.167 207.437 21.4021C208.757 20.6452 210.331 20.2587 212.158 20.2587C213.366 20.2587 214.462 20.4278 215.446 20.766C216.429 21.1041 217.301 21.5953 218.041 22.2476C218.781 22.8998 219.418 23.697 219.933 24.6552C220.832 26.3059 221.282 28.6571 221.282 31.7008ZM216.458 31.4029C216.458 29.559 216.326 28.0532 216.073 26.8776C215.811 25.702 215.38 24.8162 214.771 24.2203C214.162 23.6245 213.319 23.3185 212.233 23.3185C210.687 23.3185 209.61 23.9868 209.001 25.3316C208.392 26.6682 208.092 28.7376 208.092 31.5237C208.092 33.416 208.223 34.97 208.476 36.1779C208.729 37.3857 209.17 38.3036 209.778 38.9237C210.387 39.5437 211.212 39.8497 212.261 39.8497C213.338 39.8497 214.181 39.5276 214.799 38.8834C215.408 38.2392 215.839 37.3213 216.083 36.1215C216.336 34.9137 216.458 33.3435 216.458 31.4029Z" fill="#5B418B"/>
<path d="M27.2538 43.3821C52.7221 48.3935 64.2782 45.4764 64.3904 45.4764C76.4327 45.1024 64.727 16.7919 64.727 16.7919C57.9579 6.43252 53.1709 4.7496 53.1709 4.7496L55.9384 1.86992L47.5986 3.25366L50.7774 0L41.6148 3.17886C16.6327 4.5626 18.727 43.3821 18.727 43.3821H27.2538Z" fill="#5B418B"/>
<path d="M19.9236 14.8472C22.1301 5.68457 30.2082 0.261798 37.8748 2.6179C45.5415 4.97399 49.9545 14.2862 47.7106 23.4488C45.5041 32.6114 37.4261 38.0342 29.7594 35.6781C22.0927 33.2472 17.7171 23.935 19.9236 14.8472Z" fill="white" stroke="#5B418B" stroke-width="1.11945" stroke-miterlimit="10"/>
<path d="M56.3868 17.8764C57.3592 11.5187 61.9966 7.06829 66.7462 7.92846C71.4958 8.78862 74.5624 14.6602 73.5901 21.0179C72.6177 27.3756 67.9803 31.826 63.2307 30.9659C58.4811 30.0683 55.4145 24.2341 56.3868 17.8764Z" fill="white" stroke="#5B418B" stroke-width="1.11945" stroke-miterlimit="10"/>
<path d="M66.9707 13.2016C64.0536 13.0147 61.3235 15.8569 60.8 19.8212C60.239 23.935 62.2585 27.6748 65.3252 28.161C66.3723 28.348 67.3821 28.0862 68.317 27.5626C71.1593 25.3187 71.6081 23.561 71.8699 21.5789C72.3935 18.026 70.1869 13.6504 66.9707 13.2016Z" fill="#5B418B"/>
<path d="M37.1267 9.23749C32.1901 8.9383 27.6275 13.5383 26.73 19.8586C25.7576 26.4781 29.1983 32.4993 34.3966 33.2846C36.1544 33.5464 37.8747 33.2098 39.4454 32.3123C44.195 28.722 45.0178 25.8798 45.4666 22.7009C46.2893 17.0164 42.5869 9.98546 37.1267 9.23749Z" fill="#5B418B"/>
<path d="M59.6031 19.9334C54.8535 18.9611 50.0665 19.0359 45.9901 20.831L45.8031 26.8895C50.3657 25.2066 55.2275 24.9074 60.3511 26.0293L59.6031 19.9334Z" fill="white"/>
<path d="M77.7789 23.7854C77.6667 24.122 77.5171 24.4586 77.3301 24.7578C84.4358 26.5903 88.2504 29.1334 88.2504 31.9382C88.2504 37.5854 69.813 42.148 47.0748 42.148C24.3366 42.148 5.89918 37.5854 5.89918 31.9382C5.89918 29.3204 7.13333 26.8895 13.0797 25.0569C12.9675 24.6456 12.8553 24.2342 12.7805 23.8228C4.14146 26.1789 1 29.7317 1 33.4342C1 40.4277 21.6065 46.1496 47 46.1496C72.4309 46.1496 93 40.4651 93 33.4342C93 29.5821 87.465 26.1041 77.7789 23.7854Z" fill="#5B418B" stroke="white" stroke-width="0.746302" stroke-miterlimit="10"/>
<path d="M29.348 41.6992C29.348 41.6992 30.0586 48.5057 29.2358 50.7122C29.2358 50.7122 36.0423 49.0666 36.7903 42.3349C36.7903 42.3349 35.7805 50.6374 33.0131 51.3853C33.0131 51.3853 41.2033 50.3008 41.8017 43.1951C41.8017 43.1951 41.5773 50.3008 38.922 51.7219C36.2667 53.1431 46.9627 49.5902 47.1496 42.9333C47.1496 42.9333 49.9545 35.0048 34.7334 34.6309C34.4716 34.6309 34.2472 34.6309 33.9854 34.6683C31.9285 34.93 22.0553 35.6406 20.2976 39.2683C24.0374 39.8666 27.1415 40.1658 29.348 41.6992Z" fill="#5B418B" stroke="white" stroke-width="1.11945" stroke-miterlimit="10"/>
<path d="M69.2522 40.5772C69.2522 40.5772 70.8229 48.0569 70.4115 50.7496C70.4115 50.7496 76.2456 47.4959 75.9091 39.6423C75.9091 39.6423 76.283 49.3659 73.9269 50.7496C73.9269 50.7496 81.1074 47.9073 80.5465 39.6423C80.5465 39.6423 81.444 47.8325 79.2749 50.0016C77.1058 52.1707 86.1562 46 85.296 38.2585C85.296 38.2585 85.4082 30.3675 74.1513 31.3398C73.179 31.4146 72.1692 31.7886 71.3091 32.2748C68.5042 33.9203 61.8473 37.3984 60.9497 41.3626C63.9416 40.9886 65.8489 40.0911 69.2522 40.5772Z" fill="#5B418B" stroke="white" stroke-width="1.11945" stroke-miterlimit="10"/>
<path d="M62.5952 28.7594C62.9318 32.0878 60.8749 33.2098 56.0131 33.5464C51.1513 33.9203 46.7757 32.9854 46.4765 29.6569C46.1399 26.3285 49.805 23.3366 54.6668 23C59.4912 22.6634 62.2586 25.4683 62.5952 28.7594Z" fill="#5B418B" stroke="white" stroke-width="1.11945" stroke-miterlimit="10"/>
<path d="M41.6148 16.3805C42.9611 19.1106 42.6993 21.9903 41.0538 22.813C39.3709 23.6358 39.8944 21.0179 38.5481 18.2878C37.2018 15.5578 34.4717 13.7626 36.1546 12.9399C37.8375 12.1171 40.2684 13.6504 41.6148 16.3805Z" fill="white" stroke="white" stroke-width="0.373151" stroke-miterlimit="10"/>
<path d="M69.3268 17.2033C70.1496 18.774 69.9252 20.4569 68.878 21.0179C67.8309 21.5789 68.1675 20.0081 67.3821 18.4374C66.5967 16.8667 64.9138 15.9317 65.961 15.3708C67.0081 14.8472 68.5414 15.6699 69.3268 17.2033Z" fill="white" stroke="white" stroke-width="0.373151" stroke-miterlimit="10"/>
</svg>
