<svg width="222" height="52" viewBox="0 0 222 52" fill="none" xmlns="http://www.w3.org/2000/svg">
<g clip-path="url(#clip0)">
<path d="M112.114 34.9948H104.227C104.242 35.9306 104.423 36.7436 104.785 37.4646C105.147 38.1703 105.629 38.7072 106.217 39.0754C106.806 39.4436 107.469 39.6123 108.193 39.6123C108.676 39.6123 109.113 39.551 109.52 39.4436C109.927 39.3362 110.304 39.1521 110.681 38.9067C111.058 38.6612 111.405 38.4004 111.722 38.1243C112.039 37.8482 112.446 37.4646 112.943 36.9891C113.155 36.805 113.441 36.713 113.833 36.713C114.24 36.713 114.587 36.8357 114.844 37.0658C115.1 37.2959 115.221 37.618 115.221 38.0476C115.221 38.4158 115.085 38.8453 114.798 39.3515C114.512 39.8424 114.075 40.318 113.501 40.7782C112.928 41.2384 112.205 41.6066 111.33 41.9134C110.455 42.2202 109.46 42.3583 108.329 42.3583C105.735 42.3583 103.729 41.6066 102.281 40.1032C100.849 38.5998 100.125 36.5596 100.125 33.9823C100.125 32.7704 100.306 31.6506 100.653 30.6074C100.999 29.5643 101.527 28.6745 102.206 27.9382C102.885 27.2018 103.729 26.6342 104.724 26.2354C105.72 25.8365 106.821 25.6371 108.042 25.6371C109.611 25.6371 110.968 25.9746 112.099 26.6496C113.23 27.3245 114.075 28.199 114.633 29.2728C115.191 30.3466 115.477 31.4358 115.477 32.5557C115.477 33.5835 115.191 34.2585 114.602 34.5653C113.984 34.8414 113.17 34.9948 112.114 34.9948ZM104.227 32.6631H111.541C111.435 31.2671 111.073 30.2086 110.425 29.5182C109.777 28.8279 108.932 28.4751 107.876 28.4751C106.866 28.4751 106.052 28.8279 105.403 29.5336C104.755 30.2392 104.362 31.2824 104.227 32.6631Z" fill="#5B418B"/>
<path d="M118.84 39.8427V22.0476C118.84 21.2192 119.021 20.6056 119.383 20.1914C119.745 19.7772 120.212 19.5471 120.831 19.5471C121.449 19.5471 121.932 19.7619 122.309 20.1761C122.686 20.5903 122.867 21.2192 122.867 22.0476V39.8427C122.867 40.671 122.671 41.3 122.294 41.7142C121.917 42.1284 121.419 42.3432 120.831 42.3432C120.243 42.3432 119.76 42.1284 119.383 41.6989C119.006 41.2693 118.84 40.6404 118.84 39.8427Z" fill="#5B418B"/>
<path d="M141.333 16.4837H134.552V38.8182C134.552 40.1023 134.264 41.0562 133.696 41.6799C133.128 42.3036 132.379 42.6155 131.478 42.6155C130.558 42.6155 129.809 42.3036 129.223 41.6707C128.646 41.0379 128.358 40.0931 128.358 38.8182V16.4837H121.577C120.513 16.4837 119.728 16.2544 119.214 15.7775C118.7 15.3097 118.439 14.686 118.439 13.9247C118.439 13.1267 118.709 12.503 119.241 12.0352C119.782 11.5766 120.558 11.3473 121.577 11.3473H141.342C142.415 11.3473 143.218 11.5858 143.741 12.0627C144.264 12.5397 144.525 13.1634 144.525 13.9247C144.525 14.6952 144.264 15.3097 143.732 15.7775C143.191 16.2544 142.397 16.4837 141.333 16.4837Z" fill="#5B418B"/>
<path d="M161.242 31.7091C161.242 33.3417 160.99 34.846 160.485 36.2218C159.98 37.5977 159.25 38.7809 158.285 39.7715C157.329 40.7621 156.184 41.5142 154.849 42.0462C153.515 42.5782 152.018 42.835 150.359 42.835C148.709 42.835 147.221 42.569 145.905 42.037C144.588 41.505 143.443 40.7346 142.478 39.744C141.513 38.7534 140.783 37.5701 140.278 36.2126C139.782 34.8552 139.53 33.3601 139.53 31.7091C139.53 30.0489 139.782 28.5355 140.287 27.1596C140.792 25.7838 141.522 24.6097 142.469 23.6283C143.416 22.6561 144.561 21.9039 145.905 21.3719C147.248 20.84 148.736 20.5831 150.359 20.5831C152.009 20.5831 153.506 20.8491 154.849 21.3811C156.193 21.9131 157.347 22.6744 158.303 23.665C159.259 24.6556 159.989 25.8297 160.494 27.1963C160.99 28.563 161.242 30.0672 161.242 31.7091ZM155.769 31.7091C155.769 29.4802 155.282 27.7375 154.299 26.4992C153.326 25.261 152.009 24.6373 150.35 24.6373C149.286 24.6373 148.348 24.9124 147.528 25.4719C146.716 26.0223 146.094 26.8478 145.652 27.9301C145.21 29.0124 144.994 30.2782 144.994 31.7182C144.994 33.1491 145.21 34.3965 145.643 35.4697C146.076 36.5428 146.698 37.3592 147.501 37.9279C148.303 38.4965 149.259 38.7809 150.35 38.7809C152 38.7809 153.316 38.1572 154.299 36.9097C155.282 35.644 155.769 33.9196 155.769 31.7091Z" fill="#5B418B"/>
<path d="M170.575 23.6558V24.3162C171.603 23.0505 172.667 22.1149 173.767 21.5187C174.876 20.9225 176.12 20.629 177.527 20.629C179.204 20.629 180.746 21.0601 182.162 21.9315C183.577 22.8028 184.687 24.0686 185.507 25.7379C186.328 27.4073 186.733 29.3885 186.733 31.6724C186.733 33.3601 186.499 34.901 186.021 36.3135C185.543 37.7261 184.903 38.9093 184.073 39.8632C183.244 40.8171 182.27 41.5509 181.143 42.0645C180.016 42.5782 178.807 42.835 177.518 42.835C175.958 42.835 174.651 42.5232 173.596 41.8903C172.541 41.2666 171.531 40.3402 170.566 39.1203V47.3386C170.566 49.7417 169.691 50.9433 167.951 50.9433C166.923 50.9433 166.247 50.6314 165.913 50.0077C165.58 49.384 165.417 48.4851 165.417 47.2927V23.6925C165.417 22.6469 165.643 21.8764 166.094 21.3536C166.544 20.8308 167.167 20.5831 167.951 20.5831C168.726 20.5831 169.349 20.8491 169.836 21.3719C170.331 21.9039 170.575 22.6652 170.575 23.6558ZM181.26 31.6082C181.26 30.1681 181.044 28.9299 180.602 27.8934C180.16 26.8569 179.556 26.059 178.771 25.5086C177.996 24.9583 177.13 24.674 176.184 24.674C174.678 24.674 173.406 25.2702 172.378 26.4534C171.35 27.6366 170.827 29.3885 170.827 31.6999C170.827 33.8737 171.341 35.5706 172.369 36.7813C173.397 37.9921 174.669 38.5974 176.184 38.5974C177.085 38.5974 177.924 38.3314 178.699 37.8086C179.475 37.2766 180.088 36.4878 180.557 35.433C181.026 34.3874 181.26 33.1033 181.26 31.6082Z" fill="#5B418B"/>
<path d="M195.81 40.3219V26.5929C193.206 28.5576 191.454 29.5319 190.546 29.5319C190.115 29.5319 189.731 29.3628 189.403 29.0246C189.066 28.6864 188.906 28.2999 188.906 27.8571C188.906 27.3417 189.066 26.9713 189.403 26.7298C189.731 26.4882 190.312 26.1742 191.136 25.7957C192.373 25.224 193.365 24.6201 194.115 23.984C194.855 23.3478 195.52 22.6392 196.091 21.8582C196.663 21.0771 197.038 20.594 197.216 20.4088C197.394 20.2316 197.721 20.135 198.199 20.135C198.742 20.135 199.173 20.3444 199.511 20.755C199.838 21.1657 200.007 21.7374 200.007 22.4621V39.734C200.007 41.7551 199.305 42.7617 197.899 42.7617C197.272 42.7617 196.775 42.5523 196.391 42.1417C195.998 41.731 195.81 41.119 195.81 40.3219Z" fill="#5B418B"/>
<path d="M221.169 31.5208C221.169 33.1715 221.047 34.5967 220.813 35.7804C220.578 36.9721 220.148 38.0431 219.511 39.0174C218.714 40.2091 217.684 41.119 216.41 41.7712C215.145 42.4154 213.731 42.7375 212.185 42.7375C210.405 42.7375 208.803 42.3027 207.389 41.4411C205.974 40.5714 204.906 39.3797 204.194 37.8418C203.829 37.0043 203.567 36.0783 203.398 35.0718C203.23 34.0572 203.145 32.9621 203.145 31.7865C203.145 30.2646 203.239 28.8958 203.426 27.6799C203.614 26.464 203.904 25.4172 204.307 24.5395C205 23.0901 206.002 21.987 207.323 21.222C208.644 20.4651 210.218 20.0786 212.045 20.0786C213.253 20.0786 214.349 20.2477 215.333 20.5859C216.316 20.9241 217.187 21.4153 217.927 22.0675C218.667 22.7197 219.304 23.5169 219.82 24.4751C220.719 26.1258 221.169 28.4771 221.169 31.5208ZM216.344 31.2228C216.344 29.3789 216.213 27.8731 215.96 26.6975C215.698 25.5219 215.267 24.6362 214.658 24.0403C214.049 23.4444 213.206 23.1384 212.119 23.1384C210.574 23.1384 209.497 23.8068 208.888 25.1515C208.279 26.4882 207.979 28.5576 207.979 31.3436C207.979 33.2359 208.11 34.79 208.363 35.9978C208.616 37.2056 209.056 38.1236 209.665 38.7436C210.274 39.3636 211.098 39.6696 212.148 39.6696C213.225 39.6696 214.068 39.3475 214.686 38.7033C215.295 38.0592 215.726 37.1412 215.97 35.9414C216.222 34.7336 216.344 33.1634 216.344 31.2228Z" fill="#5B418B"/>
</g>
<path d="M18.6657 40.6884L18.7515 40.7099L19.2016 39.9167C20.102 38.3518 22.16 37.1084 25.3542 36.2723L25.6329 36.208L25.3756 36.0794C22.2672 34.5787 19.952 31.9419 18.6443 28.4691L18.5156 28.1046L18.4513 28.4905C17.5938 33.2067 17.3366 37.5157 17.2937 40.3026V40.3883L17.3795 40.4097C17.7868 40.4955 18.2155 40.6027 18.6657 40.6884Z" fill="#5B418B"/>
<path d="M18.8586 26.3253V26.3467L18.9658 26.7969V26.7755C20.1878 31.2345 23.0389 34.4715 27.0263 35.865H27.0477H27.0692C29.5131 35.3719 31.9355 35.1575 33.3933 35.0503C33.6719 35.0289 33.9078 35.0075 34.1221 34.986H34.1436H34.1865C35.1726 35.0075 36.1373 35.0718 37.0591 35.1575H37.102L37.1234 35.1361C39.6316 33.6569 41.7539 31.063 43.1259 27.8259L43.1473 27.8152L43.1688 27.7402L43.276 27.6973C43.5705 27.6384 44.2201 27.1119 44.4999 27C43.2566 30.2585 40.9821 33.3568 38.5597 35.1361L38.3453 35.2862L38.6026 35.329C42.4399 35.9293 45.0767 37.237 46.4273 39.2092C47.4134 40.6455 47.4991 42.1033 47.392 43.068L47.3705 43.1966H47.4991C52.4727 43.1752 57.4033 42.8965 62.1624 42.382H62.2482L62.3982 41.696C62.8699 39.5094 64.8635 37.237 68.5294 34.7717L68.5937 34.7288V34.6645C68.5508 34.3429 68.5079 33.9999 68.465 33.6784L68.4436 33.5497L68.315 33.5926C67.2431 34.0428 66.1284 34.2572 65.0136 34.2572C64.5849 34.2572 64.1561 34.2357 63.7274 34.15C62.6555 33.9785 61.6265 33.614 60.6832 33.0352C60.7475 32.9924 60.8333 32.928 60.8976 32.8852C60.919 32.8637 60.9405 32.8423 60.9619 32.8209C60.9833 32.7994 60.9833 32.7994 61.0048 32.778L61.1334 32.6708C61.2192 32.585 61.3049 32.5207 61.3692 32.435C62.1624 32.8637 62.9985 33.1638 63.8774 33.2925C64.2847 33.3568 64.6706 33.3782 65.0779 33.3782C66.1069 33.3782 67.1359 33.1638 68.122 32.7565L68.2507 32.6922C71.5735 31.2345 73.8887 27.6544 74.7677 22.5952C75.9467 14.3846 71.8736 9.32532 67.2431 8.59645C64.4562 8.14626 61.7122 9.23958 59.6757 11.5548L59.6328 11.5977C59.6113 11.6191 59.6114 11.6191 59.5899 11.6406L59.5256 11.7049C57.9607 13.57 56.8888 16.0996 56.3528 19.2295C56.31 19.5725 56.2671 19.9369 56.2242 20.3228C56.0956 20.3013 55.9455 20.2585 55.8169 20.237L55.6883 20.2156C55.6025 20.1941 55.5168 20.1727 55.431 20.1513H55.3882C55.431 19.7654 55.4739 19.4224 55.5168 19.1008C56.0956 15.7351 57.2961 13.0126 59.0754 10.9975L59.1397 10.9331L59.0754 10.8688C55.3453 6.53845 52.7942 5.2522 52.1511 4.97351L55.0452 1.97225L46.6845 3.36569L49.9645 0L40.339 3.32282C38.7098 3.40857 37.1019 3.68726 35.6013 4.11601L35.2369 4.22319L35.6013 4.33038C43.2974 6.58132 45.827 13.9987 45.6341 20.1941C45.3258 20.1984 45.0368 20.2996 44.7766 20.43C45.0338 14.3846 42.6971 7.24589 35.3226 5.10213C34.9368 4.99495 34.5294 4.88775 34.1007 4.82344L33.7363 4.75913H33.7148C32.9431 4.63051 32.2142 4.5662 31.5496 4.5662C24.7539 4.5662 20.6808 10.3329 19.1373 15.7137C18.1512 19.2723 18.044 23.0239 18.8586 26.3253ZM37.9166 12.3051C40.4462 13.3556 42.2898 16.0138 42.9544 19.6368C43.8333 24.2887 42.5685 29.1122 39.846 31.7275L37.9166 12.3051ZM25.3971 21.7805C26.2117 15.9924 30.3277 11.6406 34.851 11.6406C34.9582 11.6406 35.0654 11.6406 35.1726 11.6406L37.3592 33.6784C34.6581 35.0932 31.8712 34.9646 29.5345 33.2925C26.3403 30.9772 24.6682 26.3682 25.3971 21.7805ZM69.5798 14.0845C71.4234 14.8991 72.7526 16.9142 73.2671 19.6153C73.9531 23.2383 73.0098 27.1399 70.9732 29.2193L69.5798 14.0845ZM62.6984 15.778L62.7412 15.7137C64.1132 14.2345 65.7854 13.4413 67.4789 13.5271L69.0867 30.7843C68.7437 30.9772 68.3793 31.1273 67.9934 31.2559L67.9291 31.2773C65.8925 31.9205 63.9417 31.3631 62.3982 29.7553C62.3768 29.5195 62.3553 29.3051 62.3125 29.1122C62.2267 27.3328 61.4978 25.8537 60.1473 24.7603C59.9972 23.667 59.9972 22.5737 60.1687 21.5018C60.4474 19.2938 61.3478 17.2572 62.6984 15.778ZM59.6542 31.8347C59.5256 31.9205 59.4184 31.9848 59.2898 32.0491L59.2255 32.0705C56.3957 33.5926 50.8648 33.5712 47.8636 32.0491C47.1133 31.6632 46.2343 31.0201 46.2558 30.0983V30.0554V30.0125C46.17 28.8335 46.5988 27.7616 47.5206 26.8398L47.542 26.8183C47.8207 26.5397 48.1423 26.2824 48.4853 26.068C50.0073 25.0605 52.0868 24.4817 54.1877 24.4817C54.5521 24.4817 54.9165 24.5031 55.281 24.546H55.3024C55.4739 24.5674 55.6668 24.5888 55.8383 24.6103L55.9241 24.6317C56.0527 24.6532 56.2028 24.6746 56.3314 24.7175L56.3957 24.7389C57.0603 24.889 57.6605 25.1033 58.175 25.3606C58.2822 25.4035 58.368 25.4678 58.4752 25.5321C59.4398 26.1109 60.6403 27.2257 60.7047 29.2408L60.7261 29.3909C60.919 30.184 60.7261 30.8486 60.1259 31.4274L60.0615 31.4917C59.9972 31.556 59.9329 31.6203 59.8472 31.6632C59.8043 31.6847 59.7614 31.7275 59.7185 31.749C59.6971 31.7704 59.6542 31.7919 59.6328 31.8133L59.6542 31.8347Z" fill="#5B418B"/>
<path d="M28.3126 44.4186L28.2912 44.2042C28.2698 43.9255 28.2483 43.6682 28.2269 43.4539V43.3681H28.1412C24.1966 42.8965 20.5737 42.2748 17.3795 41.5245L17.2509 41.5031C11.3984 40.1096 4.36694 37.6872 3.80956 33.9356C3.46656 31.6847 5.58887 29.2194 10.0693 26.6469L9.98357 26.4539C2.95206 29.4123 -0.392193 32.4136 0.036557 35.3934C0.379557 37.8372 3.38081 40.1739 8.69732 42.1462C13.6923 43.9898 20.488 45.4476 28.3126 46.3265L28.4413 46.3479V46.2193C28.377 45.6191 28.3555 45.0402 28.3126 44.4186Z" fill="#5B418B"/>
<path d="M71.0161 42.2962L70.9947 42.189L70.8875 42.2105C69.8585 42.4034 68.8724 42.5749 67.9291 42.7035C61.455 43.7111 54.1234 44.2899 47.3277 44.3113H47.2419V44.3971C47.1562 45.126 46.9847 45.8548 46.6631 46.5623V46.5837C46.5988 46.7338 46.5131 46.8838 46.4273 47.0553L46.3416 47.2054H46.5131C50.2646 47.184 54.0162 47.0339 57.7249 46.7552C57.8535 46.7552 57.9607 46.7338 58.0893 46.7338L58.3466 46.7124C58.4966 46.6909 58.6467 46.6909 58.7968 46.6695L59.0969 46.648C63.4487 46.2836 67.6076 45.7477 71.4449 45.0402L71.5521 45.0188L71.5306 44.9116C71.3591 44.0327 71.1662 43.0894 71.0161 42.2962Z" fill="#5B418B"/>
<path d="M91.4675 34.9646C91.2531 32.4778 88.1447 29.9696 82.2708 27.5258L82.1851 27.7187C85.3792 29.5838 87.2014 31.3631 87.6516 33.0352C87.866 33.8498 87.7588 34.6644 87.3086 35.4148L87.2872 35.4791L87.3086 35.5434C87.9518 36.6581 88.2304 37.6871 88.0589 38.3946V38.416V38.4374C88.1018 38.8019 88.1233 39.1663 88.1233 39.5522V39.7451L88.2948 39.638C90.5243 38.1588 91.6176 36.5724 91.4675 34.9646Z" fill="#5B418B"/>
<path d="M37.0807 36.358L36.6948 36.3152H36.6733C36.459 36.2937 36.266 36.2723 36.0516 36.2723H35.8801C35.773 36.2723 35.6658 36.2508 35.58 36.2508H35.5586C35.1727 36.2294 34.744 36.208 34.2295 36.1865L33.8221 36.2294C33.7364 36.2294 33.6292 36.2508 33.5435 36.2508C32.9647 36.2937 32.2786 36.358 31.4855 36.4438H31.464C30.628 36.5295 29.8562 36.6367 29.1488 36.7439H29.1273L28.4842 36.8511H28.5056C28.2484 36.894 28.0126 36.9368 27.7768 36.9797H27.7553L27.2837 37.0655H27.3051C24.261 37.6872 22.1173 38.5447 20.9596 39.638L20.8096 39.788L21.4527 39.8952C24.4325 40.3883 27.0264 40.7956 29.0201 42.1462H28.9987L29.3417 42.382L29.406 43.068C29.4274 43.218 29.4275 43.411 29.4489 43.6253V43.7111C29.4703 43.9684 29.4918 44.247 29.5132 44.5472V44.6329C29.5561 45.2117 29.5775 45.7905 29.599 46.3265V46.3479C29.599 46.5837 29.6204 46.841 29.6204 47.0768C29.6204 47.3126 29.6204 47.5484 29.6204 47.7842C29.6204 48.9633 29.5775 49.9065 29.4703 50.6568L29.4489 50.8498L29.6204 50.7855C30.6494 50.3567 32.1071 49.585 33.3505 48.2344L33.3934 48.1915C33.4148 48.1701 33.4363 48.1272 33.4791 48.1058L33.5435 48.02C33.6721 47.87 33.8007 47.7199 33.9293 47.5484L33.9722 47.5055L34.0794 47.3555C34.1866 47.184 34.2938 47.0339 34.401 46.8624L34.4438 46.7981C34.4653 46.7767 34.4653 46.7552 34.4867 46.7338L34.5296 46.648C34.7225 46.305 34.9155 45.9192 35.0655 45.5333L35.087 45.5118C35.087 45.4904 35.1084 45.469 35.1084 45.469L35.1513 45.3403C35.2799 44.9973 35.3871 44.6329 35.4728 44.247L35.5157 44.0112C35.5371 43.904 35.5586 43.7968 35.58 43.6682L35.6229 43.411C35.6229 43.3895 35.6229 43.3895 35.6229 43.3681L36.8234 43.5182C36.8234 43.5396 36.8234 43.561 36.8234 43.5825L36.802 43.6897C36.802 43.7325 36.802 43.7754 36.7805 43.8183C36.7591 43.904 36.7591 43.9898 36.7376 44.097L36.7162 44.2042C36.6519 44.6543 36.5661 45.1474 36.4804 45.619C36.4161 46.0049 36.3089 46.4122 36.2232 46.841L36.2017 46.9696C36.1588 47.1625 36.0945 47.3555 36.0516 47.5699C35.9873 47.7628 35.9445 47.9772 35.8801 48.1915L35.8587 48.2773C35.5372 49.3706 35.1513 50.2924 34.744 51.0213L34.5939 51.2785L34.8726 51.1714C36.0088 50.7426 37.638 49.928 38.86 48.556L38.9028 48.5131C38.9457 48.4702 38.9672 48.4274 39.01 48.3845L39.0529 48.3416C39.1601 48.1915 39.2887 48.0415 39.4173 47.87L39.4388 47.8271L39.546 47.6556C39.6532 47.4841 39.7818 47.2912 39.8675 47.0982L39.9533 46.9482C40.0819 46.7123 40.1891 46.4551 40.2748 46.2193L40.2963 46.155C40.2963 46.155 40.2963 46.155 40.2963 46.1335L40.3391 46.0049C40.4892 45.5333 40.6178 45.0188 40.6822 44.5043L40.7036 44.3971C40.7036 44.3757 40.7036 44.3328 40.725 44.3113C40.725 44.2899 40.725 44.2899 40.725 44.2685L41.9255 44.3328C41.9255 44.3542 41.9255 44.3757 41.9255 44.3971C41.9041 44.7187 41.8827 45.4047 41.7755 46.2407V46.2836C41.754 46.5409 41.7112 46.7981 41.6683 47.0768C41.6254 47.3126 41.604 47.527 41.5611 47.7628C41.5182 47.9772 41.4753 48.1915 41.4325 48.4488C41.2181 49.4349 40.9394 50.271 40.6178 50.9784L40.4678 51.3L40.7679 51.1285C42.0541 50.3353 43.126 49.4778 43.9835 48.556L44.155 48.3845C44.2837 48.2344 44.4123 48.0844 44.5409 47.9129L44.5623 47.87C44.5838 47.8485 44.5838 47.8485 44.5838 47.8271L44.691 47.6985C44.7982 47.5484 44.9054 47.3984 45.0125 47.2483L45.034 47.2054L45.1412 47.0339C45.2055 46.9053 45.2912 46.7981 45.3555 46.6695C45.3555 46.648 45.377 46.6266 45.377 46.6052L45.4413 46.4551C45.7629 45.8334 45.9558 45.1903 46.0415 44.5472L46.063 44.4614L46.0844 44.3328C46.1059 44.1827 46.1058 44.0327 46.1273 43.904V43.8183L46.1702 43.6682C46.1916 43.5825 46.2345 43.4324 46.2773 43.218L46.2988 43.1323C46.3845 42.4677 46.406 41.1815 45.527 39.9167C44.5409 38.5875 42.3543 36.9154 37.0807 36.358Z" fill="#5B418B"/>
<path d="M86.837 38.266C86.837 38.2016 86.8156 37.387 86.5369 36.701L86.5155 36.6581C86.5155 36.6367 86.5155 36.6367 86.494 36.6153L86.4297 36.4867C86.3654 36.3366 86.2797 36.1865 86.1725 36.0365L86.1296 35.9721C86.1082 35.9507 86.0867 35.9078 86.0653 35.8864L86.0438 35.865C85.9581 35.7363 85.8938 35.6291 85.808 35.522C85.7866 35.5005 85.7866 35.4791 85.7651 35.4577L85.6794 35.3505C85.4221 35.0075 85.122 34.6645 84.779 34.3429C83.1283 32.778 79.484 30.527 73.5243 33.0995C73.2885 33.2496 73.0098 33.3997 72.7311 33.5712C71.6378 34.2143 70.1801 35.0718 68.7223 36.1008L68.5723 36.208L68.5294 36.2508C66.1498 37.9444 64.6706 39.4665 63.9632 40.9028L63.8774 41.0957L64.0918 41.0528C64.5634 40.9671 65.0136 40.8599 65.4424 40.7742C66.4499 40.5598 67.4789 40.3454 68.6151 40.2597C68.9581 40.2382 69.3011 40.2168 69.6012 40.2168C70.1801 40.2168 70.7803 40.2597 71.402 40.324L71.8308 40.3668L71.9165 40.7742L71.9379 40.9028L72.0666 41.4602C72.088 41.6102 72.1309 41.7603 72.1738 41.9318L72.1952 41.9961C72.1952 42.0175 72.1952 42.0175 72.1952 42.039L72.2166 42.1462C72.3453 42.7464 72.5168 43.6468 72.6883 44.6543L72.7311 44.8473C72.7526 45.0188 72.7954 45.1903 72.8169 45.3832L72.8383 45.4904C72.8598 45.6833 72.9026 45.8763 72.9241 46.0692L72.9455 46.1764C73.1599 47.5699 73.2671 48.7489 73.31 49.6707V49.8851L73.4814 49.735C74.4461 48.899 75.7753 47.4412 76.6113 45.2546L76.6756 45.0617C76.7399 44.8902 76.8043 44.7187 76.8471 44.5472L76.8686 44.4828L76.9329 44.3113C76.9758 44.1398 77.0186 43.9898 77.0615 43.8183V43.7968V43.7754L77.1044 43.6039C77.2973 42.7678 77.3831 41.846 77.4045 40.9028V40.817C77.4045 40.7527 77.4045 40.7098 77.4045 40.6455C77.4045 40.5383 77.4045 40.4526 77.4045 40.3454C77.4045 40.2597 77.4045 40.1739 77.3831 40.0882V39.981L77.9833 39.9381H78.1334L78.5836 39.9167C78.5836 40.0453 78.605 40.1739 78.605 40.3025C78.605 40.324 78.605 40.3668 78.605 40.3883V40.5383C78.6264 41.1815 78.6479 42.1033 78.6265 43.1966V43.2823C78.6265 43.4753 78.6264 43.6682 78.605 43.8612V43.9469C78.605 44.1613 78.5836 44.3971 78.5836 44.6329V44.6543C78.4764 46.4122 78.2834 47.8914 77.9619 49.0276L77.8761 49.3492L78.1334 49.1348C79.3768 48.1487 80.9846 46.4122 81.7134 43.7968L81.7349 43.754L81.7778 43.561C81.8206 43.411 81.8421 43.2609 81.885 43.0894L81.9064 43.0251C81.9064 42.9822 81.9278 42.9393 81.9278 42.875V42.8322C81.9493 42.7035 81.9707 42.5749 81.9921 42.4463V42.382C81.9921 42.382 81.9921 42.382 81.9921 42.3605L82.0136 42.2105C82.0993 41.4816 82.1208 40.7313 82.0565 39.9595L83.257 39.8309C83.2998 40.131 83.3641 40.8599 83.4285 41.7817V41.8032C83.4285 41.9532 83.4499 42.1033 83.4499 42.2748V42.3177V42.3391V42.4892C83.4499 42.6392 83.4713 42.8107 83.4713 42.9608C83.5356 44.8258 83.4285 46.4122 83.1926 47.677L83.1069 48.0843L83.3641 47.7628C84.5003 46.4122 85.9795 44.247 86.5798 41.7174L86.6012 41.6745L86.6441 41.4602C86.6655 41.3101 86.7084 41.16 86.7298 41.0314V40.9885L86.7513 40.7742C86.7727 40.667 86.7941 40.5383 86.7941 40.4312V40.3668L86.8156 40.1739C86.8799 39.5093 86.837 38.3517 86.837 38.266Z" fill="#5B418B"/>
<path d="M77.9189 40.6455H78.0261H78.1333H78.0261L78.1333 40.6241V40.6027H78.0261H77.9189C77.9189 40.6027 77.9189 40.6241 77.9189 40.6455Z" fill="#5B418B"/>
<defs>
<clipPath id="clip0">
<rect x="99.8867" y="10.8199" width="122" height="41" fill="white"/>
</clipPath>
</defs>
</svg>
