<svg width="227" height="53" viewBox="0 0 227 53" fill="none" xmlns="http://www.w3.org/2000/svg">
<path d="M117.227 35.9948H109.34C109.355 36.9306 109.536 37.7436 109.898 38.4646C110.26 39.1703 110.743 39.7072 111.331 40.0754C111.919 40.4436 112.582 40.6123 113.306 40.6123C113.789 40.6123 114.226 40.551 114.633 40.4436C115.041 40.3362 115.418 40.1521 115.795 39.9067C116.172 39.6612 116.519 39.4004 116.835 39.1243C117.152 38.8482 117.559 38.4646 118.057 37.9891C118.268 37.805 118.554 37.713 118.947 37.713C119.354 37.713 119.701 37.8357 119.957 38.0658C120.213 38.2959 120.334 38.618 120.334 39.0476C120.334 39.4158 120.198 39.8453 119.912 40.3515C119.625 40.8424 119.188 41.318 118.615 41.7782C118.042 42.2384 117.318 42.6066 116.443 42.9134C115.568 43.2202 114.573 43.3583 113.442 43.3583C110.848 43.3583 108.842 42.6066 107.395 41.1032C105.962 39.5998 105.238 37.5596 105.238 34.9823C105.238 33.7704 105.419 32.6506 105.766 31.6074C106.113 30.5643 106.641 29.6745 107.319 28.9382C107.998 28.2018 108.842 27.6342 109.838 27.2354C110.833 26.8365 111.934 26.6371 113.156 26.6371C114.724 26.6371 116.081 26.9746 117.212 27.6496C118.343 28.3245 119.188 29.199 119.746 30.2728C120.304 31.3466 120.59 32.4358 120.59 33.5557C120.59 34.5835 120.304 35.2585 119.716 35.5653C119.097 35.8414 118.283 35.9948 117.227 35.9948ZM109.34 33.6631H116.654C116.549 32.2671 116.187 31.2086 115.538 30.5182C114.89 29.8279 114.045 29.4751 112.99 29.4751C111.979 29.4751 111.165 29.8279 110.516 30.5336C109.868 31.2392 109.476 32.2824 109.34 33.6631Z" fill="#6D538F"/>
<path d="M123.953 40.8427V23.0476C123.953 22.2192 124.134 21.6056 124.496 21.1914C124.858 20.7772 125.326 20.5471 125.944 20.5471C126.562 20.5471 127.045 20.7619 127.422 21.1761C127.799 21.5903 127.98 22.2192 127.98 23.0476V40.8427C127.98 41.671 127.784 42.3 127.407 42.7142C127.03 43.1284 126.532 43.3432 125.944 43.3432C125.356 43.3432 124.873 43.1284 124.496 42.6989C124.119 42.2693 123.953 41.6404 123.953 40.8427Z" fill="#6D538F"/>
<path d="M146.446 17.4838H139.666V39.8182C139.666 41.1023 139.377 42.0562 138.809 42.6799C138.241 43.3036 137.492 43.6155 136.591 43.6155C135.671 43.6155 134.923 43.3036 134.336 42.6707C133.759 42.0379 133.471 41.0931 133.471 39.8182V17.4838H126.69C125.626 17.4838 124.842 17.2544 124.328 16.7775C123.814 16.3097 123.552 15.686 123.552 14.9247C123.552 14.1267 123.823 13.503 124.355 13.0352C124.896 12.5766 125.671 12.3473 126.69 12.3473H146.455C147.528 12.3473 148.331 12.5858 148.854 13.0627C149.377 13.5397 149.638 14.1634 149.638 14.9247C149.638 15.6952 149.377 16.3097 148.845 16.7775C148.304 17.2544 147.51 17.4838 146.446 17.4838Z" fill="#6D538F"/>
<path d="M166.356 32.7091C166.356 34.3417 166.103 35.846 165.598 37.2218C165.093 38.5977 164.363 39.7809 163.398 40.7715C162.442 41.7621 161.297 42.5142 159.963 43.0462C158.628 43.5782 157.131 43.835 155.472 43.835C153.822 43.835 152.334 43.569 151.018 43.037C149.701 42.505 148.556 41.7346 147.591 40.744C146.627 39.7534 145.896 38.5701 145.391 37.2126C144.895 35.8552 144.643 34.3601 144.643 32.7091C144.643 31.0489 144.895 29.5355 145.4 28.1596C145.905 26.7838 146.636 25.6097 147.582 24.6283C148.529 23.6561 149.674 22.9039 151.018 22.3719C152.361 21.84 153.849 21.5831 155.472 21.5831C157.122 21.5831 158.619 21.8491 159.963 22.3811C161.306 22.9131 162.46 23.6744 163.416 24.665C164.372 25.6556 165.102 26.8297 165.607 28.1963C166.103 29.563 166.356 31.0672 166.356 32.7091ZM160.882 32.7091C160.882 30.4802 160.395 28.7375 159.413 27.4992C158.439 26.261 157.122 25.6373 155.463 25.6373C154.399 25.6373 153.461 25.9124 152.641 26.4719C151.829 27.0223 151.207 27.8478 150.765 28.9301C150.324 30.0124 150.107 31.2782 150.107 32.7182C150.107 34.1491 150.324 35.3965 150.756 36.4697C151.189 37.5428 151.811 38.3592 152.614 38.9279C153.416 39.4965 154.372 39.7809 155.463 39.7809C157.113 39.7809 158.43 39.1572 159.413 37.9097C160.395 36.644 160.882 34.9196 160.882 32.7091Z" fill="#6D538F"/>
<path d="M175.688 24.6558V25.3162C176.716 24.0505 177.78 23.1149 178.88 22.5187C179.989 21.9225 181.234 21.629 182.64 21.629C184.318 21.629 185.859 22.0601 187.275 22.9315C188.691 23.8028 189.8 25.0686 190.62 26.7379C191.441 28.4073 191.847 30.3885 191.847 32.6724C191.847 34.3601 191.612 35.901 191.134 37.3135C190.656 38.7261 190.016 39.9093 189.187 40.8632C188.357 41.8171 187.383 42.5509 186.256 43.0645C185.129 43.5782 183.921 43.835 182.631 43.835C181.071 43.835 179.764 43.5232 178.709 42.8903C177.654 42.2666 176.644 41.3402 175.679 40.1203V48.3386C175.679 50.7417 174.805 51.9433 173.064 51.9433C172.036 51.9433 171.36 51.6314 171.027 51.0077C170.693 50.384 170.531 49.4851 170.531 48.2927V24.6925C170.531 23.6469 170.756 22.8764 171.207 22.3536C171.658 21.8308 172.28 21.5831 173.064 21.5831C173.84 21.5831 174.462 21.8491 174.949 22.3719C175.445 22.9039 175.688 23.6652 175.688 24.6558ZM186.373 32.6082C186.373 31.1681 186.157 29.9299 185.715 28.8934C185.273 27.8569 184.669 27.059 183.885 26.5086C183.109 25.9583 182.244 25.674 181.297 25.674C179.791 25.674 178.52 26.2702 177.492 27.4534C176.464 28.6366 175.941 30.3885 175.941 32.6999C175.941 34.8737 176.455 36.5706 177.483 37.7813C178.511 38.9921 179.782 39.5974 181.297 39.5974C182.199 39.5974 183.037 39.3314 183.813 38.8086C184.588 38.2766 185.201 37.4878 185.67 36.433C186.139 35.3874 186.373 34.1033 186.373 32.6082Z" fill="#6D538F"/>
<path d="M200.924 41.3219V27.5929C198.32 29.5576 196.568 30.5319 195.659 30.5319C195.228 30.5319 194.844 30.3628 194.516 30.0246C194.179 29.6864 194.02 29.2999 194.02 28.8571C194.02 28.3417 194.179 27.9713 194.516 27.7298C194.844 27.4882 195.425 27.1742 196.249 26.7957C197.486 26.224 198.479 25.6201 199.228 24.984C199.968 24.3478 200.633 23.6392 201.205 22.8582C201.776 22.0771 202.151 21.594 202.329 21.4088C202.507 21.2316 202.835 21.135 203.313 21.135C203.856 21.135 204.287 21.3444 204.624 21.755C204.952 22.1657 205.121 22.7374 205.121 23.4621V40.734C205.121 42.7551 204.418 43.7617 203.013 43.7617C202.385 43.7617 201.889 43.5523 201.505 43.1417C201.111 42.731 200.924 42.119 200.924 41.3219Z" fill="#6D538F"/>
<path d="M226.282 32.5208C226.282 34.1715 226.16 35.5967 225.926 36.7804C225.692 37.9721 225.261 39.0431 224.624 40.0174C223.828 41.2091 222.797 42.119 221.523 42.7712C220.258 43.4154 218.844 43.7375 217.298 43.7375C215.518 43.7375 213.917 43.3027 212.502 42.4411C211.088 41.5714 210.02 40.3797 209.308 38.8418C208.942 38.0043 208.68 37.0783 208.511 36.0718C208.343 35.0572 208.259 33.9621 208.259 32.7865C208.259 31.2646 208.352 29.8958 208.54 28.6799C208.727 27.464 209.017 26.4172 209.42 25.5395C210.113 24.0901 211.116 22.987 212.437 22.222C213.757 21.4651 215.331 21.0786 217.158 21.0786C218.366 21.0786 219.462 21.2477 220.446 21.5859C221.429 21.9241 222.301 22.4153 223.041 23.0675C223.781 23.7197 224.418 24.5169 224.933 25.4751C225.832 27.1258 226.282 29.4771 226.282 32.5208ZM221.458 32.2229C221.458 30.3789 221.326 28.8731 221.073 27.6975C220.811 26.5219 220.38 25.6362 219.771 25.0403C219.162 24.4444 218.319 24.1384 217.233 24.1384C215.687 24.1384 214.61 24.8068 214.001 26.1515C213.392 27.4882 213.092 29.5576 213.092 32.3436C213.092 34.2359 213.223 35.79 213.476 36.9978C213.729 38.2056 214.17 39.1236 214.778 39.7436C215.387 40.3636 216.212 40.6696 217.261 40.6696C218.338 40.6696 219.181 40.3475 219.799 39.7033C220.408 39.0592 220.839 38.1412 221.083 36.9414C221.336 35.7336 221.458 34.1634 221.458 32.2229Z" fill="#6D538F"/>
<path d="M66.3197 35.3472C65.1465 35.1598 64.0068 34.7383 62.954 34.0937C61.2478 35.2401 58.5891 35.762 55.935 35.762C53.3901 35.762 50.8475 35.2825 49.1502 34.4149C47.0469 33.3398 46.6298 31.9793 46.6588 31.0135C46.5874 29.8849 46.8551 28.8144 47.4238 27.8508C47.0179 27.9311 46.6142 28.0181 46.2127 28.1162C44.9838 31.4217 42.9608 34.4015 40.2531 36.3709C44.2745 37.0043 47.0291 38.3716 48.4677 40.4637C49.5204 41.9937 49.6029 43.5438 49.4981 44.543C54.7596 44.514 59.9341 44.2129 64.7383 43.6933L64.8721 43.0621C65.4699 40.2428 68.3939 37.7381 71.2934 35.7776C71.251 35.4386 71.2042 35.0951 71.1529 34.7516C70.0065 35.2245 68.8244 35.452 67.6757 35.452C67.2185 35.4542 66.7635 35.4163 66.3197 35.3472Z" fill="#6D538F"/>
<path d="M47.6357 20.834C50.7784 20.0445 54.1462 20.1448 57.5297 20.8229C57.5654 20.4326 57.6078 20.0378 57.6658 19.6341L57.668 19.6185C58.3215 15.8647 59.6887 13.0768 61.4061 11.1341C56.9565 5.97743 54.0994 4.96261 54.0994 4.96261L56.9967 1.96943L48.2915 3.41472L51.6237 0L42.0442 3.30766C40.2732 3.4058 38.6384 3.69129 37.1195 4.12398C44.7206 6.35213 47.8856 13.5786 47.6357 20.834Z" fill="#6D538F"/>
<path d="M19.8987 41.1796C20.9916 39.2548 23.5677 38.0749 26.3735 37.33C22.8941 35.6483 20.5856 32.7554 19.3121 29.3474C18.4244 34.1873 18.1612 38.6459 18.1032 41.6123C18.5537 41.7194 19.0088 41.8242 19.4771 41.9268L19.8987 41.1796Z" fill="#6D538F"/>
<path d="M35.1322 4.80648C34.3493 4.67266 33.591 4.59906 32.8661 4.59906C25.9363 4.59906 21.6941 10.4315 20.0615 16.1257C19.0444 19.6765 18.895 23.5796 19.7671 27.0858C21.7521 18.1263 26.0255 8.4777 35.1322 4.80648Z" fill="#6D538F"/>
<path d="M35.5515 35.9828L35.5961 35.9784L35.6407 35.9806C36.7001 36.0073 37.6949 36.072 38.6383 36.1679C41.7118 34.3569 43.8708 31.1919 45.1265 27.8687L45.7957 21.4095C46.0343 21.3203 46.2752 21.2377 46.5161 21.1597C46.8685 14.2232 43.9578 7.25768 36.7693 5.1745C36.2095 5.01614 35.6652 4.90016 35.1322 4.80872C26.0233 8.47993 21.7521 18.1263 19.7671 27.088C20.8622 31.4953 23.5743 35.2691 28.2113 36.9062C30.7294 36.4021 33.214 36.1858 34.8043 36.0497C35.0943 36.023 35.3463 36.0006 35.5515 35.9828ZM41.3951 32.9495L39.3521 12.3363C46.2417 14.9904 46.9978 27.8642 41.3951 32.9495ZM26.3422 22.3306C27.2433 15.9963 31.8156 11.3928 36.7425 11.6917H36.7447C36.747 11.6917 36.747 11.6917 36.7492 11.6917C36.9656 11.7051 37.1864 11.7251 37.4094 11.7608C38.0941 11.8612 38.7387 12.0575 39.3521 12.334L41.3951 32.9473C40.6814 33.6877 39.8874 34.3033 39.0398 34.7739V34.7784C31.6238 38.7351 24.9884 30.931 26.3422 22.3306Z" fill="#6D538F"/>
<path d="M70.3433 13.6745H70.3455H70.3478C70.5106 13.6834 70.6779 13.6991 70.8429 13.7281C71.3581 13.8061 71.8421 13.9578 72.3038 14.1741L73.8004 30.3467C73.2629 30.9288 72.6629 31.4128 72.025 31.7853V31.7897C71.5856 32.0284 71.1529 32.209 70.7292 32.3429C70.8184 32.7845 70.9009 33.2283 70.9767 33.6677C73.9967 32.3429 76.6843 29.0396 77.6902 23.2585C78.9147 14.783 74.726 9.57062 69.953 8.81006C67.2765 8.38405 64.348 9.31858 62.0998 11.9594C63.0611 13.1236 64.0871 14.4775 65.171 16.0454C66.6029 14.4663 68.4386 13.5585 70.3433 13.6745ZM73.8026 30.3467L72.306 14.1741C77.4984 16.2506 78.0091 26.381 73.8026 30.3467Z" fill="#6D538F"/>
<path d="M60.8909 24.5454C61.0203 24.6034 61.1519 24.6569 61.2745 24.7216C61.7251 24.9513 62.1243 25.2212 62.4901 25.5112C62.3273 24.4027 62.3184 23.2317 62.499 22.0429C62.8336 19.6274 63.8239 17.5375 65.1733 16.0454C64.0915 14.4775 63.0633 13.1236 62.102 11.9594C60.5764 13.7526 59.3631 16.3287 58.7587 19.7992C58.6962 20.2274 58.6516 20.6467 58.6182 21.0593C59.3363 21.2288 60.0545 21.4206 60.7683 21.637L60.8909 24.5454Z" fill="#6D538F"/>
<path d="M64.8387 30.6879C64.89 31.6782 64.5555 32.5748 63.8462 33.3331C64.6848 33.7993 65.577 34.1093 66.4937 34.2565C67.9635 34.4907 69.5091 34.31 70.979 33.6654C70.9031 33.2238 70.8184 32.7822 70.7314 32.3406C68.4296 33.0632 66.3487 32.3049 64.8387 30.6879Z" fill="#6D538F"/>
<path d="M73.8026 30.3466L72.306 14.1741C71.8443 13.9578 71.3603 13.8061 70.8451 13.728C70.6778 13.7013 70.5106 13.6857 70.35 13.6745L72.0272 31.7852C72.6651 31.4128 73.2629 30.9288 73.8026 30.3466Z" fill="#6D538F"/>
<path d="M72.025 31.7852L70.3477 13.6745H70.3455H70.3433L72.0205 31.7875C72.0227 31.7875 72.025 31.7852 72.025 31.7852Z" fill="#6D538F"/>
<path d="M41.3951 32.9495L39.3521 12.3363C38.7387 12.0597 38.0941 11.8634 37.4094 11.7631C37.1886 11.7274 36.9656 11.7073 36.7492 11.6939L39.0398 34.7762C39.8873 34.3056 40.6814 33.6877 41.3951 32.9495Z" fill="#6D538F"/>
<path d="M39.0398 34.7762L36.7514 11.6939C36.7492 11.6939 36.7492 11.6939 36.747 11.6939H36.7448L39.0354 34.7806C39.0354 34.7784 39.0376 34.7784 39.0398 34.7762Z" fill="#6D538F"/>
<path d="M46.2127 28.114C46.6164 28.0159 47.0201 27.9267 47.4238 27.8486C47.9346 26.9854 48.6907 26.2093 49.6743 25.5602C51.8177 24.1462 54.7685 23.5105 57.4673 23.7202C57.4182 22.8035 57.4383 21.8355 57.5319 20.8229C54.1484 20.1426 50.7806 20.0445 47.6379 20.834C47.571 22.7522 47.2699 24.6725 46.7458 26.5014C46.5874 27.0457 46.409 27.5854 46.2127 28.114Z" fill="#6D538F"/>
<path d="M45.1266 27.8664C45.3362 27.3133 45.5236 26.7557 45.6819 26.1981C46.1481 24.5677 46.4313 22.8637 46.5183 21.1574C46.2774 21.2355 46.0365 21.318 45.7979 21.4072L45.1266 27.8664Z" fill="#6D538F"/>
<path d="M46.2127 28.114C46.409 27.5831 46.5897 27.0456 46.7436 26.5014C47.2677 24.6702 47.5688 22.7499 47.6357 20.834C47.4484 20.8808 47.2633 20.9344 47.0781 20.9879C46.9755 23.4881 46.4536 25.9906 45.557 28.2857C45.7756 28.2277 45.9942 28.1675 46.2127 28.114Z" fill="#6D538F"/>
<path d="M45.6819 26.1981C45.5213 26.7557 45.3362 27.3111 45.1265 27.8665L45.0685 28.4218C45.2314 28.375 45.3942 28.3326 45.557 28.288C46.4536 25.9929 46.9733 23.4904 47.0781 20.9902C46.8908 21.0437 46.7034 21.0995 46.5183 21.1597C46.4313 22.8637 46.1503 24.5677 45.6819 26.1981Z" fill="#6D538F"/>
<path d="M60.7683 21.6392C60.0523 21.4228 59.3341 21.231 58.6182 21.0615C58.5356 22.0429 58.5267 22.973 58.5847 23.8562C59.4055 23.9989 60.1839 24.2309 60.8909 24.5476L60.7683 21.6392Z" fill="#6D538F"/>
<path d="M57.465 23.7202C57.6524 23.7358 57.8375 23.7536 58.0204 23.7759C57.9691 22.8793 57.9847 21.9314 58.0717 20.9366C57.891 20.8965 57.7104 20.8608 57.5275 20.8229C57.4383 21.8355 57.416 22.8035 57.465 23.7202Z" fill="#6D538F"/>
<path d="M58.0226 23.7759C58.2122 23.7982 58.3996 23.8228 58.5847 23.8562C58.5267 22.9752 58.5356 22.0429 58.6182 21.0615C58.4375 21.0192 58.2568 20.9768 58.074 20.9366C57.9847 21.9314 57.9691 22.8771 58.0226 23.7759Z" fill="#6D538F"/>
<path d="M27.0627 45.3371L18.13 45.2991C18.13 45.2991 18.0854 44.4404 18.0854 42.9751C5.06883 39.9262 -2.25575 34.5844 10.4396 27.2665C-11.6078 36.5337 4.90155 44.9512 29.4737 47.7503C29.4447 47.05 29.4023 46.3764 29.3577 45.7765C28.6061 45.6359 27.8433 45.491 27.0627 45.3371Z" fill="#6D538F"/>
<path d="M70.7202 44.2375C69.8928 46.1846 68.3694 47.4359 65.8468 47.5139C65.8044 47.5229 64.3815 47.8797 61.4842 48.1429C66.0119 47.757 70.3544 47.1928 74.3312 46.4746C74.1461 45.4151 73.9565 44.4405 73.8048 43.7156C72.7989 43.9007 71.7685 44.0747 70.7202 44.2375Z" fill="#6D538F"/>
<path d="M48.6684 48.2254C48.5948 48.3949 48.5145 48.5622 48.4297 48.7272C52.4846 48.7072 56.535 48.5354 60.4604 48.2254C57.6658 48.4306 53.7537 48.5243 48.6684 48.2254Z" fill="#6D538F"/>
<path d="M61.1809 48.1696C61.0314 48.183 60.8775 48.1941 60.7192 48.2075C60.8731 48.1941 61.027 48.1808 61.1809 48.1696Z" fill="#6D538F"/>
<path d="M91.7238 39.6696C91.7662 40.0622 91.784 40.4503 91.784 40.8339C97.1726 37.3523 96.5771 33.0142 85.5768 28.4396C90.9543 31.5711 92.2903 34.3011 90.9365 36.6162C91.5989 37.7582 91.9134 38.8823 91.7238 39.6696Z" fill="#6D538F"/>
<path d="M70.7202 44.2374C63.777 45.3169 56.0777 45.8857 49.2795 45.9191C49.197 46.731 48.9851 47.5027 48.6684 48.2254C53.7537 48.5242 57.668 48.4306 60.4582 48.2276C60.5452 48.2209 60.6322 48.2142 60.7169 48.2075C60.8753 48.1964 61.0292 48.183 61.1786 48.1696C61.2812 48.1607 61.3816 48.1518 61.4842 48.1428C64.3815 47.8796 65.8044 47.5228 65.8468 47.5139C68.3694 47.4358 69.8927 46.1846 70.7202 44.2374Z" fill="#6D538F"/>
<path d="M18.1322 45.2992L27.0649 45.3371C27.8433 45.491 28.6083 45.6359 29.3622 45.7765C29.3376 45.4597 29.3153 45.1653 29.2908 44.8999C25.3363 44.4204 21.5157 43.778 18.0898 42.9751C18.0853 44.4405 18.1322 45.2992 18.1322 45.2992Z" fill="#6D538F"/>
<path d="M60.7192 48.2053C60.6322 48.212 60.5452 48.2187 60.4604 48.2254C60.5474 48.2209 60.6322 48.212 60.7192 48.2053Z" fill="#6D538F"/>
<path d="M61.4842 48.1429C61.3816 48.1518 61.2812 48.1607 61.1786 48.1696C61.2835 48.1607 61.3861 48.1518 61.4842 48.1429Z" fill="#6D538F"/>
<path d="M43.1661 50.139C42.9653 51.049 42.6932 51.9791 42.3207 52.8066C43.4092 52.1397 44.6292 51.2431 45.6462 50.1413C44.821 50.148 43.9935 50.148 43.1661 50.139Z" fill="#6D538F"/>
<path d="M30.8387 52.4319C31.8847 52.0014 33.4349 51.1806 34.7262 49.7666C33.4705 49.6707 32.226 49.5547 30.997 49.4231C31.0015 50.487 30.9614 51.5442 30.8387 52.4319Z" fill="#6D538F"/>
<path d="M36.2407 52.82C37.5722 52.3181 39.1714 51.4706 40.3892 50.0788C39.3922 50.0454 38.3975 50.0008 37.4072 49.945C37.0994 50.9621 36.7158 51.9724 36.2407 52.82Z" fill="#6D538F"/>
<path d="M47.7294 44.543C47.8253 44.543 47.9212 44.543 48.0193 44.543C48.1219 43.8181 48.1219 42.5401 47.2409 41.2755C46.2395 39.8369 43.853 38.1262 38.2012 37.5976C36.5842 38.3715 34.7776 38.8132 32.7992 38.8132C31.568 38.8132 30.2699 38.637 28.9116 38.2712C26.1817 38.7819 23.3803 39.6139 21.8904 41.0212C22.0376 41.0458 22.1826 41.0681 22.3275 41.0926C25.5103 41.6078 28.2581 42.0517 30.3792 43.5349L30.6268 43.7089C36.0556 44.3044 41.9126 44.6077 47.7294 44.543Z" fill="#6D538F"/>
<path d="M35.2303 37.4883C35.1344 37.4972 35.0385 37.5061 34.9315 37.515C34.3583 37.5641 33.6155 37.6288 32.7747 37.7203C33.6334 37.7269 34.4542 37.6489 35.2303 37.4883Z" fill="#6D538F"/>
<path d="M38.199 37.5976C37.8176 37.5619 37.4228 37.5307 37.0124 37.5084C35.0363 38.2466 32.8014 38.4741 30.3413 38.0303C29.8707 38.1016 29.3912 38.1819 28.9094 38.2711C30.27 38.6369 31.568 38.8131 32.797 38.8131C34.7753 38.8131 36.582 38.3715 38.199 37.5976Z" fill="#6D538F"/>
<path d="M37.0124 37.5084C36.5752 37.4817 36.1202 37.4638 35.6474 37.4504C35.5247 37.4616 35.382 37.475 35.2303 37.4884C34.4541 37.6489 33.6334 37.7248 32.7747 37.7181C32.0275 37.7984 31.2022 37.8987 30.3413 38.0303C32.8037 38.4742 35.0363 38.2467 37.0124 37.5084Z" fill="#6D538F"/>
<path d="M36.4526 46.9518C34.675 46.6931 32.8059 46.3898 30.8588 46.0441C30.8989 46.6039 30.9368 47.2396 30.9614 47.9087C32.5427 48.0715 34.1553 48.212 35.7901 48.328C36.0422 47.9087 36.2652 47.4514 36.4526 46.9518Z" fill="#6D538F"/>
<path d="M43.5497 47.8195C43.5184 48.0938 43.4783 48.386 43.4337 48.6893C44.5333 48.7138 45.6373 48.7272 46.7436 48.7317C46.8685 48.5332 46.9845 48.3302 47.0915 48.1228C45.9652 48.0403 44.7853 47.9421 43.5497 47.8195Z" fill="#6D538F"/>
<path d="M38.0852 47.1793C38.0072 47.583 37.9135 48.0135 37.8064 48.4596C38.9885 48.5287 40.1818 48.5845 41.3817 48.6291C41.5468 48.319 41.6918 47.989 41.8144 47.6388C40.6167 47.505 39.3766 47.3555 38.0852 47.1793Z" fill="#6D538F"/>
<path d="M30.783 45.0717C30.8075 45.3549 30.8343 45.6828 30.8588 46.0463C32.8059 46.392 34.6772 46.6954 36.4526 46.9541C36.611 46.5348 36.7403 46.0843 36.8407 45.607C34.8177 45.4709 32.7881 45.2925 30.783 45.0717Z" fill="#6D538F"/>
<path d="M47.7294 45.917C46.418 45.9348 45.073 45.9281 43.7058 45.9014C43.6902 46.2582 43.65 46.9541 43.5497 47.8173C44.7831 47.9377 45.9652 48.0381 47.0915 48.1206C47.4484 47.4359 47.7004 46.6998 47.7986 45.917C47.7763 45.917 47.754 45.917 47.7294 45.917Z" fill="#6D538F"/>
<path d="M38.3417 45.7006C38.2792 46.1132 38.1945 46.6173 38.0852 47.1815C39.3766 47.3555 40.6189 47.5072 41.8144 47.6388C42.004 47.099 42.1423 46.508 42.2137 45.8678C40.9356 45.8299 39.642 45.7742 38.3417 45.7006Z" fill="#6D538F"/>
<path d="M30.997 49.4231C32.2282 49.5547 33.4728 49.6706 34.7263 49.7666C34.927 49.548 35.1188 49.3116 35.3039 49.064C33.8519 48.9569 32.4111 48.8276 30.9881 48.6759C30.9926 48.9235 30.9948 49.1733 30.997 49.4231Z" fill="#6D538F"/>
<path d="M37.4072 49.945C38.3975 50.0008 39.3922 50.0454 40.3892 50.0789C40.5832 49.8558 40.7639 49.6172 40.9379 49.3651C39.8294 49.3294 38.7209 49.2781 37.6168 49.2157C37.5521 49.4588 37.4808 49.7019 37.4072 49.945Z" fill="#6D538F"/>
<path d="M43.311 49.4231C43.2686 49.6595 43.2195 49.8982 43.166 50.1391C43.9935 50.148 44.821 50.148 45.6462 50.1391C45.8559 49.9116 46.0566 49.6774 46.2462 49.4342C45.2693 49.4432 44.2901 49.4387 43.311 49.4231Z" fill="#6D538F"/>
<path d="M36.9946 44.6992L38.4555 44.8709C38.4488 44.9311 38.4399 44.9913 38.4309 45.0493C41.5445 45.2188 44.676 45.2813 47.7294 45.2278C47.7718 45.2278 47.8142 45.2278 47.8543 45.23L47.8855 45.1385C47.8945 45.114 47.9658 44.891 48.0149 44.5408C47.919 44.5408 47.8231 44.5408 47.7249 44.5408C41.9081 44.6055 36.0511 44.3021 30.6201 43.7044L30.6469 43.7223L30.6826 44.0546C30.6893 44.1237 30.7026 44.2509 30.7183 44.4092C32.7635 44.6389 34.8512 44.8218 36.9544 44.9579C36.97 44.8754 36.9834 44.7861 36.9946 44.6992Z" fill="#6D538F"/>
<path d="M43.311 49.4231C44.2901 49.4387 45.2693 49.4432 46.2462 49.4365C46.4224 49.209 46.5897 48.9726 46.7436 48.7317C45.6373 48.7295 44.5333 48.7161 43.4337 48.6893C43.398 48.928 43.3578 49.1733 43.311 49.4231Z" fill="#6D538F"/>
<path d="M30.9636 47.9109C30.9725 48.1629 30.9814 48.4172 30.9881 48.6759C32.4111 48.8276 33.8519 48.9569 35.3039 49.064C35.4757 48.8343 35.6385 48.5889 35.7901 48.3302C34.1575 48.2142 32.5449 48.0737 30.9636 47.9109Z" fill="#6D538F"/>
<path d="M37.8064 48.4596C37.7462 48.7072 37.6837 48.9592 37.6168 49.2157C38.7209 49.2781 39.8271 49.3294 40.9379 49.3651C41.0985 49.1332 41.2457 48.8878 41.3817 48.6291C40.1818 48.5867 38.9907 48.5287 37.8064 48.4596Z" fill="#6D538F"/>
<path d="M38.4309 45.0515C38.4198 45.1363 38.4109 45.2232 38.3975 45.3058C38.3819 45.424 38.3618 45.5578 38.3395 45.6983C39.6398 45.7719 40.9334 45.8277 42.2114 45.8656C42.2204 45.7853 42.236 45.7095 42.2427 45.6269L43.7125 45.7117C43.7103 45.7563 43.708 45.8232 43.7058 45.9013C45.073 45.9281 46.4179 45.9325 47.7294 45.9169C47.7517 45.9169 47.7762 45.9169 47.7985 45.9169C47.8209 45.734 47.8387 45.5511 47.8454 45.3638L47.8498 45.2478L47.8565 45.2299C47.8142 45.2299 47.7718 45.2299 47.7316 45.2277C44.676 45.2835 41.5445 45.2188 38.4309 45.0515Z" fill="#6D538F"/>
<path d="M36.941 45.1051C36.9477 45.0583 36.9522 45.0114 36.9589 44.9646C34.8556 44.8285 32.768 44.6434 30.7227 44.4159C30.7406 44.5899 30.7606 44.8107 30.7829 45.0739C32.7881 45.2947 34.8177 45.4731 36.8429 45.6092C36.8764 45.4396 36.9143 45.2768 36.941 45.1051Z" fill="#6D538F"/>
<path d="M89.1833 36.6296C88.909 36.2571 88.5811 35.8757 88.1886 35.501C86.4957 33.8862 82.7442 31.5755 76.624 34.2208C76.372 34.3724 76.0932 34.5375 75.7899 34.7159C74.5966 35.4207 73.0041 36.3642 71.4607 37.4593C71.5633 38.8823 71.5611 40.2383 71.4116 41.4673C71.7506 41.4427 72.0986 41.4271 72.4644 41.4271C73.0465 41.4271 73.6665 41.4628 74.3424 41.5453L74.8553 41.6078L74.9691 42.1119C74.9713 42.1186 74.9735 42.1297 74.9758 42.1409C81.9257 40.7379 87.1381 38.8131 89.1833 36.6296Z" fill="#6D538F"/>
<path d="M86.7188 49.3629C88.0214 47.8061 89.4666 45.5936 90.0465 43.0665C89.1187 43.5371 88.0994 43.9921 87.0065 44.4293C87.0556 45.9705 87.0155 47.7838 86.7188 49.3629Z" fill="#6D538F"/>
<path d="M76.4077 51.4059C77.3891 50.5562 78.7697 49.0506 79.644 46.7868C78.4775 47.0879 77.2642 47.3712 76.0129 47.6366C76.2114 48.9458 76.3698 50.2863 76.4077 51.4059Z" fill="#6D538F"/>
<path d="M81.2543 50.7569C82.626 49.6617 84.2386 47.8685 84.9545 45.1943C83.9865 45.5311 82.9695 45.8545 81.9078 46.1645C81.8231 47.7325 81.6335 49.3919 81.2543 50.7569Z" fill="#6D538F"/>
<path d="M71.4607 37.4593C69.46 38.8778 67.5419 40.5506 66.6921 42.2903C67.1761 42.2011 67.64 42.103 68.095 42.0048C69.179 41.7751 70.2295 41.5543 71.4139 41.4673C71.5611 40.2384 71.5633 38.8823 71.4607 37.4593Z" fill="#6D538F"/>
<path d="M90.2673 39.5157C90.2673 39.5157 90.2651 38.5745 89.9238 37.8541C88.3113 39.3685 85.501 40.6777 81.9435 41.7751C81.9703 42.4888 81.9926 43.5594 81.9658 44.7749C83.1167 44.4605 84.2096 44.1326 85.2378 43.7869C85.3426 42.9884 85.3672 42.1253 85.2913 41.1907L86.7545 41.0413C86.7857 41.2933 86.8794 42.0985 86.9485 43.178C88.1774 42.7118 89.2882 42.2212 90.2673 41.7104C90.3298 41.0524 90.2673 39.5157 90.2673 39.5157Z" fill="#6D538F"/>
<path d="M80.467 42.2034C78.8433 42.6539 77.0947 43.0643 75.2524 43.4323C75.404 44.1639 75.5959 45.1386 75.7788 46.2002C77.291 45.9058 78.7385 45.5869 80.1213 45.2479C80.3399 44.3356 80.4626 43.3186 80.467 42.2034Z" fill="#6D538F"/>
<path d="M81.91 46.1645C82.9717 45.8545 83.9887 45.5311 84.9567 45.1943C85.0214 44.9534 85.0772 44.7059 85.1262 44.4516C84.1203 44.7995 83.0564 45.1319 81.9435 45.4508C81.9346 45.685 81.9234 45.9237 81.91 46.1645Z" fill="#6D538F"/>
<path d="M87.0065 44.4293C88.1016 43.9921 89.1187 43.5371 90.0465 43.0665C90.1023 42.8256 90.1491 42.5803 90.187 42.3327C89.2213 42.8301 88.1485 43.3096 86.9797 43.7691C86.9909 43.981 86.9998 44.2018 87.0065 44.4293Z" fill="#6D538F"/>
<path d="M80.4558 41.4517C80.4536 41.3804 80.4491 41.309 80.4469 41.2398L81.3257 41.1908C85.0817 40.031 87.9745 38.6727 89.5558 37.1805C89.4443 36.9999 89.3216 36.817 89.1833 36.6296C87.1381 38.811 81.9256 40.7358 74.9758 42.1431C74.9936 42.2257 75.0427 42.4442 75.1141 42.7721C77.021 42.3706 78.812 41.929 80.4558 41.4517Z" fill="#6D538F"/>
<path d="M76.0129 47.6365C77.2642 47.3711 78.4775 47.0879 79.644 46.7868C79.7421 46.5325 79.8336 46.2716 79.9183 45.9995C78.6336 46.3273 77.2909 46.6373 75.9014 46.9251C75.9393 47.1592 75.9772 47.3979 76.0129 47.6365Z" fill="#6D538F"/>
<path d="M80.4559 41.4517C78.8121 41.929 77.0211 42.3706 75.1141 42.7699C75.1542 42.9572 75.2011 43.1803 75.2524 43.4323C77.0924 43.0621 78.8433 42.6517 80.467 42.2034C80.467 42.0428 80.4737 41.8844 80.4692 41.7194C80.4648 41.6302 80.4603 41.5409 80.4559 41.4517Z" fill="#6D538F"/>
<path d="M81.9636 44.775C81.9591 44.9958 81.9524 45.2211 81.9435 45.4508C83.0565 45.1319 84.1204 44.7995 85.1263 44.4516C85.1687 44.2352 85.2066 44.0144 85.2378 43.7869C84.2096 44.1304 83.1167 44.4605 81.9636 44.775Z" fill="#6D538F"/>
<path d="M86.9819 43.7691C88.1506 43.3096 89.2235 42.8323 90.1892 42.3327C90.2227 42.1253 90.2494 41.9178 90.2695 41.7082C89.2904 42.2189 88.1774 42.7096 86.9507 43.1758C86.9596 43.3654 86.9708 43.5639 86.9819 43.7691Z" fill="#6D538F"/>
<path d="M81.9167 41.1595C81.9279 41.3357 81.9346 41.5097 81.9413 41.6814C81.9435 41.7104 81.9435 41.7439 81.9435 41.7751C85.501 40.6778 88.3135 39.3685 89.9238 37.8541C89.8234 37.6422 89.7008 37.4169 89.5558 37.1827C87.9745 38.6749 85.0817 40.0332 81.3257 41.193L81.9167 41.1595Z" fill="#6D538F"/>
<path d="M75.7787 46.2024C75.8189 46.4389 75.8613 46.6797 75.8992 46.9251C77.2887 46.6374 78.6314 46.3273 79.9161 45.9995C79.9897 45.7586 80.0589 45.5088 80.1213 45.2501C78.7407 45.5891 77.2909 45.908 75.7787 46.2024Z" fill="#6D538F"/>
<path d="M81.183 41.2356C81.183 41.2154 81.1807 41.2019 81.1807 41.2019C81.183 41.2131 81.183 41.2244 81.183 41.2356Z" fill="#6D538F"/>
<path d="M81.2097 41.9939C81.2097 41.9872 81.2097 41.9782 81.2097 41.9714C81.2097 41.9782 81.2075 41.9849 81.2097 41.9939Z" fill="#6D538F"/>
<path d="M81.2075 41.9223C81.2075 41.938 81.2075 41.9538 81.2097 41.9695C81.2097 41.9538 81.2075 41.938 81.2075 41.9223Z" fill="#6D538F"/>
<path d="M47.3614 31.0001C47.2722 29.7243 47.6714 28.6136 48.3896 27.6791C48.0662 27.7304 47.745 27.7861 47.4216 27.8486C46.8506 28.8099 46.5852 29.8827 46.6566 31.0113C46.6276 31.977 47.0447 33.3376 49.1479 34.4126C50.8452 35.2802 53.3879 35.7598 55.9327 35.7598C58.5869 35.7598 61.2455 35.2379 62.9518 34.0914C62.7354 33.9598 62.5235 33.8149 62.3139 33.6632C57.929 36.3017 47.1852 35.1241 47.3614 31.0001Z" fill="#6D538F"/>
<path d="M64.8387 30.6879C64.5354 30.3623 64.2543 30.0032 63.9978 29.6129C64.0157 29.7645 64.038 29.914 64.0447 30.0745C64.3302 31.25 63.9889 32.209 63.235 32.9584C63.4358 33.0923 63.6387 33.2172 63.8462 33.3331C64.5532 32.5748 64.89 31.6782 64.8387 30.6879Z" fill="#6D538F"/>
<path d="M62.7288 26.6977C62.6284 26.3118 62.5503 25.917 62.4901 25.5111C62.1243 25.2189 61.7251 24.9513 61.2745 24.7216C61.1519 24.6591 61.0203 24.6033 60.8909 24.5453L60.9244 25.3416C61.618 25.694 62.2336 26.1423 62.7288 26.6977Z" fill="#6D538F"/>
<path d="M62.3161 33.6654C62.5258 33.8171 62.7377 33.9598 62.954 34.0937C63.0767 34.0111 63.1949 33.9264 63.3064 33.8394C63.3488 33.8059 63.3822 33.7702 63.4224 33.7368C63.2105 33.6141 63.0031 33.4803 62.8001 33.3398C62.6484 33.4535 62.4878 33.5628 62.3161 33.6654Z" fill="#6D538F"/>
<path d="M63.8462 33.3331C63.6388 33.2171 63.4358 33.0922 63.2351 32.9584C63.1012 33.0922 62.9563 33.2171 62.7979 33.3375C63.0009 33.4781 63.2083 33.6119 63.4202 33.7346C63.5763 33.6052 63.7168 33.4714 63.8462 33.3331Z" fill="#6D538F"/>
<path d="M63.9979 29.6128C64.2521 30.0032 64.5332 30.3623 64.8387 30.6879C64.8276 30.4559 64.8008 30.2195 64.745 29.9764C64.6536 28.1274 63.873 26.613 62.4901 25.5112C62.5503 25.9171 62.6284 26.3119 62.7288 26.6977C63.4113 27.465 63.8618 28.433 63.9979 29.6128Z" fill="#6D538F"/>
<path d="M57.5164 24.4183C57.4941 24.1885 57.4784 23.9544 57.465 23.7179C54.7663 23.5083 51.8155 24.1417 49.6721 25.558C48.6885 26.207 47.9324 26.9832 47.4216 27.8464C47.7428 27.7839 48.0662 27.7259 48.3896 27.6769C50.2007 25.3216 54.0704 24.1149 57.5164 24.4183Z" fill="#6D538F"/>
<path d="M60.9244 25.3416L60.8909 24.5454C60.1839 24.2286 59.4055 23.9967 58.5847 23.8539C58.6003 24.0993 58.6226 24.3402 58.6494 24.5766C59.4635 24.7349 60.233 24.9892 60.9244 25.3416Z" fill="#6D538F"/>
<path d="M58.0762 24.4852C58.0539 24.2532 58.0338 24.0168 58.0204 23.7759C57.8353 23.7536 57.6501 23.7358 57.465 23.7202C57.4784 23.9566 57.494 24.1908 57.5163 24.4205C57.7059 24.4361 57.891 24.4584 58.0762 24.4852Z" fill="#6D538F"/>
<path d="M58.6472 24.5766C58.6204 24.3402 58.6003 24.0993 58.5825 23.854C58.3973 23.8228 58.21 23.7982 58.0204 23.7737C58.0338 24.0146 58.0516 24.251 58.0762 24.4829C58.2702 24.5119 58.4598 24.5409 58.6472 24.5766Z" fill="#6D538F"/>
<path d="M49.7903 33.1613C48.9784 32.7465 48.0216 32.0395 48.064 31.0313L48.0662 30.9912L48.064 30.951C47.9592 29.4544 48.6305 28.3348 49.4468 27.5363C49.0944 27.5765 48.742 27.6233 48.3896 27.6791C47.6714 28.6136 47.2722 29.7266 47.3614 31.0001C47.1852 35.1241 57.929 36.2995 62.3161 33.6632C62.1109 33.5137 61.9058 33.3576 61.7095 33.1903C58.8122 34.7472 52.9976 34.8029 49.7903 33.1613Z" fill="#6D538F"/>
<path d="M64.0447 30.0746C64.038 29.914 64.0157 29.7668 63.9979 29.6129C63.4403 28.7631 63.0076 27.775 62.7288 26.6978C62.2336 26.1424 61.618 25.6941 60.9244 25.3417L60.9578 26.1535C62.0641 26.807 63.2551 27.9958 63.3421 30.1035L63.3622 30.2418C63.5808 31.1429 63.3466 31.8968 62.6574 32.5391C62.847 32.6886 63.0388 32.8291 63.2373 32.9607C63.9889 32.209 64.3324 31.25 64.0447 30.0746Z" fill="#6D538F"/>
<path d="M61.7095 33.1926C61.908 33.3599 62.1109 33.516 62.3161 33.6654C62.4879 33.5629 62.6485 33.4536 62.8001 33.3398C62.5972 33.1993 62.3964 33.0521 62.2024 32.8937C62.0485 32.9986 61.8857 33.0989 61.7095 33.1926Z" fill="#6D538F"/>
<path d="M62.4343 32.7331C62.3629 32.7889 62.2782 32.838 62.2001 32.8915C62.3942 33.0499 62.5949 33.1971 62.7979 33.3376C62.9562 33.2171 63.1012 33.0922 63.235 32.9584C63.0388 32.8268 62.8447 32.6863 62.6551 32.5369C62.586 32.6038 62.5146 32.6707 62.4343 32.7331Z" fill="#6D538F"/>
<path d="M63.9978 29.6128C63.8618 28.4329 63.4113 27.4649 62.7288 26.6977C63.0076 27.775 63.4403 28.763 63.9978 29.6128Z" fill="#6D538F"/>
<path d="M50.4482 26.7334C52.1099 25.636 54.3157 25.065 56.4346 25.065C56.8271 25.065 57.2152 25.0851 57.5966 25.1253C57.5654 24.8933 57.5386 24.6591 57.5163 24.4205C54.0704 24.1171 50.2007 25.3215 48.3896 27.6813C48.742 27.6255 49.0922 27.5787 49.4468 27.5385C49.7702 27.2196 50.1181 26.9519 50.4482 26.7334Z" fill="#6D538F"/>
<path d="M60.6344 25.9728C60.7414 26.0264 60.8507 26.0888 60.96 26.1535L60.9266 25.3416C60.2351 24.9915 59.4657 24.7372 58.6494 24.5789C58.6761 24.8264 58.7096 25.0718 58.7475 25.3126C59.4233 25.4599 60.0612 25.6807 60.6344 25.9728Z" fill="#6D538F"/>
<path d="M58.1631 25.1989C58.1297 24.9647 58.1007 24.726 58.0762 24.4852C57.891 24.4584 57.7037 24.4361 57.5141 24.4205C57.5364 24.6591 57.5632 24.8933 57.5944 25.1253C57.7884 25.1431 57.978 25.1699 58.1631 25.1989Z" fill="#6D538F"/>
<path d="M58.7453 25.3104C58.7074 25.0696 58.6739 24.8265 58.6471 24.5767C58.4598 24.541 58.268 24.5097 58.0762 24.483C58.1007 24.7261 58.1297 24.9625 58.1631 25.1967C58.3617 25.2302 58.5535 25.2681 58.7453 25.3104Z" fill="#6D538F"/>
</svg>
