<svg width="993" height="231" viewBox="0 0 993 231" fill="none" xmlns="http://www.w3.org/2000/svg">
<path d="M512.18 157.418H477.687C477.752 161.51 478.544 165.066 480.127 168.219C481.71 171.305 483.82 173.653 486.392 175.264C488.965 176.874 491.867 177.612 495.032 177.612C497.143 177.612 499.056 177.343 500.836 176.874C502.617 176.404 504.266 175.599 505.915 174.526C507.564 173.452 509.081 172.312 510.466 171.104C511.851 169.896 513.631 168.219 515.808 166.139C516.731 165.334 517.984 164.932 519.699 164.932C521.48 164.932 522.997 165.469 524.118 166.475C525.239 167.481 525.767 168.89 525.767 170.769C525.767 172.379 525.173 174.257 523.92 176.471C522.667 178.618 520.754 180.698 518.248 182.711C515.742 184.723 512.576 186.333 508.751 187.675C504.925 189.017 500.572 189.621 495.626 189.621C484.282 189.621 475.51 186.333 469.178 179.759C462.913 173.184 459.747 164.261 459.747 152.99C459.747 147.69 460.539 142.792 462.055 138.23C463.572 133.668 465.881 129.777 468.849 126.557C471.817 123.336 475.51 120.854 479.863 119.11C484.216 117.365 489.031 116.493 494.373 116.493C501.232 116.493 507.168 117.969 512.114 120.921C517.061 123.873 520.754 127.697 523.195 132.393C525.635 137.09 526.888 141.853 526.888 146.751C526.888 151.246 525.635 154.197 523.063 155.539C520.359 156.747 516.797 157.418 512.18 157.418ZM477.687 147.22H509.674C509.212 141.115 507.63 136.486 504.794 133.467C501.958 130.448 498.264 128.905 493.647 128.905C489.228 128.905 485.667 130.448 482.831 133.534C479.995 136.62 478.28 141.182 477.687 147.22Z" fill="#8461C9"/>
<path d="M541.596 178.619V100.795C541.596 97.1724 542.387 94.4888 543.97 92.6774C545.553 90.866 547.597 89.8596 550.302 89.8596C553.006 89.8596 555.116 90.7989 556.765 92.6103C558.414 94.4217 559.205 97.1724 559.205 100.795V178.619C559.205 182.242 558.348 184.993 556.699 186.804C555.05 188.615 552.874 189.555 550.302 189.555C547.729 189.555 545.619 188.615 543.97 186.737C542.321 184.858 541.596 182.108 541.596 178.619Z" fill="#8461C9"/>
<path d="M639.965 76.4624H610.31V174.139C610.31 179.755 609.048 183.926 606.564 186.654C604.079 189.382 600.806 190.746 596.863 190.746C592.841 190.746 589.568 189.382 587.004 186.614C584.481 183.846 583.219 179.714 583.219 174.139V76.4624H553.564C548.911 76.4624 545.48 75.4596 543.232 73.3737C540.984 71.3279 539.841 68.6002 539.841 65.2708C539.841 61.7809 541.024 59.0532 543.35 57.0074C545.717 55.0017 549.108 53.9989 553.564 53.9989H640.004C644.697 53.9989 648.206 55.0419 650.494 57.1278C652.781 59.2137 653.924 61.9414 653.924 65.2708C653.924 68.6403 652.781 71.3279 650.454 73.3737C648.088 75.4596 644.618 76.4624 639.965 76.4624Z" fill="#8461C9"/>
<path d="M727.036 143.048C727.036 150.188 725.931 156.767 723.723 162.784C721.515 168.801 718.321 173.976 714.101 178.308C709.921 182.64 704.913 185.929 699.077 188.256C693.24 190.583 686.694 191.706 679.438 191.706C672.222 191.706 665.715 190.542 659.958 188.216C654.2 185.889 649.192 182.52 644.973 178.187C640.753 173.855 637.559 168.681 635.351 162.744C633.182 156.807 632.078 150.269 632.078 143.048C632.078 135.788 633.182 129.169 635.39 123.152C637.598 117.135 640.793 112 644.933 107.708C649.074 103.456 654.082 100.167 659.958 97.8403C665.833 95.5137 672.34 94.3905 679.438 94.3905C686.655 94.3905 693.201 95.5538 699.077 97.8804C704.952 100.207 710 103.536 714.18 107.869C718.36 112.201 721.554 117.335 723.762 123.312C725.931 129.289 727.036 135.868 727.036 143.048ZM703.099 143.048C703.099 133.301 700.969 125.679 696.671 120.264C692.412 114.848 686.655 112.121 679.399 112.121C674.746 112.121 670.644 113.324 667.056 115.771C663.507 118.178 660.786 121.788 658.854 126.521C656.921 131.255 655.975 136.79 655.975 143.088C655.975 149.346 656.921 154.801 658.814 159.495C660.707 164.188 663.428 167.758 666.938 170.245C670.447 172.732 674.627 173.976 679.399 173.976C686.615 173.976 692.373 171.248 696.671 165.792C700.969 160.257 703.099 152.715 703.099 143.048Z" fill="#8461C9"/>
<path d="M767.85 107.829V110.717C772.346 105.181 776.999 101.089 781.81 98.4821C786.661 95.8747 792.103 94.5911 798.254 94.5911C805.589 94.5911 812.332 96.4764 818.524 100.287C824.715 104.098 829.565 109.634 833.154 116.934C836.742 124.235 838.517 132.899 838.517 142.888C838.517 150.269 837.491 157.008 835.401 163.185C833.311 169.363 830.512 174.537 826.884 178.709C823.256 182.881 818.997 186.09 814.067 188.336C809.138 190.583 803.854 191.706 798.215 191.706C791.393 191.706 785.675 190.342 781.061 187.574C776.447 184.846 772.03 180.795 767.811 175.46V211.401C767.811 221.911 763.986 227.166 756.375 227.166C751.879 227.166 748.922 225.802 747.463 223.074C746.004 220.347 745.294 216.416 745.294 211.201V107.989C745.294 103.416 746.28 100.046 748.252 97.76C750.223 95.4736 752.944 94.3905 756.375 94.3905C759.766 94.3905 762.487 95.5538 764.617 97.8403C766.786 100.167 767.85 103.496 767.85 107.829ZM814.58 142.607C814.58 136.309 813.634 130.894 811.701 126.361C809.769 121.828 807.127 118.338 803.696 115.931C800.305 113.525 796.519 112.281 792.379 112.281C785.793 112.281 780.233 114.888 775.737 120.063C771.242 125.238 768.955 132.899 768.955 143.008C768.955 152.515 771.202 159.936 775.698 165.231C780.193 170.526 785.754 173.173 792.379 173.173C796.322 173.173 799.989 172.01 803.381 169.724C806.772 167.397 809.454 163.947 811.504 159.334C813.555 154.761 814.58 149.145 814.58 142.607Z" fill="#8461C9"/>
<path d="M878.214 180.715V120.673C866.825 129.266 859.164 133.527 855.19 133.527C853.306 133.527 851.626 132.787 850.192 131.308C848.717 129.829 848.021 128.139 848.021 126.202C848.021 123.948 848.717 122.328 850.192 121.272C851.626 120.215 854.166 118.842 857.771 117.187C863.179 114.687 867.522 112.045 870.799 109.263C874.036 106.481 876.944 103.383 879.443 99.9667C881.942 96.5508 883.581 94.4379 884.359 93.628C885.138 92.8532 886.572 92.4307 888.661 92.4307C891.037 92.4307 892.922 93.3463 894.397 95.1422C895.83 96.9382 896.568 99.4385 896.568 102.608V178.144C896.568 186.983 893.495 191.385 887.35 191.385C884.605 191.385 882.434 190.469 880.754 188.673C879.034 186.877 878.214 184.201 878.214 180.715Z" fill="#8461C9"/>
<path d="M989.114 142.225C989.114 149.444 988.581 155.677 987.557 160.853C986.533 166.065 984.648 170.749 981.863 175.01C978.38 180.222 973.874 184.201 968.302 187.053C962.771 189.871 956.585 191.279 949.826 191.279C942.042 191.279 935.036 189.378 928.85 185.61C922.664 181.806 917.994 176.595 914.88 169.869C913.282 166.206 912.135 162.156 911.398 157.755C910.66 153.317 910.292 148.528 910.292 143.387C910.292 136.731 910.701 130.745 911.521 125.427C912.34 120.11 913.61 115.532 915.372 111.693C918.403 105.355 922.787 100.53 928.563 97.1846C934.34 93.8744 941.222 92.1841 949.211 92.1841C954.496 92.1841 959.289 92.9236 963.591 94.4026C967.892 95.8817 971.702 98.0298 974.939 100.882C978.175 103.735 980.961 107.221 983.214 111.412C987.147 118.631 989.114 128.913 989.114 142.225ZM968.015 140.922C968.015 132.857 967.442 126.272 966.336 121.131C965.189 115.989 963.304 112.116 960.641 109.51C957.978 106.904 954.291 105.566 949.539 105.566C942.779 105.566 938.068 108.489 935.405 114.37C932.742 120.215 931.431 129.266 931.431 141.45C931.431 149.725 932.005 156.522 933.111 161.804C934.217 167.087 936.142 171.101 938.805 173.813C941.468 176.524 945.073 177.862 949.662 177.862C954.373 177.862 958.06 176.454 960.764 173.637C963.427 170.819 965.311 166.805 966.377 161.558C967.483 156.275 968.015 149.409 968.015 140.922Z" fill="#8461C9"/>
<path d="M289.545 154.585C284.415 153.766 279.43 151.922 274.826 149.103C267.364 154.117 255.737 156.4 244.129 156.4C233 156.4 221.88 154.302 214.457 150.508C205.259 145.807 203.435 139.856 203.562 135.633C203.249 130.697 204.42 126.015 206.907 121.801C205.132 122.152 203.367 122.533 201.611 122.962C196.236 137.418 187.389 150.449 175.547 159.062C193.134 161.833 205.181 167.812 211.472 176.962C216.076 183.653 216.437 190.432 215.979 194.802C238.989 194.675 261.619 193.358 282.63 191.086L283.215 188.325C285.829 175.996 298.617 165.042 311.297 156.468C311.112 154.985 310.907 153.483 310.683 151.981C305.669 154.049 300.499 155.044 295.476 155.044C293.476 155.054 291.486 154.888 289.545 154.585Z" fill="#8461C9"/>
<path d="M207.833 91.1144C221.577 87.6614 236.306 88.1004 251.103 91.0657C251.259 89.3587 251.444 87.6322 251.698 85.8667L251.708 85.7984C254.566 69.382 260.545 57.1892 268.056 48.6932C248.596 26.1414 236.101 21.7032 236.101 21.7032L248.772 8.61299L210.701 14.9338L225.274 0L183.379 14.4655C175.634 14.8947 168.484 16.1433 161.842 18.0356C195.084 27.7801 208.926 59.3839 207.833 91.1144Z" fill="#8461C9"/>
<path d="M86.5294 180.093C91.309 171.675 102.575 166.515 114.846 163.257C99.6294 155.902 89.5337 143.251 83.964 128.346C80.0818 149.513 78.9309 169.012 78.6772 181.985C80.6476 182.453 82.6375 182.912 84.6859 183.36L86.5294 180.093Z" fill="#8461C9"/>
<path d="M153.151 21.0202C149.727 20.4349 146.411 20.113 143.241 20.113C112.934 20.113 94.3817 45.6204 87.2416 70.523C82.7937 86.0518 82.1401 103.122 85.9541 118.455C94.6353 79.2726 113.325 37.0757 153.151 21.0202Z" fill="#8461C9"/>
<path d="M154.983 157.365L155.179 157.346L155.374 157.356C160.007 157.473 164.357 157.756 168.483 158.175C181.925 150.255 191.367 136.413 196.858 121.879L199.785 93.6311C200.828 93.241 201.882 92.8801 202.935 92.5387C204.477 62.203 191.747 31.7405 160.309 22.63C157.861 21.9374 155.481 21.4302 153.15 21.0303C113.313 37.0858 94.6339 79.2729 85.9526 118.465C90.742 137.74 102.603 154.244 122.882 161.404C133.895 159.199 144.761 158.253 151.716 157.658C152.984 157.541 154.086 157.443 154.983 157.365ZM180.54 144.1L171.605 53.9509C201.736 65.5584 205.042 121.86 180.54 144.1ZM114.708 97.6597C118.649 69.9576 138.645 49.8248 160.192 51.1319H160.202C160.212 51.1319 160.212 51.1319 160.222 51.1319C161.168 51.1904 162.133 51.2782 163.109 51.4343C166.103 51.8732 168.922 52.7316 171.605 53.9411L180.54 144.09C177.418 147.328 173.946 150.02 170.239 152.079V152.098C137.806 169.402 108.787 135.272 114.708 97.6597Z" fill="#8461C9"/>
<path d="M307.142 59.8033H307.152H307.162C307.874 59.8423 308.605 59.9106 309.327 60.0374C311.58 60.3788 313.697 61.0421 315.716 61.9883L322.261 132.716C319.91 135.262 317.286 137.379 314.497 139.008V139.027C312.575 140.071 310.683 140.861 308.83 141.446C309.22 143.378 309.581 145.319 309.912 147.24C323.119 141.446 334.873 127 339.273 101.717C344.628 64.6512 326.309 41.8555 305.435 38.5293C293.73 36.6662 280.923 40.7533 271.09 52.3023C275.294 57.394 279.781 63.3148 284.522 70.1721C290.784 63.2661 298.812 59.2961 307.142 59.8033ZM322.271 132.716L315.726 61.9883C338.434 71.0695 340.667 115.373 322.271 132.716Z" fill="#8461C9"/>
<path d="M265.802 107.346C266.368 107.599 266.943 107.833 267.48 108.116C269.45 109.121 271.196 110.301 272.796 111.569C272.084 106.721 272.045 101.6 272.835 96.4015C274.298 85.8376 278.629 76.6979 284.53 70.1723C279.799 63.315 275.303 57.3942 271.098 52.3025C264.427 60.1449 259.12 71.4111 256.477 86.5887C256.204 88.4615 256.009 90.2953 255.862 92.0999C259.003 92.8412 262.144 93.68 265.265 94.6262L265.802 107.346Z" fill="#8461C9"/>
<path d="M283.067 134.209C283.292 138.54 281.828 142.461 278.727 145.777C282.394 147.816 286.296 149.172 290.305 149.816C296.733 150.84 303.493 150.05 309.921 147.231C309.589 145.299 309.218 143.368 308.838 141.437C298.772 144.597 289.671 141.281 283.067 134.209Z" fill="#8461C9"/>
<path d="M322.27 132.716L315.725 61.9882C313.706 61.042 311.589 60.3787 309.336 60.0373C308.604 59.9203 307.873 59.852 307.17 59.8032L314.506 139.008C317.295 137.379 319.909 135.262 322.27 132.716Z" fill="#8461C9"/>
<path d="M314.495 139.008L307.16 59.8032H307.15H307.141L314.476 139.017C314.486 139.017 314.495 139.008 314.495 139.008Z" fill="#8461C9"/>
<path d="M180.542 144.099L171.607 53.9505C168.924 52.7409 166.105 51.8826 163.111 51.4436C162.145 51.2875 161.17 51.1998 160.224 51.1412L170.241 152.088C173.948 150.03 177.42 147.328 180.542 144.099Z" fill="#8461C9"/>
<path d="M170.242 152.088L160.234 51.1412C160.224 51.1412 160.224 51.1412 160.214 51.1412H160.205L170.222 152.107C170.222 152.098 170.232 152.098 170.242 152.088Z" fill="#8461C9"/>
<path d="M201.61 122.952C203.375 122.523 205.141 122.133 206.906 121.791C209.14 118.016 212.447 114.622 216.748 111.783C226.122 105.599 239.027 102.819 250.83 103.736C250.615 99.7271 250.703 95.4938 251.113 91.0654C236.315 88.0903 221.587 87.6611 207.843 91.1141C207.55 99.5028 206.233 107.901 203.941 115.9C203.249 118.28 202.468 120.64 201.61 122.952Z" fill="#8461C9"/>
<path d="M196.859 121.869C197.776 119.45 198.595 117.012 199.288 114.573C201.326 107.443 202.565 99.9906 202.946 92.5286C201.892 92.87 200.839 93.2309 199.795 93.6211L196.859 121.869Z" fill="#8461C9"/>
<path d="M201.61 122.952C202.468 120.63 203.258 118.28 203.931 115.9C206.224 107.891 207.541 99.493 207.833 91.1141C207.014 91.319 206.204 91.5531 205.395 91.7872C204.946 102.722 202.663 113.666 198.742 123.703C199.698 123.449 200.654 123.186 201.61 122.952Z" fill="#8461C9"/>
<path d="M199.289 114.573C198.587 117.012 197.777 119.441 196.861 121.869L196.607 124.298C197.319 124.093 198.031 123.908 198.743 123.713C202.664 113.676 204.937 102.732 205.396 91.797C204.576 92.0311 203.757 92.275 202.947 92.5383C202.567 99.9906 201.338 107.443 199.289 114.573Z" fill="#8461C9"/>
<path d="M265.267 94.6357C262.136 93.6896 258.995 92.8507 255.864 92.1094C255.503 96.4012 255.464 100.469 255.717 104.331C259.307 104.956 262.711 105.97 265.803 107.355L265.267 94.6357Z" fill="#8461C9"/>
<path d="M250.818 103.736C251.638 103.805 252.447 103.883 253.247 103.98C253.023 100.059 253.091 95.9135 253.472 91.5632C252.682 91.3876 251.891 91.2315 251.092 91.0657C250.701 95.4941 250.604 99.7275 250.818 103.736Z" fill="#8461C9"/>
<path d="M253.259 103.98C254.088 104.078 254.908 104.185 255.717 104.332C255.464 100.479 255.503 96.4013 255.864 92.1095C255.074 91.9241 254.284 91.7388 253.484 91.5632C253.094 95.9136 253.025 100.049 253.259 103.98Z" fill="#8461C9"/>
<path d="M117.86 198.275L78.7938 198.109C78.7938 198.109 78.5987 194.354 78.5987 187.945C21.6729 174.611 -10.3601 151.25 45.1611 119.246C-51.2596 159.775 20.9413 196.587 128.404 208.829C128.277 205.766 128.092 202.82 127.897 200.196C124.609 199.582 121.274 198.948 117.86 198.275Z" fill="#8461C9"/>
<path d="M308.79 193.466C305.171 201.981 298.509 207.453 287.477 207.795C287.291 207.834 281.068 209.395 268.397 210.546C288.199 208.858 307.19 206.39 324.582 203.249C323.772 198.616 322.943 194.353 322.28 191.183C317.881 191.993 313.374 192.754 308.79 193.466Z" fill="#8461C9"/>
<path d="M212.348 210.906C212.027 211.647 211.675 212.379 211.305 213.101C229.038 213.013 246.752 212.262 263.919 210.906C251.697 211.804 234.588 212.213 212.348 210.906Z" fill="#8461C9"/>
<path d="M267.07 210.662C266.416 210.721 265.743 210.77 265.051 210.828C265.724 210.77 266.397 210.711 267.07 210.662Z" fill="#8461C9"/>
<path d="M400.646 173.489C400.831 175.206 400.909 176.903 400.909 178.58C424.476 163.354 421.871 144.382 373.763 124.376C397.281 138.071 403.123 150.01 397.203 160.135C400.1 165.129 401.475 170.046 400.646 173.489Z" fill="#8461C9"/>
<path d="M308.789 193.466C278.424 198.187 244.752 200.674 215.021 200.82C214.66 204.371 213.734 207.746 212.349 210.906C234.588 212.213 251.707 211.804 263.91 210.916C264.29 210.887 264.67 210.857 265.041 210.828C265.734 210.779 266.407 210.721 267.06 210.662C267.509 210.623 267.948 210.584 268.397 210.545C281.067 209.394 287.291 207.834 287.476 207.795C298.508 207.453 305.17 201.981 308.789 193.466Z" fill="#8461C9"/>
<path d="M78.8043 198.108L117.87 198.274C121.274 198.947 124.62 199.581 127.917 200.196C127.81 198.811 127.712 197.523 127.605 196.363C110.311 194.265 93.6015 191.456 78.619 187.945C78.5995 194.353 78.8043 198.108 78.8043 198.108Z" fill="#8461C9"/>
<path d="M265.051 210.819C264.67 210.848 264.29 210.877 263.919 210.906C264.3 210.887 264.67 210.848 265.051 210.819Z" fill="#8461C9"/>
<path d="M268.397 210.545C267.949 210.584 267.51 210.623 267.061 210.662C267.519 210.623 267.968 210.584 268.397 210.545Z" fill="#8461C9"/>
<path d="M188.285 219.275C187.407 223.255 186.217 227.323 184.588 230.941C189.348 228.025 194.684 224.104 199.131 219.285C195.522 219.314 191.904 219.314 188.285 219.275Z" fill="#8461C9"/>
<path d="M134.374 229.303C138.948 227.42 145.727 223.831 151.375 217.647C145.884 217.227 140.441 216.72 135.066 216.144C135.086 220.797 134.91 225.421 134.374 229.303Z" fill="#8461C9"/>
<path d="M157.998 231C163.821 228.805 170.815 225.098 176.14 219.012C171.78 218.865 167.43 218.67 163.099 218.427C161.753 222.874 160.075 227.293 157.998 231Z" fill="#8461C9"/>
<path d="M208.243 194.802C208.662 194.802 209.082 194.802 209.511 194.802C209.96 191.632 209.96 186.043 206.107 180.512C201.727 174.221 191.29 166.739 166.573 164.427C159.501 167.812 151.6 169.743 142.948 169.743C137.563 169.743 131.887 168.973 125.946 167.373C114.007 169.607 101.756 173.245 95.2397 179.4C95.8835 179.507 96.5176 179.605 97.1516 179.712C111.071 181.965 123.088 183.906 132.364 190.393L133.447 191.154C157.189 193.758 182.804 195.085 208.243 194.802Z" fill="#8461C9"/>
<path d="M153.58 163.949C153.161 163.988 152.741 164.027 152.273 164.067C149.766 164.281 146.518 164.564 142.841 164.964C146.596 164.993 150.186 164.652 153.58 163.949Z" fill="#8461C9"/>
<path d="M166.563 164.427C164.895 164.271 163.169 164.135 161.374 164.037C152.731 167.266 142.958 168.261 132.199 166.319C130.141 166.632 128.043 166.983 125.937 167.373C131.887 168.973 137.564 169.743 142.938 169.743C151.59 169.743 159.491 167.812 166.563 164.427Z" fill="#8461C9"/>
<path d="M161.373 164.037C159.461 163.92 157.471 163.842 155.403 163.783C154.867 163.832 154.242 163.89 153.579 163.949C150.185 164.651 146.595 164.983 142.84 164.954C139.572 165.305 135.963 165.744 132.198 166.319C142.966 168.26 152.73 167.265 161.373 164.037Z" fill="#8461C9"/>
<path d="M158.925 205.337C151.15 204.205 142.976 202.879 134.461 201.367C134.637 203.815 134.802 206.595 134.91 209.521C141.825 210.233 148.878 210.848 156.028 211.355C157.13 209.521 158.105 207.522 158.925 205.337Z" fill="#8461C9"/>
<path d="M189.962 209.131C189.826 210.331 189.65 211.609 189.455 212.935C194.264 213.042 199.092 213.101 203.93 213.12C204.477 212.252 204.984 211.365 205.452 210.458C200.526 210.097 195.366 209.667 189.962 209.131Z" fill="#8461C9"/>
<path d="M166.065 206.332C165.724 208.097 165.314 209.98 164.846 211.931C170.015 212.233 175.234 212.477 180.482 212.672C181.204 211.316 181.838 209.872 182.374 208.341C177.136 207.756 171.713 207.102 166.065 206.332Z" fill="#8461C9"/>
<path d="M134.13 197.114C134.237 198.353 134.354 199.787 134.461 201.377C142.977 202.889 151.161 204.215 158.925 205.347C159.618 203.513 160.183 201.542 160.622 199.455C151.775 198.86 142.899 198.08 134.13 197.114Z" fill="#8461C9"/>
<path d="M208.243 200.81C202.508 200.888 196.626 200.859 190.647 200.742C190.578 202.303 190.403 205.346 189.964 209.121C195.358 209.648 200.528 210.087 205.454 210.447C207.014 207.453 208.117 204.234 208.546 200.81C208.448 200.81 208.351 200.81 208.243 200.81Z" fill="#8461C9"/>
<path d="M167.187 199.864C166.914 201.669 166.543 203.873 166.065 206.341C171.713 207.102 177.146 207.765 182.375 208.341C183.204 205.98 183.808 203.395 184.121 200.596C178.531 200.43 172.874 200.186 167.187 199.864Z" fill="#8461C9"/>
<path d="M135.066 216.144C140.45 216.72 145.893 217.227 151.375 217.646C152.253 216.69 153.092 215.657 153.901 214.574C147.551 214.106 141.25 213.54 135.027 212.877C135.046 213.959 135.056 215.052 135.066 216.144Z" fill="#8461C9"/>
<path d="M163.1 218.427C167.43 218.671 171.781 218.866 176.141 219.012C176.99 218.037 177.78 216.993 178.541 215.891C173.693 215.735 168.845 215.51 164.017 215.237C163.734 216.301 163.421 217.364 163.1 218.427Z" fill="#8461C9"/>
<path d="M188.919 216.144C188.733 217.178 188.519 218.222 188.285 219.276C191.903 219.315 195.522 219.315 199.131 219.276C200.048 218.281 200.926 217.256 201.755 216.193C197.483 216.232 193.201 216.213 188.919 216.144Z" fill="#8461C9"/>
<path d="M161.295 195.485L167.684 196.236C167.654 196.499 167.615 196.763 167.576 197.016C181.193 197.758 194.888 198.031 208.242 197.797C208.427 197.797 208.613 197.797 208.788 197.806L208.925 197.406C208.964 197.299 209.276 196.324 209.49 194.792C209.071 194.792 208.652 194.792 208.222 194.792C182.783 195.075 157.169 193.749 133.417 191.134L133.534 191.212L133.69 192.666C133.719 192.968 133.778 193.524 133.846 194.217C142.791 195.221 151.921 196.021 161.119 196.616C161.187 196.255 161.246 195.865 161.295 195.485Z" fill="#8461C9"/>
<path d="M188.919 216.144C193.201 216.213 197.483 216.232 201.756 216.203C202.526 215.208 203.258 214.174 203.931 213.121C199.093 213.111 194.264 213.052 189.455 212.935C189.299 213.979 189.124 215.052 188.919 216.144Z" fill="#8461C9"/>
<path d="M134.921 209.531C134.96 210.633 134.999 211.745 135.028 212.877C141.251 213.54 147.553 214.106 153.903 214.574C154.654 213.569 155.366 212.496 156.029 211.365C148.889 210.858 141.837 210.243 134.921 209.531Z" fill="#8461C9"/>
<path d="M164.847 211.931C164.584 213.013 164.311 214.116 164.018 215.237C168.846 215.51 173.685 215.735 178.542 215.891C179.244 214.876 179.888 213.803 180.483 212.672C175.235 212.487 170.027 212.233 164.847 211.931Z" fill="#8461C9"/>
<path d="M167.578 197.026C167.529 197.397 167.49 197.777 167.432 198.138C167.364 198.655 167.276 199.24 167.178 199.855C172.865 200.177 178.522 200.42 184.112 200.586C184.151 200.235 184.219 199.903 184.248 199.543L190.676 199.913C190.666 200.108 190.657 200.401 190.647 200.742C196.626 200.859 202.508 200.879 208.244 200.811C208.341 200.811 208.448 200.811 208.546 200.811C208.644 200.011 208.722 199.211 208.751 198.392L208.77 197.884L208.8 197.806C208.614 197.806 208.429 197.806 208.253 197.797C194.89 198.04 181.195 197.758 167.578 197.026Z" fill="#8461C9"/>
<path d="M161.06 197.26C161.089 197.055 161.109 196.851 161.138 196.646C151.94 196.051 142.81 195.241 133.865 194.246C133.943 195.007 134.031 195.973 134.129 197.124C142.898 198.089 151.774 198.87 160.631 199.465C160.777 198.723 160.943 198.011 161.06 197.26Z" fill="#8461C9"/>
<path d="M389.535 160.194C388.335 158.565 386.901 156.897 385.184 155.258C377.781 148.196 361.374 138.091 334.609 149.659C333.506 150.323 332.287 151.044 330.961 151.825C325.742 154.907 318.777 159.033 312.028 163.822C312.476 170.046 312.467 175.976 311.813 181.351C313.296 181.244 314.817 181.175 316.417 181.175C318.963 181.175 321.675 181.331 324.63 181.692L326.874 181.965L327.371 184.17C327.381 184.199 327.391 184.248 327.4 184.297C357.795 178.161 380.59 169.743 389.535 160.194Z" fill="#8461C9"/>
<path d="M378.756 215.881C384.452 209.073 390.773 199.396 393.309 188.345C389.251 190.403 384.794 192.393 380.014 194.305C380.229 201.045 380.053 208.975 378.756 215.881Z" fill="#8461C9"/>
<path d="M333.664 224.816C337.955 221.099 343.993 214.515 347.817 204.615C342.715 205.932 337.409 207.17 331.937 208.331C332.805 214.057 333.498 219.919 333.664 224.816Z" fill="#8461C9"/>
<path d="M354.858 221.977C360.857 217.188 367.91 209.345 371.041 197.65C366.807 199.123 362.359 200.537 357.716 201.893C357.346 208.75 356.517 216.008 354.858 221.977Z" fill="#8461C9"/>
<path d="M312.028 163.822C303.279 170.026 294.89 177.342 291.174 184.95C293.291 184.56 295.319 184.131 297.309 183.701C302.05 182.697 306.644 181.731 311.824 181.351C312.467 175.976 312.477 170.045 312.028 163.822Z" fill="#8461C9"/>
<path d="M394.277 172.816C394.277 172.816 394.267 168.699 392.775 165.549C385.722 172.172 373.432 177.898 357.874 182.697C357.991 185.818 358.089 190.5 357.972 195.816C363.005 194.441 367.784 193.007 372.281 191.495C372.74 188.003 372.847 184.228 372.515 180.141L378.914 179.488C379.051 180.59 379.46 184.111 379.763 188.832C385.137 186.793 389.995 184.648 394.277 182.414C394.55 179.536 394.277 172.816 394.277 172.816Z" fill="#8461C9"/>
<path d="M351.415 184.57C344.314 186.54 336.667 188.335 328.61 189.945C329.273 193.144 330.112 197.407 330.912 202.05C337.525 200.762 343.856 199.367 349.903 197.885C350.859 193.895 351.396 189.447 351.415 184.57Z" fill="#8461C9"/>
<path d="M357.726 201.893C362.369 200.537 366.817 199.123 371.05 197.65C371.333 196.597 371.577 195.514 371.792 194.402C367.393 195.924 362.74 197.377 357.872 198.772C357.833 199.796 357.785 200.84 357.726 201.893Z" fill="#8461C9"/>
<path d="M380.015 194.304C384.805 192.393 389.253 190.403 393.311 188.345C393.554 187.291 393.759 186.218 393.925 185.135C389.701 187.311 385.01 189.408 379.898 191.417C379.947 192.344 379.986 193.309 380.015 194.304Z" fill="#8461C9"/>
<path d="M351.367 181.283C351.357 180.971 351.338 180.659 351.328 180.356L355.171 180.142C371.597 175.069 384.249 169.129 391.164 162.603C390.677 161.813 390.14 161.014 389.535 160.194C380.591 169.734 357.795 178.152 327.401 184.307C327.479 184.668 327.694 185.624 328.006 187.057C336.346 185.302 344.178 183.37 351.367 181.283Z" fill="#8461C9"/>
<path d="M331.935 208.331C337.408 207.17 342.714 205.931 347.815 204.615C348.245 203.503 348.645 202.361 349.015 201.171C343.397 202.605 337.525 203.961 331.448 205.219C331.614 206.244 331.779 207.287 331.935 208.331Z" fill="#8461C9"/>
<path d="M351.367 181.283C344.178 183.37 336.345 185.301 328.005 187.047C328.181 187.867 328.386 188.842 328.61 189.944C336.657 188.325 344.314 186.53 351.416 184.57C351.416 183.867 351.445 183.175 351.425 182.453C351.406 182.063 351.386 181.673 351.367 181.283Z" fill="#8461C9"/>
<path d="M357.962 195.816C357.942 196.782 357.913 197.767 357.874 198.772C362.741 197.377 367.394 195.924 371.793 194.402C371.979 193.456 372.145 192.49 372.281 191.495C367.784 192.997 363.005 194.441 357.962 195.816Z" fill="#8461C9"/>
<path d="M379.906 191.417C385.017 189.408 389.709 187.32 393.933 185.135C394.079 184.228 394.196 183.321 394.284 182.404C390.002 184.638 385.134 186.784 379.77 188.822C379.809 189.651 379.857 190.52 379.906 191.417Z" fill="#8461C9"/>
<path d="M357.755 180.005C357.804 180.775 357.833 181.536 357.863 182.287C357.872 182.414 357.872 182.56 357.872 182.697C373.43 177.898 385.73 172.172 392.773 165.549C392.334 164.622 391.798 163.637 391.164 162.613C384.248 169.139 371.597 175.079 355.17 180.151L357.755 180.005Z" fill="#8461C9"/>
<path d="M330.911 202.059C331.087 203.093 331.272 204.147 331.438 205.219C337.515 203.961 343.387 202.605 349.005 201.172C349.327 200.118 349.63 199.026 349.903 197.894C343.865 199.377 337.525 200.772 330.911 202.059Z" fill="#8461C9"/>
<path d="M354.546 180.338C354.546 180.249 354.536 180.19 354.536 180.19C354.546 180.239 354.546 180.289 354.546 180.338Z" fill="#8461C9"/>
<path d="M354.664 183.653C354.664 183.624 354.664 183.585 354.664 183.555C354.664 183.585 354.654 183.614 354.664 183.653Z" fill="#8461C9"/>
<path d="M354.653 183.34C354.653 183.409 354.653 183.478 354.663 183.547C354.663 183.478 354.653 183.409 354.653 183.34Z" fill="#8461C9"/>
<path d="M206.634 135.574C206.244 129.995 207.99 125.137 211.131 121.05C209.716 121.275 208.312 121.518 206.897 121.792C204.4 125.996 203.24 130.687 203.552 135.623C203.425 139.847 205.249 145.797 214.447 150.498C221.87 154.293 232.99 156.39 244.12 156.39C255.727 156.39 267.354 154.107 274.816 149.094C273.87 148.518 272.943 147.884 272.027 147.221C252.85 158.76 205.863 153.61 206.634 135.574Z" fill="#8461C9"/>
<path d="M283.068 134.209C281.741 132.785 280.512 131.214 279.391 129.507C279.469 130.17 279.566 130.824 279.595 131.526C280.844 136.667 279.352 140.861 276.055 144.138C276.933 144.724 277.82 145.27 278.727 145.777C281.819 142.461 283.292 138.54 283.068 134.209Z" fill="#8461C9"/>
<path d="M273.841 116.758C273.402 115.071 273.06 113.344 272.797 111.569C271.197 110.291 269.451 109.12 267.481 108.116C266.944 107.843 266.369 107.599 265.803 107.345L265.95 110.827C268.983 112.369 271.675 114.329 273.841 116.758Z" fill="#8461C9"/>
<path d="M272.037 147.23C272.954 147.894 273.88 148.518 274.826 149.103C275.363 148.742 275.88 148.372 276.368 147.991C276.553 147.845 276.699 147.689 276.875 147.543C275.948 147.006 275.041 146.421 274.153 145.806C273.49 146.304 272.788 146.782 272.037 147.23Z" fill="#8461C9"/>
<path d="M278.726 145.777C277.818 145.27 276.931 144.724 276.053 144.139C275.468 144.724 274.834 145.27 274.141 145.797C275.029 146.411 275.936 146.997 276.863 147.533C277.545 146.967 278.16 146.382 278.726 145.777Z" fill="#8461C9"/>
<path d="M279.39 129.507C280.502 131.214 281.731 132.785 283.068 134.209C283.019 133.194 282.902 132.16 282.658 131.097C282.258 123.011 278.844 116.388 272.796 111.569C273.06 113.344 273.401 115.071 273.84 116.758C276.825 120.114 278.795 124.347 279.39 129.507Z" fill="#8461C9"/>
<path d="M251.045 106.79C250.948 105.785 250.879 104.761 250.821 103.727C239.018 102.81 226.113 105.58 216.74 111.774C212.438 114.612 209.131 118.007 206.897 121.782C208.302 121.509 209.716 121.255 211.131 121.04C219.051 110.74 235.975 105.463 251.045 106.79Z" fill="#8461C9"/>
<path d="M265.949 110.827L265.803 107.345C262.711 105.96 259.306 104.946 255.717 104.321C255.785 105.394 255.883 106.448 256 107.482C259.56 108.174 262.925 109.286 265.949 110.827Z" fill="#8461C9"/>
<path d="M253.494 107.082C253.396 106.068 253.308 105.034 253.25 103.98C252.44 103.883 251.63 103.805 250.821 103.736C250.879 104.77 250.948 105.794 251.045 106.799C251.874 106.867 252.684 106.965 253.494 107.082Z" fill="#8461C9"/>
<path d="M255.99 107.482C255.873 106.448 255.785 105.395 255.707 104.322C254.897 104.185 254.078 104.078 253.249 103.971C253.308 105.024 253.386 106.058 253.493 107.073C254.341 107.199 255.171 107.326 255.99 107.482Z" fill="#8461C9"/>
<path d="M217.256 145.026C213.705 143.212 209.52 140.12 209.706 135.711L209.716 135.535L209.706 135.359C209.247 128.814 212.183 123.918 215.753 120.426C214.212 120.601 212.671 120.806 211.13 121.05C207.989 125.137 206.243 130.004 206.633 135.574C205.863 153.61 252.849 158.75 272.035 147.221C271.138 146.567 270.241 145.884 269.382 145.153C256.711 151.961 231.282 152.205 217.256 145.026Z" fill="#8461C9"/>
<path d="M279.594 131.526C279.565 130.824 279.467 130.18 279.389 129.507C276.951 125.79 275.058 121.469 273.839 116.758C271.674 114.329 268.981 112.369 265.948 110.827L266.094 114.378C270.932 117.236 276.141 122.435 276.521 131.653L276.609 132.257C277.565 136.198 276.541 139.495 273.527 142.304C274.356 142.958 275.195 143.572 276.063 144.148C279.35 140.861 280.852 136.666 279.594 131.526Z" fill="#8461C9"/>
<path d="M269.382 145.163C270.25 145.894 271.138 146.577 272.035 147.23C272.786 146.782 273.488 146.304 274.152 145.806C273.264 145.192 272.386 144.548 271.538 143.855C270.865 144.314 270.152 144.753 269.382 145.163Z" fill="#8461C9"/>
<path d="M272.552 143.153C272.24 143.397 271.869 143.612 271.528 143.846C272.376 144.539 273.254 145.182 274.142 145.797C274.835 145.27 275.469 144.724 276.054 144.139C275.195 143.563 274.347 142.949 273.518 142.295C273.215 142.588 272.903 142.88 272.552 143.153Z" fill="#8461C9"/>
<path d="M279.391 129.507C278.795 124.347 276.825 120.114 273.84 116.758C275.06 121.469 276.952 125.79 279.391 129.507Z" fill="#8461C9"/>
<path d="M220.133 116.914C227.399 112.115 237.046 109.618 246.313 109.618C248.03 109.618 249.727 109.706 251.395 109.881C251.258 108.867 251.141 107.843 251.044 106.799C235.973 105.472 219.05 110.74 211.129 121.06C212.671 120.816 214.202 120.611 215.753 120.435C217.167 119.04 218.689 117.87 220.133 116.914Z" fill="#8461C9"/>
<path d="M264.68 113.588C265.148 113.822 265.626 114.096 266.104 114.378L265.958 110.828C262.934 109.296 259.569 108.184 255.999 107.492C256.116 108.575 256.262 109.648 256.428 110.701C259.383 111.345 262.173 112.311 264.68 113.588Z" fill="#8461C9"/>
<path d="M253.873 110.203C253.727 109.179 253.6 108.135 253.493 107.082C252.683 106.965 251.864 106.867 251.035 106.799C251.132 107.843 251.249 108.867 251.386 109.881C252.234 109.959 253.064 110.077 253.873 110.203Z" fill="#8461C9"/>
<path d="M256.418 110.691C256.252 109.638 256.106 108.574 255.989 107.482C255.169 107.326 254.331 107.189 253.492 107.072C253.599 108.135 253.726 109.169 253.872 110.194C254.74 110.34 255.579 110.506 256.418 110.691Z" fill="#8461C9"/>
</svg>
